<?xml version="1.0" standalone="no"?>
<!DOCTYPE svg PUBLIC "-//W3C//DTD SVG 1.1//EN" "http://www.w3.org/Graphics/SVG/1.1/DTD/svg11.dtd" >
<svg xmlns="http://www.w3.org/2000/svg" xmlns:xlink="http://www.w3.org/1999/xlink" version="1.1">
<metadata>
Created by FontForge 20170924 at Sun Jan  6 23:42:13 2019
 By www-data
Copyright 1990-1998 Bitstream Inc.  All rights reserved.
</metadata>
<defs>
<font id="AachenBTRusbyme-Bold" horiz-adv-x="0" >
  <font-face 
    font-family="Aachen BT [Rus by me]"
    font-weight="700"
    font-stretch="condensed"
    units-per-em="2048"
    panose-1="2 4 9 6 3 7 6 5 2 4"
    ascent="1556"
    descent="-492"
    x-height="1118"
    cap-height="1487"
    bbox="-352 -485 2460 2034"
    underline-thickness="270"
    underline-position="-368"
    unicode-range="U+001D-F002"
  />
<missing-glyph horiz-adv-x="1229" 
d="M102 -362v1806h1024v-1806h-1024zM217 -248h795v1577h-795v-1577z" />
    <glyph glyph-name=".notdef" horiz-adv-x="1229" 
d="M102 -362v1806h1024v-1806h-1024zM217 -248h795v1577h-795v-1577z" />
    <glyph glyph-name=".null" 
 />
    <glyph glyph-name=".null" 
 />
    <glyph glyph-name="glyph2" horiz-adv-x="682" 
 />
    <glyph glyph-name="nonmarkingreturn" unicode=" " horiz-adv-x="682" 
 />
    <glyph glyph-name="exclam" unicode="!" horiz-adv-x="782" 
d="M186 186q0 83 60 144t143 61q85 0 145 -60t60 -145q0 -84 -61 -144t-144 -60q-82 0 -142.5 61t-60.5 143zM287 477l-140 754q-6 30 -9 59t-3 53q0 105 63.5 157t190.5 52q128 0 192 -52t64 -157q0 -16 -3.5 -45.5t-10.5 -66.5l-139 -754h-205z" />
    <glyph glyph-name="quotedbl" unicode="&#x22;" horiz-adv-x="758" 
d="M690 1440v-563h-260v563h260zM326 1440v-563h-258v563h258z" />
    <glyph glyph-name="numbersign" unicode="#" horiz-adv-x="1575" 
d="M946 834h-239l-78 -213h239zM938 1470l-129 -366h227l129 366h289l-129 -366h256l-100 -270h-252l-76 -213h258l-100 -271h-254l-131 -366h-289l131 366h-227l-131 -366h-289l131 366h-258l100 271h254l74 213h-258l98 270h258l129 366h289z" />
    <glyph glyph-name="dollar" unicode="$" horiz-adv-x="1366" 
d="M133 152v407h459v-82q0 -92 22 -128t74 -36q48 0 73 33.5t25 95.5q0 114 -217 177q-48 14 -73 22q-236 72 -310.5 161t-74.5 259q0 212 95.5 320t307.5 137v114h356v-125q106 -23 194 -58t163 -83v-367h-445v68q0 70 -24.5 106.5t-71.5 36.5q-48 0 -72 -26t-24 -78
q0 -99 225 -161q25 -7 39 -11q259 -73 335.5 -170t76.5 -301q0 -200 -96.5 -312t-299.5 -147v-127h-356v129q-132 23 -226 59t-155 87z" />
    <glyph glyph-name="percent" unicode="%" horiz-adv-x="1745" 
d="M1317 494v-271q0 -38 11.5 -53.5t39.5 -15.5q29 0 41 15.5t12 53.5v271q0 38 -12 53.5t-41 15.5q-27 0 -39 -16t-12 -53zM1051 469q0 147 68.5 203.5t248.5 56.5q181 0 250.5 -56t69.5 -204v-221q0 -147 -70 -203.5t-250 -56.5t-248.5 56t-68.5 204v221zM322 1296v-270
q0 -41 11 -55.5t40 -14.5q28 0 39.5 16t11.5 54v270q0 40 -12 56t-39 16q-28 0 -39.5 -15.5t-11.5 -56.5zM55 1272q0 149 69.5 205.5t248.5 56.5t248 -56t69 -206v-221q0 -149 -68.5 -204.5t-248.5 -55.5q-179 0 -248.5 56.5t-69.5 203.5v221zM1462 1534l-878 -1534h-305
l880 1534h303z" />
    <glyph glyph-name="ampersand" unicode="&#x26;" horiz-adv-x="1321" 
d="M741 336v323h-10q-98 0 -134 -34t-36 -129q0 -88 32 -124t107 -36h41zM1196 0h-616q-143 0 -208 9.5t-112 31.5q-93 43 -140.5 142t-47.5 249q0 154 49 248t149 131q-93 38 -138.5 114.5t-45.5 194.5q0 211 134.5 321.5t387.5 110.5q147 0 294 -36t294 -109v-297h-454
q-2 60 -24.5 89.5t-66.5 29.5t-66 -35t-22 -104q0 -81 34.5 -114.5t117.5 -33.5h26v82h455v-82h74v-283h-74v-659z" />
    <glyph glyph-name="quotesingle" unicode="'" horiz-adv-x="393" 
d="M326 1440v-563h-258v563h258z" />
    <glyph glyph-name="parenleft" unicode="(" horiz-adv-x="846" 
d="M555 1647l246 -156q-120 -212 -178 -417t-58 -419q0 -211 58 -415.5t178 -417.5l-244 -158q-222 241 -331 486.5t-109 504.5q0 262 108 506.5t330 485.5z" />
    <glyph glyph-name="parenright" unicode=")" horiz-adv-x="846" 
d="M291 1647q223 -244 330.5 -487.5t107.5 -504.5q0 -258 -108.5 -503t-331.5 -488l-244 158q119 212 177.5 417.5t58.5 415.5t-57.5 414.5t-178.5 421.5z" />
    <glyph glyph-name="asterisk" unicode="*" horiz-adv-x="854" 
d="M334 741v252l-228 -123l-79 152l217 125l-217 125l79 151l228 -120v249h182v-249l223 120l86 -151l-223 -125l223 -125l-86 -152l-223 123v-252h-182z" />
    <glyph glyph-name="plus" unicode="+" horiz-adv-x="1706" 
d="M993 1221v-473h459v-273h-459v-475h-280v475h-459v273h459v473h280z" />
    <glyph glyph-name="comma" unicode="," horiz-adv-x="682" 
d="M201 -182q39 50 69 99.5t51 96.5q-84 5 -134 51.5t-50 120.5q0 82 60 142.5t143 60.5q90 0 147.5 -62t57.5 -161q0 -100 -63.5 -205.5t-194.5 -222.5z" />
    <glyph glyph-name="hyphen" unicode="-" horiz-adv-x="782" 
d="M90 393v369h602v-369h-602z" />
    <glyph glyph-name="period" unicode="." horiz-adv-x="682" 
d="M137 184q0 83 60 144t143 61q84 0 144.5 -60t60.5 -145q0 -84 -60.5 -143t-144.5 -59q-82 0 -142.5 60t-60.5 142z" />
    <glyph glyph-name="slash" unicode="/" horiz-adv-x="664" 
d="M254 -190h-336l442 1712h338z" />
    <glyph glyph-name="zero" unicode="0" horiz-adv-x="1366" 
d="M776 451v628q0 84 -22 118t-72 34t-72 -34t-22 -118v-628q0 -83 21.5 -116.5t72.5 -33.5q50 0 72 34.5t22 115.5zM115 999q0 315 124 434t443 119t444 -119t125 -434v-473q0 -312 -124.5 -431.5t-444.5 -119.5q-319 0 -443 119t-124 432v473z" />
    <glyph glyph-name="one" unicode="1" horiz-adv-x="1366" 
d="M444 1122q0 64 -13 94.5t-44 47.5v266h533v-1120q0 -68 12 -96t43 -44v-270h-588v270q32 17 44.5 47t12.5 93v712z" />
    <glyph glyph-name="two" unicode="2" horiz-adv-x="1366" 
d="M113 0v342q0 197 66.5 296t279.5 204q37 18 102 48q223 104 223 212q0 57 -26 91t-68 34q-49 0 -74.5 -37t-25.5 -107v-102h-447v412q124 80 262.5 118.5t305.5 38.5q280 0 414.5 -117t134.5 -362q0 -113 -28.5 -190t-92.5 -140q-52 -50 -298 -174l-102 -51
q-110 -57 -139 -91.5t-29 -84.5v-14h78q78 0 104.5 29t29.5 120h446v-475h-1116z" />
    <glyph glyph-name="three" unicode="3" horiz-adv-x="1366" 
d="M123 131v422h455v-94q0 -91 21 -124.5t71 -33.5q49 0 74.5 40.5t25.5 119.5q0 96 -39 135t-151 39h-140v297h140q111 0 146.5 34.5t35.5 127.5q0 63 -26 97t-74 34q-43 0 -63.5 -33.5t-20.5 -101.5v-76h-455v366q113 84 258.5 127t314.5 43q267 0 403 -109.5t136 -324.5
q0 -127 -50.5 -204t-154.5 -109q109 -36 164 -124.5t55 -229.5q0 -247 -134.5 -360.5t-426.5 -113.5q-180 0 -319 38.5t-246 117.5z" />
    <glyph glyph-name="four" unicode="4" horiz-adv-x="1366" 
d="M721 684v389l-256 -389h256zM635 0v270q40 10 58 32t18 63v8h-619v366l529 791h544v-846h103v-311h-102q1 -47 14.5 -69.5t46.5 -33.5v-270h-592z" />
    <glyph glyph-name="five" unicode="5" horiz-adv-x="1366" 
d="M154 154v421h452v-118q0 -82 22 -118t72 -36q42 0 64 30.5t22 88.5v43v141q0 68 -23 101.5t-71 33.5q-27 0 -47.5 -14.5t-38.5 -46.5h-452v850h1073v-416h-446q-5 54 -30 77t-79 23h-66v-208q48 20 105.5 30.5t122.5 10.5q231 0 330.5 -119.5t99.5 -409.5
q0 -293 -127 -417t-422 -124q-160 0 -300.5 44.5t-260.5 132.5z" />
    <glyph glyph-name="six" unicode="6" horiz-adv-x="1366" 
d="M588 541v-90q0 -83 21.5 -116.5t72.5 -33.5q50 0 72 34.5t22 115.5v90q0 81 -22 115t-72 34t-72 -34t-22 -115zM115 999q0 308 121 430.5t415 122.5q166 0 305.5 -41t257.5 -125v-335h-438v28q0 84 -22 118t-72 34t-72 -34t-22 -118v-135q52 21 114 31t132 10
q211 0 314 -120t103 -365q0 -291 -127 -408t-442 -117q-319 0 -443 119t-124 432v473z" />
    <glyph glyph-name="seven" unicode="7" horiz-adv-x="1366" 
d="M289 0l440 1204h-22q-93 0 -123.5 -31.5t-30.5 -136.5v-129h-391v623h1091v-277l-460 -1253h-504z" />
    <glyph glyph-name="eight" unicode="8" horiz-adv-x="1366" 
d="M307 799q-101 42 -143.5 112.5t-42.5 198.5q0 231 133.5 336.5t427.5 105.5q295 0 428 -105t133 -337q0 -129 -41.5 -199t-142.5 -112q107 -41 159 -128.5t52 -228.5q0 -236 -145 -351.5t-443 -115.5t-443 115.5t-145 351.5q0 141 52.5 228t160.5 129zM588 498v-47
q0 -83 21.5 -116.5t72.5 -33.5q50 0 72 34.5t22 115.5v47q0 81 -22 115t-72 34t-72 -34t-22 -115zM776 1079q0 82 -22 117t-72 35t-72 -34t-22 -118q0 -82 21.5 -115.5t72.5 -33.5t72.5 33t21.5 116z" />
    <glyph glyph-name="nine" unicode="9" horiz-adv-x="1366" 
d="M776 971v106q0 81 -22 115.5t-72 34.5t-72 -34.5t-22 -115.5v-106q0 -83 21.5 -116.5t72.5 -33.5q50 0 72 34.5t22 115.5zM1251 528q0 -307 -122 -431t-416 -124q-165 0 -306.5 39t-256.5 115v330h438v-21q0 -73 22.5 -106t71.5 -33q51 0 72.5 34t21.5 118v124
q-48 -26 -106 -38.5t-131 -12.5q-217 0 -320.5 125t-103.5 387q0 284 127.5 401t439.5 117q320 0 444.5 -119t124.5 -432v-473z" />
    <glyph glyph-name="colon" unicode=":" horiz-adv-x="682" 
d="M137 184q0 83 60 144t143 61q84 0 144.5 -60t60.5 -145q0 -84 -60.5 -143t-144.5 -59q-82 0 -142.5 60t-60.5 142zM137 793q0 83 60 143.5t143 60.5q84 0 144.5 -60t60.5 -144t-60.5 -143.5t-144.5 -59.5q-82 0 -142.5 60t-60.5 143z" />
    <glyph glyph-name="semicolon" unicode=";" horiz-adv-x="682" 
d="M201 -182q39 50 69 99.5t51 96.5q-84 5 -134 51.5t-50 120.5q0 82 60 142.5t143 60.5q90 0 147.5 -62t57.5 -161q0 -100 -63.5 -205.5t-194.5 -222.5zM137 793q0 83 60 143.5t143 60.5q84 0 144.5 -60t60.5 -144t-60.5 -143.5t-144.5 -59.5q-82 0 -142.5 60t-60.5 143z
" />
    <glyph glyph-name="less" unicode="&#x3c;" horiz-adv-x="1706" 
d="M1442 938l-801 -328l801 -327v-299l-1178 487v281l1178 487v-301z" />
    <glyph glyph-name="equal" unicode="=" horiz-adv-x="1706" 
d="M1452 512v-272h-1198v272h1198zM1452 983v-272h-1198v272h1198z" />
    <glyph glyph-name="greater" unicode="&#x3e;" horiz-adv-x="1706" 
d="M1442 752v-281l-1178 -487v299l801 327l-801 328v301z" />
    <glyph glyph-name="question" unicode="?" horiz-adv-x="1270" 
d="M356 184q0 83 61 144t144 61q84 0 143.5 -60t59.5 -145q0 -84 -60 -143t-143 -59q-82 0 -143.5 60t-61.5 142zM324 481v115q0 224 198 337l13 7q112 65 143 101.5t31 82.5q0 47 -26.5 76t-68.5 29q-44 0 -68 -34.5t-24 -98.5v-90h-438v387q115 81 252.5 120t310.5 39
q267 0 403 -112.5t136 -335.5q0 -103 -20 -167t-66 -116q-41 -47 -165 -116q-45 -25 -69 -39q-64 -39 -84 -75.5t-20 -109.5h-438z" />
    <glyph glyph-name="at" unicode="@" horiz-adv-x="2048" 
d="M1241 911l49 82h242l-156 -627q-2 -12 -3 -18.5t-1 -11.5q0 -24 12.5 -36.5t34.5 -12.5q128 0 231 142t103 331q0 236 -174.5 381t-462.5 145q-142 0 -266 -35.5t-225 -105.5q-154 -108 -238 -269t-84 -350q0 -294 199.5 -468.5t535.5 -174.5q160 0 307.5 47t278.5 140
l115 -160q-164 -122 -342 -181t-381 -59q-188 0 -355 54.5t-294 156.5q-149 119 -223 279t-74 360q0 176 55.5 332.5t163.5 284.5q149 177 361.5 271.5t461.5 94.5q386 0 626 -206t240 -533q0 -171 -68 -314.5t-196 -242.5q-70 -55 -153.5 -84t-174.5 -29q-109 0 -166.5 38
t-66.5 115q-59 -79 -127.5 -115t-161.5 -36q-171 0 -257.5 88t-86.5 262q0 247 143.5 411.5t356.5 164.5q74 0 130.5 -28t90.5 -83zM1126 494l47 195q-7 67 -42 104.5t-91 37.5q-95 0 -167 -116.5t-72 -274.5q0 -72 30.5 -111.5t86.5 -39.5q72 0 129 55.5t79 149.5z" />
    <glyph glyph-name="A" unicode="A" horiz-adv-x="1339" 
d="M553 664h158l-86 540zM53 0v270q21 8 38.5 41t27.5 84l205 1127h671l232 -1127q12 -52 31 -84.5t42 -40.5v-270h-593v270q23 8 37 30t14 52q0 5 -3.5 19.5t-5.5 21.5h-231q-1 -7 -3.5 -23t-2.5 -24q0 -34 16.5 -52.5t50.5 -23.5l1 -270h-527z" />
    <glyph glyph-name="B" unicode="B" horiz-adv-x="1360" 
d="M609 934q7 -1 17.5 -1.5t30.5 -0.5q77 0 113.5 33.5t36.5 103.5q0 72 -35 107.5t-104 35.5q-39 0 -60 -2zM608 318q9 -2 19 -2.5t30 -0.5q81 0 119.5 41t38.5 127q0 84 -43.5 124t-134.5 40h-29v-329zM88 0v270q31 16 43 45.5t12 94.5v706q0 65 -12 94t-43 45v267h674
q284 0 400 -90.5t116 -305.5q0 -133 -63 -217.5t-179 -107.5q134 -26 200.5 -116t66.5 -245q0 -238 -120 -339t-417 -101h-678z" />
    <glyph glyph-name="C" unicode="C" horiz-adv-x="1294" 
d="M1210 1384v-421h-456v116q0 82 -21 116t-69 34q-49 0 -70 -33t-21 -117v-633q0 -83 21 -116t70 -33t69.5 33t20.5 116v191h456v-508q-102 -81 -242 -120.5t-327 -39.5q-298 0 -420.5 121t-122.5 422v496q0 297 121.5 420.5t407.5 123.5q172 0 320 -42.5t263 -125.5z" />
    <glyph glyph-name="D" unicode="D" horiz-adv-x="1358" 
d="M74 0v270q30 16 42.5 45.5t12.5 94.5v706q0 65 -12.5 94t-42.5 45v267h581q356 0 480.5 -111t124.5 -422v-457q0 -310 -125 -421t-480 -111h-581zM604 332h55q74 0 100.5 32t26.5 125v558q0 87 -26 115t-101 28h-55v-858z" />
    <glyph glyph-name="E" unicode="E" horiz-adv-x="1313" 
d="M88 0v270q32 17 44.5 47t12.5 93v706q0 63 -12.5 93t-44.5 46v267h1139v-504h-436v43q0 82 -28 110.5t-106 28.5h-41v-270h302v-295h-302l1 -307q6 -1 15 -1.5t25 -0.5q75 0 105.5 38.5t30.5 135.5q0 21 -0.5 32.5t-1.5 22.5h436v-555h-1139z" />
    <glyph glyph-name="F" unicode="F" horiz-adv-x="1225" 
d="M618 410q0 -71 16.5 -100t57.5 -40v-270h-604v270q31 16 43 45.5t12 94.5v706q0 65 -12 94t-43 45v267h1104v-531h-410v45q0 95 -27.5 126.5t-101.5 31.5h-35v-287h300v-299h-300v-198z" />
    <glyph glyph-name="G" unicode="G" horiz-adv-x="1313" 
d="M1210 1384v-391h-456v86q0 82 -21 116t-69 34q-49 0 -70 -33t-21 -117v-633q0 -83 21 -116t70 -33t69.5 33t20.5 116v113h-76v303h532v-733q-102 -81 -242 -120.5t-327 -39.5q-298 0 -420.5 121t-122.5 422v496q0 297 121.5 420.5t407.5 123.5q172 0 320 -42.5
t263 -125.5z" />
    <glyph glyph-name="H" unicode="H" horiz-adv-x="1419" 
d="M618 410q0 -75 12 -102t40 -38v-270h-582v270q31 16 43 45.5t12 94.5v706q0 65 -12 94t-43 45v267h582v-267q-29 -12 -40.5 -38.5t-11.5 -100.5v-182h183v182q0 71 -11 98.5t-40 40.5v267h581v-267q-30 -15 -42.5 -43.5t-12.5 -95.5v-706q0 -68 12 -96t43 -44v-270h-581
v270q28 12 39.5 40t11.5 100v231h-183v-231z" />
    <glyph glyph-name="I" unicode="I" horiz-adv-x="778" 
d="M682 1522v-267q-31 -15 -43 -43.5t-12 -95.5v-706q0 -68 12 -96t43 -44v-270h-588v270q32 17 45 47t13 93v706q0 63 -13 93t-45 46v267h588z" />
    <glyph glyph-name="J" unicode="J" horiz-adv-x="831" 
d="M43 6v268q103 3 139.5 48.5t36.5 228.5v584q0 59 -15 84.5t-52 35.5v267h598v-267q-32 -16 -45 -41.5t-13 -83.5v-577q0 -189 -12 -263t-41 -126q-51 -92 -141 -137t-224 -45q-60 0 -117.5 6t-113.5 18z" />
    <glyph glyph-name="K" unicode="K" horiz-adv-x="1395" 
d="M618 874l140 283q17 34 25 67.5t8 80.5v14v203h532v-267q-15 -10 -29 -25.5t-28 -37.5l-244 -363l248 -452q25 -46 43 -69t39 -38v-270h-561v197q0 80 -34 158q-5 12 -7 17l-132 310v-272q0 -75 12 -102t40 -38v-270h-582v270q31 16 43 45.5t12 94.5v706q0 65 -12 94
t-43 45v267h582v-267q-29 -12 -40.5 -38.5t-11.5 -100.5v-242z" />
    <glyph glyph-name="L" unicode="L" horiz-adv-x="1255" 
d="M88 0v270q31 16 43 45.5t12 94.5v706q0 65 -12 94t-43 45v267h604v-266q-40 -7 -57 -41.5t-17 -122.5v-762h29q74 0 100.5 31t26.5 149v229h414v-739h-1100z" />
    <glyph glyph-name="M" unicode="M" horiz-adv-x="1692" 
d="M494 907v-497q0 -72 11.5 -100t41.5 -40v-270h-459v270q31 16 43 45.5t12 94.5v706q0 65 -12 94t-43 45v267h625l139 -650l139 650h613v-267q-32 -15 -45 -44.5t-13 -94.5v-706q0 -66 13 -95t45 -45v-270h-549v270q28 12 39.5 40t11.5 100v497l-209 -907h-184z" />
    <glyph glyph-name="N" unicode="N" horiz-adv-x="1376" 
d="M504 410q0 -73 12.5 -100.5t44.5 -39.5v-270h-487v270q31 17 44 47t13 93v706q0 63 -13 93t-44 46v267h524l289 -770v364q0 72 -14.5 98.5t-51.5 40.5v267h496v-267q-31 -15 -43 -43.5t-12 -95.5v-1116h-463l-295 725v-315z" />
    <glyph glyph-name="O" unicode="O" horiz-adv-x="1335" 
d="M762 446v633q0 81 -22 115.5t-72 34.5q-51 0 -73 -33.5t-22 -116.5v-633q0 -82 22 -115.5t73 -33.5q50 0 72 34t22 115zM98 1008q0 306 126 425t444 119q317 0 442 -119t125 -425v-496q0 -305 -124.5 -424t-442.5 -119q-319 0 -444.5 118.5t-125.5 424.5v496z" />
    <glyph glyph-name="P" unicode="P" horiz-adv-x="1331" 
d="M610 754h31q90 0 124 33t34 120v135q0 95 -33.5 128.5t-124.5 33.5h-31v-450zM610 410q0 -72 17.5 -100t62.5 -40v-270h-602v270q31 16 43 45.5t12 94.5v706q0 65 -12 94t-43 45v267h651q301 0 415 -115t114 -451q0 -293 -114.5 -407.5t-408.5 -114.5h-135v-24z" />
    <glyph glyph-name="Q" unicode="Q" horiz-adv-x="1335" 
d="M735 -31h-57q-329 0 -454.5 118t-125.5 425v496q0 306 126 425t444 119q317 0 442 -119t125 -425v-496q0 -151 -21 -238t-69 -145q24 -24 49 -44.5t53 -39.5l-155 -272q-116 46 -201.5 93.5t-155.5 102.5zM762 446v633q0 81 -22 115.5t-72 34.5q-51 0 -73 -33.5
t-22 -116.5v-633q0 -82 22 -115.5t73 -33.5q50 0 72 34t22 115z" />
    <glyph glyph-name="R" unicode="R" horiz-adv-x="1374" 
d="M614 895h48q82 0 112.5 34t30.5 126q0 89 -34.5 121t-131.5 32h-25v-313zM614 410q0 -75 12.5 -101t45.5 -39v-270h-584v270q31 16 43 45.5t12 94.5v706q0 65 -12 94t-43 45v267h666q294 0 413 -94t119 -316q0 -144 -54.5 -228.5t-168.5 -119.5q108 -29 149.5 -85.5
t44.5 -217.5q1 -6 1 -16q3 -148 57 -175v-270h-506q-26 101 -28 328q0 42 -1 64q-2 130 -31 166t-108 36h-27v-184z" />
    <glyph glyph-name="S" unicode="S" horiz-adv-x="1307" 
d="M106 133v418h461v-84q0 -98 21.5 -133t75.5 -35q46 0 72 35t26 98q0 118 -224 185q-43 13 -65 20q-243 77 -316 167t-73 265q0 249 133 366t414 117q161 0 303 -41.5t268 -126.5v-378h-446v69q0 73 -25 111.5t-72 38.5q-48 0 -72 -27t-24 -80q0 -102 234 -169l30 -9
q261 -76 336.5 -176t75.5 -311q0 -246 -138.5 -365t-424.5 -119q-176 0 -322.5 42.5t-247.5 121.5z" />
    <glyph glyph-name="T" unicode="T" horiz-adv-x="1405" 
d="M1358 1522v-691h-334v259q0 68 -20 92.5t-74 27.5v-800q0 -66 18 -94.5t64 -45.5v-270h-619v270q45 16 62.5 44t17.5 96v800q-54 -3 -74 -27.5t-20 -92.5v-259h-332v691h1311z" />
    <glyph glyph-name="U" unicode="U" horiz-adv-x="1346" 
d="M784 1116q0 69 -11.5 97.5t-41.5 41.5v267h543v-267q-32 -15 -44.5 -44.5t-12.5 -94.5v-536q0 -178 -12 -254.5t-40 -128.5q-62 -116 -185 -172t-314 -56q-164 0 -279 46.5t-182 140.5q-39 55 -55.5 124.5t-16.5 198.5v80v557q0 63 -15 93t-52 46v267h583v-266
q-30 -14 -41.5 -41.5t-11.5 -98.5v-670q0 -82 21.5 -115.5t72.5 -33.5t72.5 34t21.5 115v670z" />
    <glyph glyph-name="V" unicode="V" horiz-adv-x="1284" 
d="M334 0l-228 1120q-12 59 -27.5 89t-39.5 46v267h586l-1 -267q-23 -8 -33.5 -25.5t-10.5 -47.5q0 -2 1 -9t1 -14q0 -5 2 -22t6 -40l102 -663l86 682q2 16 3 30t1 23q0 41 -11 59t-40 27v267h516v-267q-23 -10 -37 -34t-22 -64l-211 -1157h-643z" />
    <glyph glyph-name="W" unicode="W" horiz-adv-x="1802" 
d="M317 0l-208 1098l-1 1q-16 95 -71 156v267h581v-267q-22 -13 -32.5 -32.5t-10.5 -48.5q1 -12 3 -35q1 -9 2 -15l55 -499l139 897h330l158 -897l41 467q1 18 2.5 38.5t1.5 22.5q0 42 -11 64.5t-39 37.5v267h510v-267q-23 -19 -36 -44.5t-21 -73.5l-209 -1137h-471
l-121 788l-123 -788h-469z" />
    <glyph glyph-name="X" unicode="X" horiz-adv-x="1268" 
d="M29 0v270q32 27 67 82q4 7 6 10l271 435l-254 385q-18 27 -34.5 44t-35.5 29v267h535v-136q0 -7 -1 -20t-1 -18q0 -23 8.5 -49.5t27.5 -65.5l54 -107l45 105q2 5 7 15q30 60 30 140v136h479v-267q-23 -15 -39 -31.5t-27 -34.5l-258 -411l274 -431q4 -6 10 -16
q30 -45 52 -61v-270h-567v203q0 33 -6.5 59t-20.5 53l-69 136l-60 -136q-12 -27 -17 -56t-5 -79v-180h-471z" />
    <glyph glyph-name="Y" unicode="Y" horiz-adv-x="1204" 
d="M838 410q0 -66 15 -94.5t54 -45.5v-270h-614v270q39 17 54 46.5t15 93.5v188l-296 586q-9 18 -23 35t-37 36v267h535v-176q0 -91 6.5 -132.5t21.5 -76.5l62 -138l61 142q17 39 25 86t8 104v191h473v-267q-18 -11 -32 -28t-27 -41l-301 -588v-188z" />
    <glyph glyph-name="Z" unicode="Z" horiz-adv-x="1294" 
d="M1241 0h-1169v274l596 924h-82q-99 0 -130.5 -32.5t-31.5 -139.5v-106h-338v602h1145v-269l-588 -925h82q95 0 130.5 41t35.5 161v105h350v-635z" />
    <glyph glyph-name="bracketleft" unicode="[" horiz-adv-x="846" 
d="M184 -207v1729h625v-133h-227v-1463h227v-133h-625z" />
    <glyph glyph-name="backslash" unicode="\" horiz-adv-x="664" 
d="M410 -190l-443 1712h336l442 -1712h-335z" />
    <glyph glyph-name="bracketright" unicode="]" horiz-adv-x="846" 
d="M662 -207h-625v133h225v1463h-225v133h625v-1729z" />
    <glyph glyph-name="asciicircum" unicode="^" horiz-adv-x="2048" 
d="M1192 1462l442 -565h-303l-307 309l-309 -309h-303l442 565h338z" />
    <glyph glyph-name="underscore" unicode="_" horiz-adv-x="1024" 
d="M1024 -201v-282h-1024v282h1024z" />
    <glyph glyph-name="grave" unicode="`" horiz-adv-x="1024" 
d="M207 1618h287l192 -371h-154z" />
    <glyph glyph-name="a" unicode="a" horiz-adv-x="1202" 
d="M666 307v176q-115 -46 -143.5 -72.5t-28.5 -66.5q0 -39 18 -59.5t51 -20.5q28 0 54 11t49 32zM684 0l-14 96q-53 -60 -121 -87t-166 -27q-148 0 -229.5 84t-81.5 237q0 252 566 416l28 8v21q0 67 -19.5 99t-60.5 32t-60.5 -32t-19.5 -99v-21h-385v264q91 70 224 109
t286 39q233 0 339.5 -98t106.5 -314v-342q0 -60 12.5 -90t40.5 -43v-252h-446z" />
    <glyph glyph-name="b" unicode="b" horiz-adv-x="1217" 
d="M547 285q22 -7 39.5 -10t31.5 -3q50 0 70.5 29t20.5 113v284q0 76 -19 107t-63 31q-20 0 -68 -17l-12 -4v-530zM127 135v1012q0 63 -11 88t-40 37v250h469v-451q61 32 118.5 45.5t129.5 13.5q170 0 250.5 -95.5t80.5 -299.5v-295q0 -260 -107.5 -359t-381.5 -99
q-149 0 -276.5 38.5t-231.5 114.5z" />
    <glyph glyph-name="c" unicode="c" horiz-adv-x="1128" 
d="M668 748q0 73 -19 102t-63 29t-63 -30t-19 -101v-377q0 -74 18.5 -103.5t63.5 -29.5q43 0 62.5 30t19.5 103v100h385v-346q-88 -73 -210 -108t-284 -35q-259 0 -364 90.5t-105 316.5v340q0 223 104.5 315.5t352.5 92.5q150 0 277.5 -36.5t228.5 -107.5v-299h-385v54z" />
    <glyph glyph-name="d" unicode="d" horiz-adv-x="1210" 
d="M665 303l1 512q-20 10 -36.5 14t-33.5 5q-50 0 -70 -28t-20 -126v-244q0 -85 21.5 -116t74.5 -31q15 0 30.5 3.5t32.5 10.5zM666 1122q0 74 -12 106t-42 42v252h471v-1151q0 -57 12.5 -82t43.5 -37v-252h-455v76q-62 -43 -134.5 -64.5t-152.5 -21.5q-165 0 -236 83.5
t-71 288.5v349q0 239 71 328t240 89q63 0 130.5 -16t134.5 -47v57z" />
    <glyph glyph-name="e" unicode="e" horiz-adv-x="1171" 
d="M504 748v-41h164v41q0 73 -19 102t-63 29t-63 -30t-19 -101zM504 371q0 -74 18.5 -103.5t63.5 -29.5q43 0 62.5 30t19.5 103v30h415v-276q-82 -70 -215 -106.5t-307 -36.5q-259 0 -365 91t-106 316v340q0 229 107.5 318.5t388.5 89.5q276 0 386.5 -97t110.5 -340v-225
h-579v-104z" />
    <glyph glyph-name="f" unicode="f" horiz-adv-x="786" 
d="M125 0v252q27 8 38 41t11 117v452h-49v256h49v43q0 201 84.5 291t273.5 90q59 0 114 -7.5t104 -23.5v-241q-9 0 -22 1t-17 1q-58 0 -88.5 -35.5t-30.5 -103.5v-15h131v-256h-131v-452q0 -89 12 -119.5t43 -38.5v-252h-522z" />
    <glyph glyph-name="g" unicode="g" horiz-adv-x="1219" 
d="M666 332v485q-18 6 -33.5 9t-30.5 3q-53 0 -74.5 -31t-21.5 -116v-215q0 -98 20 -126t70 -28q16 0 33 4.5t37 14.5zM115 -309v272h391v-8q0 -56 20 -85.5t58 -29.5q44 0 63 34.5t19 125.5v78q-63 -31 -133 -47.5t-138 -16.5q-165 0 -235 91t-70 327v324q0 206 71 290
t236 84q78 0 151 -22t136 -66v76h455v-252q-31 -13 -43.5 -38t-12.5 -80v-670q0 -134 -9 -193.5t-32 -101.5q-55 -106 -157.5 -157.5t-257.5 -51.5q-142 0 -270.5 29.5t-241.5 87.5z" />
    <glyph glyph-name="h" unicode="h" horiz-adv-x="1255" 
d="M555 399q0 -65 12 -99t39 -48v-252h-522v252q28 8 41.5 43.5t13.5 99.5v756q0 56 -12 80.5t-43 38.5v252h471v-467q62 38 129.5 56.5t140.5 18.5q164 0 236 -83.5t72 -280.5v-369q0 -78 10.5 -106t38.5 -39v-252h-445q-12 56 -17 140t-5 298v244q0 87 -21.5 118t-72.5 31
q-14 0 -29.5 -3t-36.5 -11v-418z" />
    <glyph glyph-name="i" unicode="i" horiz-adv-x="692" 
d="M561 399q0 -67 11.5 -100t37.5 -47v-252h-522v252q28 8 41.5 42.5t13.5 98.5v355q0 55 -12 80t-43 38v252h473v-719zM557 1358q0 -74 -63 -123t-160 -49t-160 49.5t-63 122.5t63 122.5t160 49.5q96 0 159.5 -49.5t63.5 -122.5z" />
    <glyph glyph-name="j" unicode="j" horiz-adv-x="692" 
d="M557 1358q0 -74 -63 -123t-160 -49t-160 49.5t-63 122.5t63 122.5t160 49.5q96 0 159.5 -49.5t63.5 -122.5zM561 125v-82q0 -139 -8.5 -200.5t-28.5 -102.5q-40 -82 -115.5 -124t-183.5 -42q-41 0 -92.5 7t-116.5 22v247q74 3 100.5 43.5t26.5 225.5v629q0 55 -12 80
t-43 38v252h473v-993z" />
    <glyph glyph-name="k" unicode="k" horiz-adv-x="1204" 
d="M143 1151q0 56 -12 80.5t-43 38.5v252h473v-805l90 110q26 32 36.5 60.5t10.5 77.5v12v141h465v-252q-23 -10 -43 -25t-39 -36l-147 -174l164 -299q19 -36 40 -55t46 -25v-252h-355q-22 29 -43 65.5t-57 112.5l-168 363v-142q0 -67 11.5 -100t37.5 -47v-252h-522v252
q28 8 41.5 43.5t13.5 99.5v756z" />
    <glyph glyph-name="l" unicode="l" horiz-adv-x="692" 
d="M143 1151q0 56 -12 80.5t-43 38.5v252h473v-1123q0 -67 11.5 -100t37.5 -47v-252h-522v252q28 8 41.5 42.5t13.5 98.5v758z" />
    <glyph glyph-name="m" unicode="m" horiz-adv-x="1835" 
d="M555 399q0 -65 12 -99t39 -48v-252h-522v252q28 8 41.5 42.5t13.5 98.5v355q0 55 -12 80t-43 38v252h455v-76q63 44 136 66t150 22q91 0 156.5 -29t101.5 -85q70 56 152 85t168 29q163 0 235 -83.5t72 -280.5v-369q0 -75 11.5 -104t39.5 -41v-252h-446q-12 56 -17.5 140
t-5.5 298v244q0 87 -21 118t-73 31q-12 0 -27 -3t-38 -11v-420q0 -78 10.5 -106t38.5 -39v-252h-445q-12 56 -17 140t-5 298v244q0 87 -21.5 118t-72.5 31q-14 0 -29.5 -3t-36.5 -11v-418z" />
    <glyph glyph-name="n" unicode="n" horiz-adv-x="1255" 
d="M555 399q0 -65 12 -99t39 -48v-252h-522v252q28 8 41.5 42.5t13.5 98.5v355q0 55 -12 80t-43 38v252h455v-76q63 44 136 66t150 22q164 0 236 -83.5t72 -280.5v-369q0 -78 10.5 -106t38.5 -39v-252h-445q-12 56 -17 140t-5 298v244q0 87 -21.5 118t-72.5 31
q-14 0 -29.5 -3t-36.5 -11v-418z" />
    <glyph glyph-name="o" unicode="o" horiz-adv-x="1174" 
d="M1083 729v-340q0 -230 -108 -318.5t-389 -88.5t-388.5 88.5t-107.5 318.5v340q0 230 107.5 319t388.5 89q282 0 389.5 -89t107.5 -319zM668 748q0 73 -19 102t-63 29t-63 -30t-19 -101v-377q0 -74 18.5 -103.5t63.5 -29.5q43 0 62.5 30t19.5 103v377z" />
    <glyph glyph-name="p" unicode="p" horiz-adv-x="1219" 
d="M551 817v-514q18 -9 35 -13.5t35 -4.5q50 0 70 27.5t20 125.5v244q0 85 -22 116t-75 31q-15 0 -30.5 -3t-32.5 -9zM551 0q0 -71 12.5 -104t42.5 -43v-250h-526v249q27 8 40 43t13 101v752q0 57 -11.5 81t-41.5 38v251h455v-76q63 44 135 66t149 22q165 0 236 -84t71 -290
v-348q0 -239 -70.5 -328.5t-240.5 -89.5q-63 0 -131.5 16.5t-132.5 46.5v-53z" />
    <glyph glyph-name="q" unicode="q" horiz-adv-x="1214" 
d="M668 817q-17 6 -33.5 9t-32.5 3q-52 0 -73 -30.5t-21 -116.5v-244q0 -100 19.5 -126.5t68.5 -26.5q17 0 35.5 4.5t36.5 14.5v513zM668 0v53q-65 -30 -133 -46.5t-132 -16.5q-170 0 -241.5 90t-71.5 328v348q0 204 72 289t237 85q78 0 149.5 -22t135.5 -66v76h401v-1122
q0 -65 13.5 -100.5t39.5 -42.5l1 -250h-527v250q30 10 43 43t13 104z" />
    <glyph glyph-name="r" unicode="r" horiz-adv-x="815" 
d="M555 399q0 -69 12.5 -102.5t42.5 -44.5v-252h-526v252q28 8 41.5 42.5t13.5 98.5v355q0 55 -12 80t-43 38v252h446v-88q38 57 82.5 84t100.5 27q9 0 23 -2t28 -5v-378h-45q-83 0 -123.5 -52t-40.5 -159v-146z" />
    <glyph glyph-name="s" unicode="s" horiz-adv-x="1118" 
d="M86 127v293h395v-51q0 -70 19.5 -98.5t62.5 -28.5q38 0 61 23.5t23 62.5q0 86 -221 137v0q-215 49 -283.5 118t-68.5 208q0 173 112 259.5t338 86.5q149 0 277 -37t229 -109v-264h-389v55q0 51 -21.5 79t-60.5 28q-36 0 -61 -24.5t-25 -59.5q0 -74 191 -115h2
q233 -51 309 -123.5t76 -216.5q0 -189 -113 -278.5t-352 -89.5q-146 0 -271.5 36.5t-228.5 108.5z" />
    <glyph glyph-name="t" unicode="t" horiz-adv-x="772" 
d="M688 4q-50 -12 -102 -18t-103 -6q-192 0 -272 82t-80 290v510h-51v256h51v213l418 117v-330h139v-256h-139v-385q0 -154 29.5 -190t109.5 -38v-245z" />
    <glyph glyph-name="u" unicode="u" horiz-adv-x="1255" 
d="M1120 1118v-747q0 -59 12.5 -83.5t40.5 -35.5l1 -252h-455v76q-63 -43 -134.5 -64.5t-150.5 -21.5q-165 0 -237 83.5t-72 280.5v367q0 79 -10.5 106.5t-38.5 38.5v252h444q12 -59 17.5 -143.5t5.5 -294.5v-244q0 -86 21 -116.5t73 -30.5q19 0 35 3t30 9v418
q0 68 -11 100.5t-38 46.5v252h467z" />
    <glyph glyph-name="v" unicode="v" horiz-adv-x="1114" 
d="M313 0l-219 748q-17 58 -33 83.5t-38 36.5v250h516v-250q-16 -4 -23.5 -17.5t-7.5 -35.5q0 -12 1.5 -24.5t4.5 -30.5l80 -404l78 404q3 18 4.5 31.5t1.5 19.5q0 23 -8.5 36.5t-28.5 20.5v250h453v-250q-20 -8 -35.5 -33t-28.5 -67l-227 -768h-490z" />
    <glyph glyph-name="w" unicode="w" horiz-adv-x="1659" 
d="M305 0l-205 752q-12 43 -29.5 72.5t-39.5 41.5v252h520l-1 -252q-18 -6 -27 -18t-9 -33q0 -5 2.5 -23.5t5.5 -39.5l47 -279l158 645h270l162 -645l49 285q2 12 3 22.5t1 20.5q0 25 -8 38t-30 27v252h446v-252q-25 -18 -41.5 -45t-28.5 -71l-207 -750h-403l-117 508
l-116 -508h-402z" />
    <glyph glyph-name="x" unicode="x" horiz-adv-x="1147" 
d="M59 0v252q20 6 37 18t33 31l221 270l-188 228q-20 24 -41 40.5t-45 26.5v252h465v-88q0 -61 6 -87t20 -46l41 -59l35 43q22 29 32.5 64t10.5 81v92h401v-252q-19 -9 -38 -24.5t-39 -38.5l-191 -228l209 -264q24 -28 39 -40t33 -20v-251h-479v113q0 52 -7.5 81.5
t-23.5 55.5l-49 74l-43 -68q-18 -29 -25.5 -56.5t-7.5 -70.5v-14v-115h-406z" />
    <glyph glyph-name="y" unicode="y" horiz-adv-x="1139" 
d="M383 -37l-285 811q-10 28 -26 53t-35 41v250h518v-250q-18 -7 -27.5 -21t-9.5 -34q0 -5 1.5 -14.5t4.5 -25.5l88 -392l76 381q2 10 3 21.5t1 27.5q0 22 -10 36t-30 21l-1 250h451v-250q-20 -12 -35 -38.5t-29 -71.5l-239 -819q-56 -192 -146 -274.5t-241 -82.5
q-47 0 -95.5 7.5t-97.5 21.5v241q65 2 105.5 29t58.5 82z" />
    <glyph glyph-name="z" unicode="z" horiz-adv-x="1112" 
d="M70 0v266l489 598h-67q-78 0 -99.5 -21t-21.5 -91v-52h-289v418h973v-254l-492 -604h62q88 0 112.5 21.5t24.5 95.5v53h305v-430h-997z" />
    <glyph glyph-name="braceleft" unicode="{" horiz-adv-x="1024" 
d="M905 1192q-8 0 -22.5 1t-20.5 1q-87 0 -117 -30t-30 -128v-239q0 -134 -47 -189.5t-170 -77.5q124 -23 170.5 -77.5t46.5 -186.5v-241q0 -96 29.5 -126t115.5 -30q7 0 22 1t23 1v-285h-80q-139 0 -211.5 10.5t-119.5 34.5q-60 30 -84.5 84.5t-24.5 186.5v258
q0 127 -46.5 179t-158.5 52q-5 0 -16.5 -1t-18.5 -1v283q7 0 18.5 -1t16.5 -1q112 0 158.5 52t46.5 179v258q0 133 24.5 188t84.5 85q48 24 120.5 34.5t210.5 10.5h80v-285z" />
    <glyph glyph-name="bar" unicode="|" horiz-adv-x="1024" 
d="M653 1565v-2048h-280v2048h280z" />
    <glyph glyph-name="braceright" unicode="}" horiz-adv-x="1024" 
d="M641 1159v-258q0 -127 46.5 -179t158.5 -52q5 0 16.5 1t18.5 1v-283q-7 0 -18.5 1t-16.5 1q-112 0 -158.5 -52t-46.5 -179v-258q0 -130 -25 -186t-86 -87q-45 -23 -115 -33t-200 -10h-94v283q9 0 23 -1t20 -1q87 0 117 30t30 128v241q0 132 46.5 186.5t170.5 77.5
q-123 22 -170 77t-47 188v241q0 98 -30 128t-117 30q-6 0 -20 -1t-23 -1v285h80q138 0 210 -10.5t119 -34.5q61 -31 86 -87t25 -186z" />
    <glyph glyph-name="asciitilde" unicode="~" horiz-adv-x="1706" 
d="M1530 543q-102 -69 -192 -101t-179 -32q-54 0 -111.5 11.5t-154.5 45.5q-124 42 -194.5 56t-137.5 14q-84 0 -176 -38t-207 -120v299q119 75 216.5 109t191.5 34q58 0 123 -12t155 -41q22 -7 64 -22q152 -54 235 -54q86 0 175 36.5t192 113.5v-299z" />
    <glyph glyph-name="Adieresis" unicode="&#xc4;" horiz-adv-x="1339" 
d="M553 664h158l-86 540zM53 0v270q21 8 38.5 41t27.5 84l205 1127h671l232 -1127q12 -52 31 -84.5t42 -40.5v-270h-593v270q23 8 37 30t14 52q0 5 -3.5 19.5t-5.5 21.5h-231q-1 -7 -3.5 -23t-2.5 -24q0 -34 16.5 -52.5t50.5 -23.5l1 -270h-527zM699 1848q0 62 44.5 107.5
t106.5 45.5q64 0 108 -44.5t44 -108.5q0 -63 -45 -107.5t-107 -44.5q-61 0 -106 45t-45 107zM336 1848q0 62 45 107.5t107 45.5q64 0 108.5 -44.5t44.5 -108.5q0 -62 -45.5 -107t-107.5 -45t-107 45t-45 107z" />
    <glyph glyph-name="Aring" unicode="&#xc5;" horiz-adv-x="1339" 
d="M666 1817q-48 0 -81.5 -33.5t-33.5 -81.5t33.5 -81.5t81.5 -33.5q47 0 80.5 33.5t33.5 81.5t-33.5 81.5t-80.5 33.5zM553 664h158l-86 540zM53 0v270q21 8 38.5 41t27.5 84l205 1127h155q-43 34 -64.5 78.5t-21.5 101.5q0 113 79 191.5t192 78.5t192.5 -78.5t79.5 -191.5
q0 -55 -23.5 -101t-68.5 -79h151l232 -1127q12 -52 31 -84.5t42 -40.5v-270h-593v270q23 8 37 30t14 52q0 5 -3.5 19.5t-5.5 21.5h-231q-1 -7 -3.5 -23t-2.5 -24q0 -34 16.5 -52.5t50.5 -23.5l1 -270h-527z" />
    <glyph glyph-name="Ccedilla" unicode="&#xc7;" horiz-adv-x="1294" 
d="M1210 1384v-421h-456v116q0 82 -21 116t-69 34q-49 0 -70 -33t-21 -117v-633q0 -83 21 -116t70 -33t69.5 33t20.5 116v191h456v-508q-102 -81 -242 -120.5t-327 -39.5q-298 0 -420.5 121t-122.5 422v496q0 297 121.5 420.5t407.5 123.5q172 0 320 -42.5t263 -125.5z
M617 0h114v-84h19q111 0 170 -49.5t59 -142.5q0 -100 -66 -154.5t-188 -54.5q-60 0 -134 12t-157 35v137q79 -22 150.5 -33.5t120.5 -11.5q43 0 64.5 17.5t21.5 54.5q0 32 -28.5 47.5t-90.5 15.5q-21 0 -33 -0.5t-22 -1.5v213z" />
    <glyph glyph-name="Eacute" unicode="&#xc9;" horiz-adv-x="1313" 
d="M88 0v270q32 17 44.5 47t12.5 93v706q0 63 -12.5 93t-44.5 46v267h1139v-504h-436v43q0 82 -28 110.5t-106 28.5h-41v-270h302v-295h-302l1 -307q6 -1 15 -1.5t25 -0.5q75 0 105.5 38.5t30.5 135.5q0 21 -0.5 32.5t-1.5 22.5h436v-555h-1139zM675 2034h287l-325 -371
h-154z" />
    <glyph glyph-name="Ntilde" unicode="&#xd1;" horiz-adv-x="1376" 
d="M504 410q0 -73 12.5 -100.5t44.5 -39.5v-270h-487v270q31 17 44 47t13 93v706q0 63 -13 93t-44 46v267h524l289 -770v364q0 72 -14.5 98.5t-51.5 40.5v267h496v-267q-31 -15 -43 -43.5t-12 -95.5v-1116h-463l-295 725v-315zM901 1989h119q-32 -135 -83.5 -194.5
t-135.5 -59.5q-18 0 -37 3t-39 9l-93 25l-3 1q-46 13 -64 13q-33 0 -54.5 -18.5t-35.5 -59.5h-119q28 126 80.5 186t134.5 60q19 0 42 -3.5t48 -10.5l95 -29q12 -4 26 -6t31 -2q33 0 55 21.5t33 64.5z" />
    <glyph glyph-name="Odieresis" unicode="&#xd6;" horiz-adv-x="1335" 
d="M762 446v633q0 81 -22 115.5t-72 34.5q-51 0 -73 -33.5t-22 -116.5v-633q0 -82 22 -115.5t73 -33.5q50 0 72 34t22 115zM98 1008q0 306 126 425t444 119q317 0 442 -119t125 -425v-496q0 -305 -124.5 -424t-442.5 -119q-319 0 -444.5 118.5t-125.5 424.5v496zM697 1848
q0 62 44.5 107.5t106.5 45.5q64 0 108 -44.5t44 -108.5q0 -63 -45 -107.5t-107 -44.5q-61 0 -106 45t-45 107zM334 1848q0 62 45 107.5t107 45.5q64 0 108.5 -44.5t44.5 -108.5q0 -62 -45.5 -107t-107.5 -45t-107 45t-45 107z" />
    <glyph glyph-name="Udieresis" unicode="&#xdc;" horiz-adv-x="1346" 
d="M784 1116q0 69 -11.5 97.5t-41.5 41.5v267h543v-267q-32 -15 -44.5 -44.5t-12.5 -94.5v-536q0 -178 -12 -254.5t-40 -128.5q-62 -116 -185 -172t-314 -56q-164 0 -279 46.5t-182 140.5q-39 55 -55.5 124.5t-16.5 198.5v80v557q0 63 -15 93t-52 46v267h583v-266
q-30 -14 -41.5 -41.5t-11.5 -98.5v-670q0 -82 21.5 -115.5t72.5 -33.5t72.5 34t21.5 115v670zM703 1848q0 62 44.5 107.5t106.5 45.5q64 0 108 -44.5t44 -108.5q0 -63 -45 -107.5t-107 -44.5q-61 0 -106 45t-45 107zM340 1848q0 62 45 107.5t107 45.5q64 0 108.5 -44.5
t44.5 -108.5q0 -62 -45.5 -107t-107.5 -45t-107 45t-45 107z" />
    <glyph glyph-name="aacute" unicode="&#xe1;" horiz-adv-x="1202" 
d="M666 307v176q-115 -46 -143.5 -72.5t-28.5 -66.5q0 -39 18 -59.5t51 -20.5q28 0 54 11t49 32zM684 0l-14 96q-53 -60 -121 -87t-166 -27q-148 0 -229.5 84t-81.5 237q0 252 566 416l28 8v21q0 67 -19.5 99t-60.5 32t-60.5 -32t-19.5 -99v-21h-385v264q91 70 224 109
t286 39q233 0 339.5 -98t106.5 -314v-342q0 -60 12.5 -90t40.5 -43v-252h-446zM620 1618h287l-325 -371h-154z" />
    <glyph glyph-name="agrave" unicode="&#xe0;" horiz-adv-x="1202" 
d="M666 307v176q-115 -46 -143.5 -72.5t-28.5 -66.5q0 -39 18 -59.5t51 -20.5q28 0 54 11t49 32zM684 0l-14 96q-53 -60 -121 -87t-166 -27q-148 0 -229.5 84t-81.5 237q0 252 566 416l28 8v21q0 67 -19.5 99t-60.5 32t-60.5 -32t-19.5 -99v-21h-385v264q91 70 224 109
t286 39q233 0 339.5 -98t106.5 -314v-342q0 -60 12.5 -90t40.5 -43v-252h-446zM297 1618h287l192 -371h-154z" />
    <glyph glyph-name="acircumflex" unicode="&#xe2;" horiz-adv-x="1202" 
d="M666 307v176q-115 -46 -143.5 -72.5t-28.5 -66.5q0 -39 18 -59.5t51 -20.5q28 0 54 11t49 32zM684 0l-14 96q-53 -60 -121 -87t-166 -27q-148 0 -229.5 84t-81.5 237q0 252 566 416l28 8v21q0 67 -19.5 99t-60.5 32t-60.5 -32t-19.5 -99v-21h-385v264q91 70 224 109
t286 39q233 0 339.5 -98t106.5 -314v-342q0 -60 12.5 -90t40.5 -43v-252h-446zM473 1618h256l192 -371h-153l-166 199l-168 -199h-154z" />
    <glyph glyph-name="adieresis" unicode="&#xe4;" horiz-adv-x="1202" 
d="M666 307v176q-115 -46 -143.5 -72.5t-28.5 -66.5q0 -39 18 -59.5t51 -20.5q28 0 54 11t49 32zM684 0l-14 96q-53 -60 -121 -87t-166 -27q-148 0 -229.5 84t-81.5 237q0 252 566 416l28 8v21q0 67 -19.5 99t-60.5 32t-60.5 -32t-19.5 -99v-21h-385v264q91 70 224 109
t286 39q233 0 339.5 -98t106.5 -314v-342q0 -60 12.5 -90t40.5 -43v-252h-446zM631 1432q0 62 44.5 107.5t106.5 45.5q64 0 108 -44.5t44 -108.5q0 -63 -45 -107.5t-107 -44.5q-61 0 -106 45t-45 107zM268 1432q0 62 45 107.5t107 45.5q64 0 108.5 -44.5t44.5 -108.5
q0 -62 -45.5 -107t-107.5 -45t-107 45t-45 107z" />
    <glyph glyph-name="atilde" unicode="&#xe3;" horiz-adv-x="1202" 
d="M666 307v176q-115 -46 -143.5 -72.5t-28.5 -66.5q0 -39 18 -59.5t51 -20.5q28 0 54 11t49 32zM684 0l-14 96q-53 -60 -121 -87t-166 -27q-148 0 -229.5 84t-81.5 237q0 252 566 416l28 8v21q0 67 -19.5 99t-60.5 32t-60.5 -32t-19.5 -99v-21h-385v264q91 70 224 109
t286 39q233 0 339.5 -98t106.5 -314v-342q0 -60 12.5 -90t40.5 -43v-252h-446zM815 1573h119q-32 -135 -83.5 -194.5t-135.5 -59.5q-18 0 -37 3t-39 9l-93 25l-3 1q-46 13 -64 13q-33 0 -54.5 -18.5t-35.5 -59.5h-119q28 126 80.5 186t134.5 60q19 0 42 -3.5t48 -10.5
l95 -29q12 -4 26 -6t31 -2q33 0 55 21.5t33 64.5z" />
    <glyph glyph-name="aring" unicode="&#xe5;" horiz-adv-x="1202" 
d="M600 1589q-48 0 -81.5 -33.5t-33.5 -80.5q0 -48 33.5 -80.5t81.5 -32.5t81.5 32.5t33.5 80.5q0 47 -33.5 80.5t-81.5 33.5zM600 1747q113 0 191.5 -79t78.5 -191q0 -114 -78.5 -193.5t-191.5 -79.5q-114 0 -193 79t-79 194q0 112 79.5 191t192.5 79zM666 307v176
q-115 -46 -143.5 -72.5t-28.5 -66.5q0 -39 18 -59.5t51 -20.5q28 0 54 11t49 32zM684 0l-14 96q-53 -60 -121 -87t-166 -27q-148 0 -229.5 84t-81.5 237q0 252 566 416l28 8v21q0 67 -19.5 99t-60.5 32t-60.5 -32t-19.5 -99v-21h-385v264q91 70 224 109t286 39
q233 0 339.5 -98t106.5 -314v-342q0 -60 12.5 -90t40.5 -43v-252h-446z" />
    <glyph glyph-name="ccedilla" unicode="&#xe7;" horiz-adv-x="1128" 
d="M668 748q0 73 -19 102t-63 29t-63 -30t-19 -101v-377q0 -74 18.5 -103.5t63.5 -29.5q43 0 62.5 30t19.5 103v100h385v-346q-88 -73 -210 -108t-284 -35q-259 0 -364 90.5t-105 316.5v340q0 223 104.5 315.5t352.5 92.5q150 0 277.5 -36.5t228.5 -107.5v-299h-385v54z
M525 0h114v-84h19q111 0 170 -49.5t59 -142.5q0 -100 -66 -154.5t-188 -54.5q-60 0 -134 12t-157 35v137q79 -22 150.5 -33.5t120.5 -11.5q43 0 64.5 17.5t21.5 54.5q0 32 -28.5 47.5t-90.5 15.5q-21 0 -33 -0.5t-22 -1.5v213z" />
    <glyph glyph-name="eacute" unicode="&#xe9;" horiz-adv-x="1171" 
d="M504 748v-41h164v41q0 73 -19 102t-63 29t-63 -30t-19 -101zM504 371q0 -74 18.5 -103.5t63.5 -29.5q43 0 62.5 30t19.5 103v30h415v-276q-82 -70 -215 -106.5t-307 -36.5q-259 0 -365 91t-106 316v340q0 229 107.5 318.5t388.5 89.5q276 0 386.5 -97t110.5 -340v-225
h-579v-104zM604 1618h287l-325 -371h-154z" />
    <glyph glyph-name="egrave" unicode="&#xe8;" horiz-adv-x="1171" 
d="M504 748v-41h164v41q0 73 -19 102t-63 29t-63 -30t-19 -101zM504 371q0 -74 18.5 -103.5t63.5 -29.5q43 0 62.5 30t19.5 103v30h415v-276q-82 -70 -215 -106.5t-307 -36.5q-259 0 -365 91t-106 316v340q0 229 107.5 318.5t388.5 89.5q276 0 386.5 -97t110.5 -340v-225
h-579v-104zM281 1618h287l192 -371h-154z" />
    <glyph glyph-name="ecircumflex" unicode="&#xea;" horiz-adv-x="1171" 
d="M504 748v-41h164v41q0 73 -19 102t-63 29t-63 -30t-19 -101zM504 371q0 -74 18.5 -103.5t63.5 -29.5q43 0 62.5 30t19.5 103v30h415v-276q-82 -70 -215 -106.5t-307 -36.5q-259 0 -365 91t-106 316v340q0 229 107.5 318.5t388.5 89.5q276 0 386.5 -97t110.5 -340v-225
h-579v-104zM457 1618h256l192 -371h-153l-166 199l-168 -199h-154z" />
    <glyph glyph-name="edieresis" unicode="&#xeb;" horiz-adv-x="1171" 
d="M504 748v-41h164v41q0 73 -19 102t-63 29t-63 -30t-19 -101zM504 371q0 -74 18.5 -103.5t63.5 -29.5q43 0 62.5 30t19.5 103v30h415v-276q-82 -70 -215 -106.5t-307 -36.5q-259 0 -365 91t-106 316v340q0 229 107.5 318.5t388.5 89.5q276 0 386.5 -97t110.5 -340v-225
h-579v-104zM615 1432q0 62 44.5 107.5t106.5 45.5q64 0 108 -44.5t44 -108.5q0 -63 -45 -107.5t-107 -44.5q-61 0 -106 45t-45 107zM252 1432q0 62 45 107.5t107 45.5q64 0 108.5 -44.5t44.5 -108.5q0 -62 -45.5 -107t-107.5 -45t-107 45t-45 107z" />
    <glyph glyph-name="iacute" unicode="&#xed;" horiz-adv-x="692" 
d="M561 399q0 -67 11.5 -100t37.5 -47v-252h-522v252q28 8 41.5 42.5t13.5 98.5v355q0 55 -12 80t-43 38v252h473v-719zM352 1618h287l-325 -371h-154z" />
    <glyph glyph-name="igrave" unicode="&#xec;" horiz-adv-x="692" 
d="M561 399q0 -67 11.5 -100t37.5 -47v-252h-522v252q28 8 41.5 42.5t13.5 98.5v355q0 55 -12 80t-43 38v252h473v-719zM29 1618h287l192 -371h-154z" />
    <glyph glyph-name="icircumflex" unicode="&#xee;" horiz-adv-x="692" 
d="M561 399q0 -67 11.5 -100t37.5 -47v-252h-522v252q28 8 41.5 42.5t13.5 98.5v355q0 55 -12 80t-43 38v252h473v-719zM205 1618h256l192 -371h-153l-166 199l-168 -199h-154z" />
    <glyph glyph-name="idieresis" unicode="&#xef;" horiz-adv-x="692" 
d="M561 399q0 -67 11.5 -100t37.5 -47v-252h-522v252q28 8 41.5 42.5t13.5 98.5v355q0 55 -12 80t-43 38v252h473v-719zM363 1432q0 62 44.5 107.5t106.5 45.5q64 0 108 -44.5t44 -108.5q0 -63 -45 -107.5t-107 -44.5q-61 0 -106 45t-45 107zM0 1432q0 62 45 107.5t107 45.5
q64 0 108.5 -44.5t44.5 -108.5q0 -62 -45.5 -107t-107.5 -45t-107 45t-45 107z" />
    <glyph glyph-name="ntilde" unicode="&#xf1;" horiz-adv-x="1255" 
d="M555 399q0 -65 12 -99t39 -48v-252h-522v252q28 8 41.5 42.5t13.5 98.5v355q0 55 -12 80t-43 38v252h455v-76q63 44 136 66t150 22q164 0 236 -83.5t72 -280.5v-369q0 -78 10.5 -106t38.5 -39v-252h-445q-12 56 -17 140t-5 298v244q0 87 -21.5 118t-72.5 31
q-14 0 -29.5 -3t-36.5 -11v-418zM842 1573h119q-32 -135 -83.5 -194.5t-135.5 -59.5q-18 0 -37 3t-39 9l-93 25l-3 1q-46 13 -64 13q-33 0 -54.5 -18.5t-35.5 -59.5h-119q28 126 80.5 186t134.5 60q19 0 42 -3.5t48 -10.5l95 -29q12 -4 26 -6t31 -2q33 0 55 21.5t33 64.5z
" />
    <glyph glyph-name="oacute" unicode="&#xf3;" horiz-adv-x="1174" 
d="M1083 729v-340q0 -230 -108 -318.5t-389 -88.5t-388.5 88.5t-107.5 318.5v340q0 230 107.5 319t388.5 89q282 0 389.5 -89t107.5 -319zM668 748q0 73 -19 102t-63 29t-63 -30t-19 -101v-377q0 -74 18.5 -103.5t63.5 -29.5q43 0 62.5 30t19.5 103v377zM606 1618h287
l-325 -371h-154z" />
    <glyph glyph-name="ograve" unicode="&#xf2;" horiz-adv-x="1174" 
d="M1083 729v-340q0 -230 -108 -318.5t-389 -88.5t-388.5 88.5t-107.5 318.5v340q0 230 107.5 319t388.5 89q282 0 389.5 -89t107.5 -319zM668 748q0 73 -19 102t-63 29t-63 -30t-19 -101v-377q0 -74 18.5 -103.5t63.5 -29.5q43 0 62.5 30t19.5 103v377zM283 1618h287
l192 -371h-154z" />
    <glyph glyph-name="ocircumflex" unicode="&#xf4;" horiz-adv-x="1174" 
d="M1083 729v-340q0 -230 -108 -318.5t-389 -88.5t-388.5 88.5t-107.5 318.5v340q0 230 107.5 319t388.5 89q282 0 389.5 -89t107.5 -319zM668 748q0 73 -19 102t-63 29t-63 -30t-19 -101v-377q0 -74 18.5 -103.5t63.5 -29.5q43 0 62.5 30t19.5 103v377zM459 1618h256
l192 -371h-153l-166 199l-168 -199h-154z" />
    <glyph glyph-name="odieresis" unicode="&#xf6;" horiz-adv-x="1174" 
d="M1083 729v-340q0 -230 -108 -318.5t-389 -88.5t-388.5 88.5t-107.5 318.5v340q0 230 107.5 319t388.5 89q282 0 389.5 -89t107.5 -319zM668 748q0 73 -19 102t-63 29t-63 -30t-19 -101v-377q0 -74 18.5 -103.5t63.5 -29.5q43 0 62.5 30t19.5 103v377zM617 1432
q0 62 44.5 107.5t106.5 45.5q64 0 108 -44.5t44 -108.5q0 -63 -45 -107.5t-107 -44.5q-61 0 -106 45t-45 107zM254 1432q0 62 45 107.5t107 45.5q64 0 108.5 -44.5t44.5 -108.5q0 -62 -45.5 -107t-107.5 -45t-107 45t-45 107z" />
    <glyph glyph-name="otilde" unicode="&#xf5;" horiz-adv-x="1174" 
d="M1083 729v-340q0 -230 -108 -318.5t-389 -88.5t-388.5 88.5t-107.5 318.5v340q0 230 107.5 319t388.5 89q282 0 389.5 -89t107.5 -319zM668 748q0 73 -19 102t-63 29t-63 -30t-19 -101v-377q0 -74 18.5 -103.5t63.5 -29.5q43 0 62.5 30t19.5 103v377zM801 1573h119
q-32 -135 -83.5 -194.5t-135.5 -59.5q-18 0 -37 3t-39 9l-93 25l-3 1q-46 13 -64 13q-33 0 -54.5 -18.5t-35.5 -59.5h-119q28 126 80.5 186t134.5 60q19 0 42 -3.5t48 -10.5l95 -29q12 -4 26 -6t31 -2q33 0 55 21.5t33 64.5z" />
    <glyph glyph-name="uacute" unicode="&#xfa;" horiz-adv-x="1255" 
d="M1120 1118v-747q0 -59 12.5 -83.5t40.5 -35.5l1 -252h-455v76q-63 -43 -134.5 -64.5t-150.5 -21.5q-165 0 -237 83.5t-72 280.5v367q0 79 -10.5 106.5t-38.5 38.5v252h444q12 -59 17.5 -143.5t5.5 -294.5v-244q0 -86 21 -116.5t73 -30.5q19 0 35 3t30 9v418
q0 68 -11 100.5t-38 46.5v252h467zM632 1618h287l-325 -371h-154z" />
    <glyph glyph-name="ugrave" unicode="&#xf9;" horiz-adv-x="1255" 
d="M1120 1118v-747q0 -59 12.5 -83.5t40.5 -35.5l1 -252h-455v76q-63 -43 -134.5 -64.5t-150.5 -21.5q-165 0 -237 83.5t-72 280.5v367q0 79 -10.5 106.5t-38.5 38.5v252h444q12 -59 17.5 -143.5t5.5 -294.5v-244q0 -86 21 -116.5t73 -30.5q19 0 35 3t30 9v418
q0 68 -11 100.5t-38 46.5v252h467zM309 1618h287l192 -371h-154z" />
    <glyph glyph-name="ucircumflex" unicode="&#xfb;" horiz-adv-x="1255" 
d="M1120 1118v-747q0 -59 12.5 -83.5t40.5 -35.5l1 -252h-455v76q-63 -43 -134.5 -64.5t-150.5 -21.5q-165 0 -237 83.5t-72 280.5v367q0 79 -10.5 106.5t-38.5 38.5v252h444q12 -59 17.5 -143.5t5.5 -294.5v-244q0 -86 21 -116.5t73 -30.5q19 0 35 3t30 9v418
q0 68 -11 100.5t-38 46.5v252h467zM485 1618h256l192 -371h-153l-166 199l-168 -199h-154z" />
    <glyph glyph-name="udieresis" unicode="&#xfc;" horiz-adv-x="1255" 
d="M1120 1118v-747q0 -59 12.5 -83.5t40.5 -35.5l1 -252h-455v76q-63 -43 -134.5 -64.5t-150.5 -21.5q-165 0 -237 83.5t-72 280.5v367q0 79 -10.5 106.5t-38.5 38.5v252h444q12 -59 17.5 -143.5t5.5 -294.5v-244q0 -86 21 -116.5t73 -30.5q19 0 35 3t30 9v418
q0 68 -11 100.5t-38 46.5v252h467zM643 1432q0 62 44.5 107.5t106.5 45.5q64 0 108 -44.5t44 -108.5q0 -63 -45 -107.5t-107 -44.5q-61 0 -106 45t-45 107zM280 1432q0 62 45 107.5t107 45.5q64 0 108.5 -44.5t44.5 -108.5q0 -62 -45.5 -107t-107.5 -45t-107 45t-45 107z
" />
    <glyph glyph-name="dagger" unicode="&#x2020;" horiz-adv-x="1024" 
d="M322 0v889h-265v285h265v348h378v-348h267v-285h-267v-889h-378z" />
    <glyph glyph-name="degree" unicode="&#xb0;" horiz-adv-x="674" 
d="M489 1151q0 62 -45 107t-108 45q-62 0 -106 -44.5t-44 -107.5q0 -64 44 -109t108 -45q62 0 106.5 46t44.5 108zM338 1473q134 0 227.5 -94.5t93.5 -229.5q0 -132 -94.5 -227t-228.5 -95t-228 93.5t-94 228.5q0 134 95.5 229t228.5 95z" />
    <glyph glyph-name="cent" unicode="&#xa2;" horiz-adv-x="1366" 
d="M772 909q0 74 -18.5 102.5t-63.5 28.5q-44 0 -63 -29.5t-19 -101.5v-379q0 -72 19 -101.5t63 -29.5t63 29.5t19 101.5v103h385v-346q-61 -49 -132 -80.5t-157 -46.5v-211h-358v207q-168 16 -241.5 107.5t-73.5 285.5v342q0 193 71.5 282.5t243.5 114.5v170h358v-182
q87 -18 156 -47t133 -74v-301h-385v55z" />
    <glyph glyph-name="sterling" unicode="&#xa3;" horiz-adv-x="1366" 
d="M115 0v270q35 17 50 53t15 107v162h-65v297h65v151q0 127 13.5 190.5t44.5 117.5q58 99 172 151.5t270 52.5q151 0 299 -42.5t283 -125.5v-411h-435v94q0 91 -19.5 126.5t-66.5 35.5q-51 0 -73.5 -37t-22.5 -125v-178h299v-297h-299v-264h33q85 0 117 34t32 127v21h435
v-510h-1147z" />
    <glyph glyph-name="section" unicode="&#xa7;" horiz-adv-x="1024" 
d="M659 512q27 17 39.5 38t12.5 48q0 90 -232 171q-78 27 -123 44q-25 -16 -38 -38t-13 -50q0 -88 247 -175q69 -24 107 -38zM836 389q55 -46 81.5 -113.5t26.5 -160.5q0 -159 -113.5 -250.5t-312.5 -91.5q-108 0 -220 35t-198 98v252h326v-23q0 -57 28.5 -90t77.5 -33
q42 0 65.5 26t23.5 73q0 87 -200 156q-75 26 -118 42q-144 57 -209 137t-65 199q0 114 40.5 185t125.5 106q-54 44 -82.5 112.5t-28.5 151.5q0 166 113 259t315 93q108 0 219 -35t199 -98v-252h-326v21q0 57 -28 91t-74 34q-43 0 -68.5 -28t-25.5 -75q0 -84 190 -147
q80 -27 127 -45q146 -57 211 -137t65 -201q0 -113 -40.5 -184.5t-124.5 -106.5z" />
    <glyph glyph-name="bullet" unicode="&#x2022;" horiz-adv-x="1208" 
d="M307 762q0 123 87 209t210 86q122 0 208.5 -86.5t86.5 -208.5t-87.5 -209.5t-209.5 -87.5q-123 0 -209 87t-86 210z" />
    <glyph glyph-name="paragraph" unicode="&#xb6;" horiz-adv-x="1024" 
d="M1014 1337h-101v-1337h-202v1337h-140v-1337h-202v784q-163 8 -261 103t-98 243q0 157 106.5 253t282.5 96h615v-142z" />
    <glyph glyph-name="germandbls" unicode="&#xdf;" horiz-adv-x="1233" 
d="M94 0v252q26 8 36.5 36t10.5 89v733q0 243 106.5 334.5t370.5 91.5q284 0 398 -86.5t114 -300.5q0 -129 -39 -198t-126 -97q93 -27 131.5 -89t38.5 -190v-221q0 -197 -78.5 -275.5t-270.5 -78.5h-165v252q60 6 81 35t21 116v193q0 54 -24 81.5t-72 27.5h-6v253
q58 4 80 30t22 91v86q0 58 -22 87.5t-64 29.5t-60 -25.5t-18 -87.5v-1169h-465z" />
    <glyph glyph-name="registered" unicode="&#xae;" horiz-adv-x="1706" 
d="M823 1006h-39v-193h54q58 0 88 25t30 73q0 49 -32 72t-101 23zM862 1165q174 0 265.5 -61t91.5 -178q0 -78 -43 -135t-121 -84l178 -355h-279l-145 312h-25v-312h-256v813h334zM1452 743q0 120 -45 229t-129 193q-87 87 -194.5 131.5t-229.5 44.5q-123 0 -230 -43.5
t-190 -128.5q-86 -87 -132 -197t-46 -229t45.5 -227.5t130.5 -193.5q86 -86 194 -131.5t228 -45.5q119 0 228.5 46t197.5 133q85 83 128.5 189.5t43.5 229.5zM852 1493q155 0 292.5 -56t244.5 -163q104 -105 160.5 -243t56.5 -290q0 -154 -55.5 -288.5t-161.5 -237.5
q-111 -108 -250 -166.5t-287 -58.5q-149 0 -284 57t-244 166q-108 107 -165 243t-57 285q0 151 57.5 289t166.5 248q103 105 238 160t288 55z" />
    <glyph glyph-name="copyright" unicode="&#xa9;" horiz-adv-x="1706" 
d="M987 883q-3 63 -38 99t-93 36q-73 0 -114.5 -71.5t-41.5 -201.5q0 -131 41 -196.5t123 -65.5q60 0 92 36.5t35 106.5l248 1q-6 -149 -109 -237.5t-272 -88.5q-195 0 -306.5 116t-111.5 320q0 200 111 323.5t289 123.5q176 0 278.5 -79.5t110.5 -221.5h-242zM1452 743
q0 120 -45 229t-129 193q-87 87 -194.5 131.5t-229.5 44.5q-123 0 -230 -43.5t-190 -128.5q-86 -87 -132 -197t-46 -229t45.5 -227.5t130.5 -193.5q86 -86 194 -131.5t228 -45.5q119 0 228.5 46t197.5 133q85 83 128.5 189.5t43.5 229.5zM852 1493q155 0 292.5 -56
t244.5 -163q104 -105 160.5 -243t56.5 -290q0 -154 -55.5 -288.5t-161.5 -237.5q-111 -108 -250 -166.5t-287 -58.5q-149 0 -284 57t-244 166q-108 107 -165 243t-57 285q0 151 57.5 289t166.5 248q103 105 238 160t288 55z" />
    <glyph glyph-name="trademark" unicode="&#x2122;" horiz-adv-x="1706" 
d="M1044 1468l99 -266l98 266h256v-559h-182v367l-137 -367h-70l-137 367v-367h-183v559h256zM690 1468v-151h-162v-408h-202v408h-162v151h526z" />
    <glyph glyph-name="acute" unicode="&#xb4;" horiz-adv-x="1024" 
d="M530 1618h287l-325 -371h-154z" />
    <glyph glyph-name="dieresis" unicode="&#xa8;" horiz-adv-x="1024" 
d="M541 1432q0 62 44.5 107.5t106.5 45.5q64 0 108 -44.5t44 -108.5q0 -63 -45 -107.5t-107 -44.5q-61 0 -106 45t-45 107zM178 1432q0 62 45 107.5t107 45.5q64 0 108.5 -44.5t44.5 -108.5q0 -62 -45.5 -107t-107.5 -45t-107 45t-45 107z" />
    <glyph glyph-name="notequal" unicode="&#x2260;" horiz-adv-x="1706" 
d="M1384 1116l-112 -139h180v-260h-358l-172 -211h530v-262h-704l-242 -299l-199 159l113 140h-166v262h340l170 211h-510v260h690l244 301z" />
    <glyph glyph-name="AE" unicode="&#xc6;" horiz-adv-x="1898" 
d="M1812 1522v-504h-413v43q0 82 -28 110.5t-105 28.5h-41v-270h301v-295h-301v-307q7 -1 16 -1.5t25 -0.5q74 0 104.5 38.5t30.5 135.5q0 21 -0.5 32.5t-1.5 22.5h413v-555h-1101v270q28 14 41.5 43t13.5 76v10h-242q-3 -20 -4.5 -37.5t-1.5 -31.5q0 -23 11.5 -38.5
t33.5 -21.5v-270h-522v270q24 19 41 47.5t33 75.5l358 1129h1339zM584 664h182v618z" />
    <glyph glyph-name="Oslash" unicode="&#xd8;" horiz-adv-x="1335" 
d="M762 446v633q0 81 -22 115.5t-72 34.5q-51 0 -73 -33.5t-22 -116.5v-633q0 -82 22 -115.5t73 -33.5q50 0 72 34t22 115zM98 1008q0 306 126 425t444 119q97 0 160 -6.5t114 -21.5l68 112l305 -184l-111 -178q17 -38 24 -93t7 -173v-496q0 -305 -124.5 -424t-442.5 -119
q-72 0 -130 6.5t-104 20.5l-82 -133l-311 180l102 166q-23 36 -34 106.5t-11 196.5v496z" />
    <glyph glyph-name="infinity" unicode="&#x221e;" horiz-adv-x="1706" 
d="M975 561q40 -57 95 -86t124 -29q84 0 137 43t53 109q0 65 -48 109.5t-117 44.5q-66 0 -122.5 -44t-121.5 -147zM731 653q-41 58 -95 86.5t-124 28.5q-84 0 -136 -43t-52 -111q0 -64 47.5 -107.5t117.5 -43.5q67 0 123 44t119 146zM856 791q69 128 149 190.5t175 62.5
q143 0 244.5 -126t101.5 -312q0 -194 -90.5 -315t-233.5 -121q-88 0 -164 53t-188 201q-67 -129 -146.5 -191.5t-175.5 -62.5q-144 0 -245 126t-101 312q0 195 89.5 315.5t232.5 120.5q85 0 161 -53t191 -200z" />
    <glyph glyph-name="plusminus" unicode="&#xb1;" horiz-adv-x="1706" 
d="M1452 231v-272h-1198v272h1198zM993 1262v-310h459v-272h-459v-309h-280v309h-459v272h459v310h280z" />
    <glyph glyph-name="lessequal" unicode="&#x2264;" horiz-adv-x="1706" 
d="M1454 236v-271h-1200v271h1200zM1452 999l-704 -208l704 -209v-281l-1198 371v237l1198 373v-283z" />
    <glyph glyph-name="greaterequal" unicode="&#x2265;" horiz-adv-x="1706" 
d="M1454 236v-271h-1200v271h1200zM1452 909v-237l-1196 -371v281l705 209l-705 208v283z" />
    <glyph glyph-name="yen" unicode="&#xa5;" horiz-adv-x="1366" 
d="M909 410q0 -64 15.5 -94t54.5 -46v-270h-614v270q38 17 53.5 46.5t15.5 93.5v116h-356v158h311l-78 154h-233v157h151l-92 189q-9 18 -24 36t-35 35v267h534v-217q0 -89 7 -131t22 -76l61 -137l62 139q16 38 24.5 86.5t8.5 105.5v230h473v-267q-18 -11 -32.5 -28
t-27.5 -41l-98 -191h143v-157h-221l-80 -154h301v-158h-346v-116z" />
    <glyph glyph-name="mu" unicode="&#xb5;" horiz-adv-x="1372" 
d="M602 1087l-84 -614q-2 -22 -3 -33.5t-1 -19.5q0 -68 31.5 -100.5t95.5 -32.5q79 0 124 52t60 161l84 587h418l-158 -1087h-368l18 131q-36 -68 -82.5 -101.5t-105.5 -33.5q-61 0 -105.5 31.5t-70.5 93.5l-72 -543h-412l209 1509h422z" />
    <glyph glyph-name="partialdiff" unicode="&#x2202;" horiz-adv-x="1139" 
d="M770 715q25 127 35 210t10 150q0 105 -26.5 159t-77.5 54q-32 0 -57 -21t-52 -71q-44 -80 -91.5 -119t-100.5 -39q-62 0 -103 37.5t-41 95.5q0 87 102.5 148t249.5 61q224 0 352 -162.5t128 -449.5q0 -348 -167.5 -569.5t-432.5 -221.5q-215 0 -338 115.5t-123 317.5
q0 204 126 340.5t308 136.5q96 0 172 -43.5t127 -128.5zM694 553q0 114 -34 172.5t-99 58.5q-90 0 -150.5 -140.5t-60.5 -354.5q0 -115 34 -172.5t101 -57.5q90 0 149.5 140t59.5 354z" />
    <glyph glyph-name="summation" unicode="&#x2211;" horiz-adv-x="1583" 
d="M80 1473h1368v-353h-778l559 -557l-541 -600h846v-356h-1475v200l664 738l-643 629v299z" />
    <glyph glyph-name="product" unicode="&#x220f;" horiz-adv-x="1688" 
d="M139 1473h1399v-1866h-473v1474h-453v-1474h-473v1866z" />
    <glyph glyph-name="pi" unicode="&#x3c0;" horiz-adv-x="1716" 
d="M1661 846h-180l-119 -846h-418l119 846h-227l-119 -846h-418l119 846h-29q-32 0 -57.5 -37t-32.5 -96h-258q36 216 127.5 295t312.5 79h1221z" />
    <glyph glyph-name="integral" unicode="&#x222b;" horiz-adv-x="1331" 
d="M379 -244q28 0 54 42t42 114q19 92 26 385q4 185 9 293q23 515 144 742t368 227q118 0 190 -58.5t72 -150.5q0 -69 -46 -112.5t-116 -43.5q-67 0 -101 40.5t-34 119.5q0 2 1 10.5t1 15.5q0 26 -8.5 38t-26.5 12q-103 0 -126 -661q-2 -58 -3 -88q-11 -334 -36 -484.5
t-74 -266.5q-65 -150 -166.5 -226.5t-237.5 -76.5q-118 0 -189 57t-71 152q0 72 45 114t121 42q62 0 96.5 -37.5t34.5 -104.5q0 -12 -1 -30t-1 -23q0 -20 8.5 -30.5t24.5 -10.5z" />
    <glyph glyph-name="ordfeminine" unicode="&#xaa;" horiz-adv-x="901" 
d="M500 954v123q-87 -32 -108 -50t-21 -46t13 -42.5t38 -14.5q22 0 41.5 7.5t36.5 22.5zM514 739l-12 68q-39 -42 -90 -61t-125 -19q-111 0 -172.5 59t-61.5 166q0 175 418 289l29 8v15q0 46 -14.5 68t-45.5 22t-46 -22t-15 -68v-15h-289v185q68 48 168 75t215 27
q176 0 256 -68t80 -219v-239q0 -44 9 -65t30 -30v-176h-334z" />
    <glyph glyph-name="ordmasculine" unicode="&#xba;" horiz-adv-x="881" 
d="M813 1249v-237q0 -161 -80.5 -223t-292.5 -62q-211 0 -291.5 62t-80.5 223v237q0 162 81 224.5t291 62.5q212 0 292.5 -62.5t80.5 -224.5zM502 1264q0 50 -14 70t-48 20q-33 0 -47 -20t-14 -70v-265q0 -53 14 -73.5t47 -20.5t47.5 22t14.5 72v265z" />
    <glyph glyph-name="uni03A9" unicode="&#x3a9;" horiz-adv-x="1706" 
d="M1671 350v-350h-661v403q67 81 101 176.5t34 202.5q0 165 -80 263t-213 98t-212 -98t-79 -263q0 -107 34 -202.5t101 -176.5v-403h-661v350h371q-144 82 -215.5 209.5t-71.5 300.5q0 291 201.5 471t531.5 180t532.5 -180.5t202.5 -470.5q0 -173 -71.5 -300.5
t-215.5 -209.5h371z" />
    <glyph glyph-name="ae" unicode="&#xe6;" horiz-adv-x="1737" 
d="M1069 748v-41h166v41q0 72 -19.5 101.5t-64.5 29.5q-44 0 -63 -30t-19 -101zM1069 371q0 -74 19 -103.5t63 -29.5t64 30.5t20 102.5v30h416v-276q-84 -69 -212.5 -106t-287.5 -37q-117 0 -211.5 33t-157.5 96q-85 -64 -186.5 -96.5t-212.5 -32.5q-148 0 -229.5 84
t-81.5 237q0 252 566 416l28 8v21q0 67 -19.5 99t-60.5 32t-60.5 -32t-19.5 -99v-21h-385v264q93 71 213.5 108.5t255.5 37.5q84 0 151.5 -18t124.5 -56q57 36 136 55t178 19q254 0 362.5 -100t108.5 -337v-225h-582v-104zM666 313v160q-111 -41 -139.5 -65.5t-28.5 -61.5
q0 -34 18 -53t51 -19q26 0 51.5 10t47.5 29z" />
    <glyph glyph-name="oslash" unicode="&#xf8;" horiz-adv-x="1174" 
d="M504 748v-377q0 -74 18.5 -103.5t63.5 -29.5q43 0 62.5 30t19.5 103v377q0 73 -19 102t-63 29t-63 -30t-19 -101zM90 729q0 230 107.5 319t388.5 89q115 0 224 -19q7 -1 11 -2l70 94l233 -163l-73 -103q16 -28 24 -83.5t8 -131.5v-340q0 -230 -108 -318.5t-389 -88.5
q-76 0 -128.5 4.5t-95.5 15.5l-77 -111l-236 160l78 115q-18 21 -27.5 79t-9.5 144v340z" />
    <glyph glyph-name="questiondown" unicode="&#xbf;" horiz-adv-x="1270" 
d="M913 1348q0 -83 -60.5 -143t-143.5 -60q-85 0 -144 59t-59 144q0 84 60 144t143 60q81 0 142.5 -61.5t61.5 -142.5zM946 1051v-115q0 -222 -196 -333l-15 -9q-110 -62 -142 -99t-32 -85t26.5 -77.5t67.5 -29.5q44 0 68.5 35.5t24.5 99.5v88h438v-385q-113 -81 -251 -120
t-314 -39q-269 0 -403 111.5t-134 334.5q0 102 20 168t66 117q44 49 169 119q42 23 64 36q66 40 85.5 75t19.5 108h438z" />
    <glyph glyph-name="exclamdown" unicode="&#xa1;" horiz-adv-x="782" 
d="M594 1335q0 -83 -60 -144t-143 -61q-84 0 -144.5 60.5t-60.5 144.5t61 143.5t144 59.5q82 0 142.5 -60.5t60.5 -142.5zM494 1044l139 -755q6 -31 9 -59t3 -52q0 -104 -63 -156.5t-191 -52.5q-127 0 -191.5 52.5t-64.5 156.5q0 24 3 52t9 59l140 755h207z" />
    <glyph glyph-name="logicalnot" unicode="&#xac;" horiz-adv-x="1706" 
d="M1452 868v-501h-272v235h-926v266h1198z" />
    <glyph glyph-name="radical" unicode="&#x221a;" horiz-adv-x="1395" 
d="M1399 1737v-172h-86l-588 -1606h-143l-301 827l-156 -59l-41 154l395 139l209 -600l483 1317h228z" />
    <glyph glyph-name="florin" unicode="&#x192;" horiz-adv-x="1366" 
d="M498 1171q24 219 103 300t257 81q59 0 113.5 -7.5t103.5 -22.5v-242q-9 0 -21.5 1t-17.5 1q-58 0 -84.5 -34t-40.5 -138l-18 -139h143v-256h-172l-53 -619q-19 -218 -99 -300.5t-261 -82.5q-59 0 -114 8t-104 23v242h39q62 0 89 34.5t36 136.5l54 558h-117v256h141z" />
    <glyph glyph-name="approxequal" unicode="&#x2248;" horiz-adv-x="1706" 
d="M1530 309q-106 -69 -195.5 -101t-177.5 -32q-87 0 -280 64.5t-316 64.5q-82 0 -172.5 -37t-210.5 -121v299q115 74 213 108t197 34q119 0 308.5 -64.5t268.5 -64.5q83 0 169 34.5t196 114.5v-299zM1530 774q-106 -70 -195 -101.5t-176 -31.5q-88 0 -281 64.5t-317 64.5
q-84 0 -173 -36t-210 -120v299q116 73 214 106.5t196 33.5q119 0 308.5 -63.5t268.5 -63.5q85 0 171.5 35t193.5 114v-301z" />
    <glyph glyph-name="Delta" unicode="&#x2206;" horiz-adv-x="1505" 
d="M958 309l-206 705l-207 -705h413zM991 1473l518 -1473h-1515l518 1473h479z" />
    <glyph glyph-name="guillemotleft" unicode="&#xab;" horiz-adv-x="1053" 
d="M266 199l-174 379l174 380h289l-170 -380l170 -379h-289zM692 199l-174 379l174 380h289l-170 -380l170 -379h-289z" />
    <glyph glyph-name="guillemotright" unicode="&#xbb;" horiz-adv-x="1053" 
d="M786 199h-288l170 379l-170 380h288l175 -380zM358 199h-286l170 379l-170 380h286l177 -380z" />
    <glyph glyph-name="ellipsis" unicode="&#x2026;" horiz-adv-x="2048" 
d="M137 184q0 83 60 144t143 61q84 0 144.5 -60t60.5 -145q0 -84 -60.5 -143t-144.5 -59q-82 0 -142.5 60t-60.5 142zM819 184q0 83 60 144t143 61q84 0 144.5 -60t60.5 -145q0 -84 -60.5 -143t-144.5 -59q-82 0 -142.5 60t-60.5 142zM1503 184q0 83 60 144t143 61
q84 0 144.5 -60t60.5 -145q0 -84 -60.5 -143t-144.5 -59q-82 0 -142.5 60t-60.5 142z" />
    <glyph glyph-name="uni00A0" unicode="&#xa0;" horiz-adv-x="1366" 
 />
    <glyph glyph-name="Agrave" unicode="&#xc0;" horiz-adv-x="1339" 
d="M553 664h158l-86 540zM53 0v270q21 8 38.5 41t27.5 84l205 1127h671l232 -1127q12 -52 31 -84.5t42 -40.5v-270h-593v270q23 8 37 30t14 52q0 5 -3.5 19.5t-5.5 21.5h-231q-1 -7 -3.5 -23t-2.5 -24q0 -34 16.5 -52.5t50.5 -23.5l1 -270h-527zM365 2034h287l192 -371h-154
z" />
    <glyph glyph-name="Atilde" unicode="&#xc3;" horiz-adv-x="1339" 
d="M553 664h158l-86 540zM53 0v270q21 8 38.5 41t27.5 84l205 1127h671l232 -1127q12 -52 31 -84.5t42 -40.5v-270h-593v270q23 8 37 30t14 52q0 5 -3.5 19.5t-5.5 21.5h-231q-1 -7 -3.5 -23t-2.5 -24q0 -34 16.5 -52.5t50.5 -23.5l1 -270h-527zM883 1989h119
q-32 -135 -83.5 -194.5t-135.5 -59.5q-18 0 -37 3t-39 9l-93 25l-3 1q-46 13 -64 13q-33 0 -54.5 -18.5t-35.5 -59.5h-119q28 126 80.5 186t134.5 60q19 0 42 -3.5t48 -10.5l95 -29q12 -4 26 -6t31 -2q33 0 55 21.5t33 64.5z" />
    <glyph glyph-name="Otilde" unicode="&#xd5;" horiz-adv-x="1335" 
d="M762 446v633q0 81 -22 115.5t-72 34.5q-51 0 -73 -33.5t-22 -116.5v-633q0 -82 22 -115.5t73 -33.5q50 0 72 34t22 115zM98 1008q0 306 126 425t444 119q317 0 442 -119t125 -425v-496q0 -305 -124.5 -424t-442.5 -119q-319 0 -444.5 118.5t-125.5 424.5v496zM881 1989
h119q-32 -135 -83.5 -194.5t-135.5 -59.5q-18 0 -37 3t-39 9l-93 25l-3 1q-46 13 -64 13q-33 0 -54.5 -18.5t-35.5 -59.5h-119q28 126 80.5 186t134.5 60q19 0 42 -3.5t48 -10.5l95 -29q12 -4 26 -6t31 -2q33 0 55 21.5t33 64.5z" />
    <glyph glyph-name="OE" unicode="&#x152;" horiz-adv-x="1896" 
d="M762 446v633q0 81 -22 115.5t-72 34.5q-51 0 -73 -33.5t-22 -116.5v-633q0 -82 22 -115.5t73 -33.5q50 0 72 34t22 115zM98 1008q0 306 126 425t444 119q83 0 150 -7.5t122 -22.5h870v-504h-413v43q0 82 -28 110.5t-105 28.5h-41v-270h301v-295h-301v-307q7 -1 16 -1.5
t25 -0.5q74 0 104.5 38.5t30.5 135.5q0 21 -0.5 32.5t-1.5 22.5h413v-555h-866q-64 -16 -132 -23.5t-144 -7.5q-319 0 -444.5 118.5t-125.5 424.5v496z" />
    <glyph glyph-name="oe" unicode="&#x153;" horiz-adv-x="1749" 
d="M1081 748v-41h166v41q0 72 -19 101.5t-65 29.5q-44 0 -63 -30t-19 -101zM1081 371q0 -74 19 -103.5t63 -29.5q45 0 64.5 30.5t19.5 102.5v30h416v-276q-84 -69 -212.5 -106t-287.5 -37q-83 0 -159 16.5t-130 46.5q-76 -32 -157.5 -47.5t-171.5 -15.5q-247 0 -351 92
t-104 315v340q0 225 104.5 316.5t358.5 91.5q106 0 188 -16.5t138 -49.5q61 32 141 49t174 17q253 0 361 -100t108 -337v-225h-582v-104zM504 748v-377q0 -74 18.5 -103.5t63.5 -29.5q43 0 62.5 30t19.5 103v377q0 73 -19 102t-63 29t-63 -30t-19 -101z" />
    <glyph glyph-name="endash" unicode="&#x2013;" horiz-adv-x="1024" 
d="M0 442v271h1024v-271h-1024z" />
    <glyph glyph-name="emdash" unicode="&#x2014;" horiz-adv-x="2048" 
d="M0 442v271h2048v-271h-2048z" />
    <glyph glyph-name="quotedblleft" unicode="&#x201c;" horiz-adv-x="1006" 
d="M858 1495q-48 -57 -78.5 -108.5t-43.5 -100.5h18q71 0 115 -42t44 -107q0 -74 -53.5 -127.5t-128.5 -53.5q-80 0 -130 54.5t-50 142.5q0 96 62 195t188 204zM422 1495q-49 -57 -79.5 -109t-42.5 -100h17q71 0 115.5 -42t44.5 -107q0 -74 -53.5 -127.5t-128.5 -53.5
q-81 0 -130.5 54.5t-49.5 142.5q0 95 62.5 195t187.5 204z" />
    <glyph glyph-name="quotedblright" unicode="&#x201d;" horiz-adv-x="1006" 
d="M596 1012q44 51 74.5 104t46.5 107h-19q-70 0 -114.5 41.5t-44.5 107.5q0 74 53.5 127t128.5 53q79 0 129.5 -54t50.5 -142q0 -97 -61.5 -196t-186.5 -204zM160 1012q45 52 74.5 104t46.5 107h-19q-71 0 -115.5 41.5t-44.5 107.5q0 74 53.5 127t129.5 53q79 0 129.5 -54
t50.5 -142q0 -97 -61.5 -196t-186.5 -204z" />
    <glyph glyph-name="quoteleft" unicode="&#x2018;" horiz-adv-x="569" 
d="M422 1495q-49 -57 -79.5 -109t-42.5 -100h17q71 0 115.5 -42t44.5 -107q0 -74 -53.5 -127.5t-128.5 -53.5q-81 0 -130.5 54.5t-49.5 142.5q0 95 62.5 195t187.5 204z" />
    <glyph glyph-name="quoteright" unicode="&#x2019;" horiz-adv-x="569" 
d="M160 1012q45 52 74.5 104t46.5 107h-19q-71 0 -115.5 41.5t-44.5 107.5q0 74 53.5 127t129.5 53q79 0 129.5 -54t50.5 -142q0 -97 -61.5 -196t-186.5 -204z" />
    <glyph glyph-name="divide" unicode="&#xf7;" horiz-adv-x="1706" 
d="M854 371q74 0 128 -54t54 -129q0 -74 -54 -128t-130 -54t-129 53t-53 129q0 77 53.5 130t130.5 53zM1452 748v-273h-1198v273h1198zM854 1217q74 0 128 -55t54 -130q0 -74 -54 -128t-130 -54t-129 53t-53 129q0 77 54 131t130 54z" />
    <glyph glyph-name="lozenge" unicode="&#x25ca;" horiz-adv-x="1012" 
d="M506 1409l-385 -821l385 -821l385 821zM506 1653l500 -1065l-500 -1065l-500 1065z" />
    <glyph glyph-name="ydieresis" unicode="&#xff;" horiz-adv-x="1139" 
d="M383 -37l-285 811q-10 28 -26 53t-35 41v250h518v-250q-18 -7 -27.5 -21t-9.5 -34q0 -5 1.5 -14.5t4.5 -25.5l88 -392l76 381q2 10 3 21.5t1 27.5q0 22 -10 36t-30 21l-1 250h451v-250q-20 -12 -35 -38.5t-29 -71.5l-239 -819q-56 -192 -146 -274.5t-241 -82.5
q-47 0 -95.5 7.5t-97.5 21.5v241q65 2 105.5 29t58.5 82zM598 1432q0 62 44.5 107.5t106.5 45.5q64 0 108 -44.5t44 -108.5q0 -63 -45 -107.5t-107 -44.5q-61 0 -106 45t-45 107zM235 1432q0 62 45 107.5t107 45.5q64 0 108.5 -44.5t44.5 -108.5q0 -62 -45.5 -107
t-107.5 -45t-107 45t-45 107z" />
    <glyph glyph-name="Ydieresis" unicode="&#x178;" horiz-adv-x="1204" 
d="M838 410q0 -66 15 -94.5t54 -45.5v-270h-614v270q39 17 54 46.5t15 93.5v188l-296 586q-9 18 -23 35t-37 36v267h535v-176q0 -91 6.5 -132.5t21.5 -76.5l62 -138l61 142q17 39 25 86t8 104v191h473v-267q-18 -11 -32 -28t-27 -41l-301 -588v-188zM631 1848
q0 62 44.5 107.5t106.5 45.5q64 0 108 -44.5t44 -108.5q0 -63 -45 -107.5t-107 -44.5q-61 0 -106 45t-45 107zM268 1848q0 62 45 107.5t107 45.5q64 0 108.5 -44.5t44.5 -108.5q0 -62 -45.5 -107t-107.5 -45t-107 45t-45 107z" />
    <glyph glyph-name="uni2215" unicode="&#x2215;" horiz-adv-x="473" 
d="M-352 0l878 1530h301l-876 -1530h-303z" />
    <glyph glyph-name="currency" unicode="&#xa4;" horiz-adv-x="1366" 
d="M1257 1384v-288h-456v28q0 52 -22.5 78.5t-67.5 26.5q-49 0 -69.5 -33t-20.5 -117v-84h337l-69 -157h-268v-154h200l-69 -158h-131v-80q0 -83 20.5 -116t69.5 -33q48 0 69 32t21 107v39h456v-346q-102 -81 -242 -120.5t-327 -39.5q-297 0 -419 121t-122 422v14h-137
l70 158h67v154h-172l70 157h102v13q0 298 121 421t406 123q172 0 319.5 -42.5t263.5 -125.5z" />
    <glyph glyph-name="guilsinglleft" unicode="&#x2039;" horiz-adv-x="627" 
d="M266 199l-174 379l174 380h289l-170 -380l170 -379h-289z" />
    <glyph glyph-name="guilsinglright" unicode="&#x203a;" horiz-adv-x="627" 
d="M358 199h-286l170 379l-170 380h286l177 -380z" />
    <glyph glyph-name="fi" unicode="&#xf001;" horiz-adv-x="1460" 
d="M1325 1358q0 -74 -63 -123t-160 -49t-160 49.5t-63 122.5t63 122.5t160 49.5q96 0 159.5 -49.5t63.5 -122.5zM125 0v252q27 8 38 41t11 117v452h-49v256h49v43q0 201 84.5 291t273.5 90q59 0 114 -7.5t104 -23.5v-241q-9 0 -22 1t-17 1q-58 0 -88.5 -35.5t-30.5 -103.5
v-15h131v-256h-131v-452q0 -89 12 -119.5t43 -38.5v-252h-522zM1329 399q0 -67 11.5 -100t37.5 -47v-252h-522v252q28 8 41.5 42.5t13.5 98.5v355q0 55 -12 80t-43 38v252h473v-719z" />
    <glyph glyph-name="fl" unicode="&#xf002;" horiz-adv-x="1460" 
d="M125 0v252q27 8 38 41t11 117v452h-49v256h49v43q0 201 84.5 291t273.5 90q59 0 114 -7.5t104 -23.5v-241q-9 0 -22 1t-17 1q-58 0 -88.5 -35.5t-30.5 -103.5v-15h131v-256h-131v-452q0 -89 12 -119.5t43 -38.5v-252h-522zM1329 399q0 -67 11.5 -100t37.5 -47v-252h-522
v252q28 8 41.5 42.5t13.5 98.5v758q0 56 -12 80.5t-43 38.5v252h473v-1123z" />
    <glyph glyph-name="daggerdbl" unicode="&#x2021;" horiz-adv-x="1024" 
d="M322 0v328h-265v258h265v358h-265v258h265v320h378v-320h267v-258h-267v-358h267v-258h-267v-328h-378z" />
    <glyph glyph-name="periodcentered" unicode="&#xb7;" horiz-adv-x="682" 
d="M137 764q0 83 60 143t143 60q85 0 145 -59.5t60 -143.5t-61 -144.5t-144 -60.5q-82 0 -142.5 61t-60.5 144z" />
    <glyph glyph-name="quotesinglbase" unicode="&#x201a;" horiz-adv-x="569" 
d="M160 -186q45 52 75 104.5t46 106.5h-19q-71 0 -115.5 41.5t-44.5 107.5q0 74 53.5 127t129.5 53q79 0 129.5 -54.5t50.5 -141.5q0 -97 -61.5 -196t-186.5 -204z" />
    <glyph glyph-name="quotedblbase" unicode="&#x201e;" horiz-adv-x="1006" 
d="M596 -186q45 52 75 104.5t46 106.5h-19q-70 0 -114.5 41.5t-44.5 107.5q0 74 53.5 127t128.5 53q79 0 129.5 -54.5t50.5 -141.5q0 -97 -61.5 -196t-186.5 -204zM160 -186q45 52 75 104.5t46 106.5h-19q-71 0 -115.5 41.5t-44.5 107.5q0 74 53.5 127t129.5 53
q79 0 129.5 -54.5t50.5 -141.5q0 -97 -61.5 -196t-186.5 -204z" />
    <glyph glyph-name="perthousand" unicode="&#x2030;" horiz-adv-x="2517" 
d="M2089 494v-271q0 -37 12.5 -53t40.5 -16t39.5 15t11.5 54v271q0 39 -11.5 54t-39.5 15t-40.5 -16.5t-12.5 -52.5zM1823 469q0 147 69 203.5t250 56.5q180 0 249 -56t69 -204v-221q0 -148 -69.5 -204t-248.5 -56q-181 0 -250 56.5t-69 203.5v221zM1317 494v-271
q0 -38 11.5 -53.5t39.5 -15.5q29 0 41 15.5t12 53.5v271q0 38 -12 53.5t-41 15.5q-27 0 -39 -16t-12 -53zM1051 469q0 147 68.5 203.5t248.5 56.5q181 0 250.5 -56t69.5 -204v-221q0 -147 -70 -203.5t-250 -56.5t-248.5 56t-68.5 204v221zM322 1296v-270q0 -41 11 -55.5
t40 -14.5q28 0 39.5 16t11.5 54v270q0 40 -12 56t-39 16q-28 0 -39.5 -15.5t-11.5 -56.5zM55 1272q0 149 69.5 205.5t248.5 56.5t248 -56t69 -206v-221q0 -149 -68.5 -204.5t-248.5 -55.5q-179 0 -248.5 56.5t-69.5 203.5v221zM1462 1534l-878 -1534h-305l880 1534h303z" />
    <glyph glyph-name="Acircumflex" unicode="&#xc2;" horiz-adv-x="1339" 
d="M553 664h158l-86 540zM53 0v270q21 8 38.5 41t27.5 84l205 1127h671l232 -1127q12 -52 31 -84.5t42 -40.5v-270h-593v270q23 8 37 30t14 52q0 5 -3.5 19.5t-5.5 21.5h-231q-1 -7 -3.5 -23t-2.5 -24q0 -34 16.5 -52.5t50.5 -23.5l1 -270h-527zM541 2034h256l192 -371h-153
l-166 199l-168 -199h-154z" />
    <glyph glyph-name="Ecircumflex" unicode="&#xca;" horiz-adv-x="1313" 
d="M88 0v270q32 17 44.5 47t12.5 93v706q0 63 -12.5 93t-44.5 46v267h1139v-504h-436v43q0 82 -28 110.5t-106 28.5h-41v-270h302v-295h-302l1 -307q6 -1 15 -1.5t25 -0.5q75 0 105.5 38.5t30.5 135.5q0 21 -0.5 32.5t-1.5 22.5h436v-555h-1139zM528 2034h256l192 -371h-153
l-166 199l-168 -199h-154z" />
    <glyph glyph-name="Aacute" unicode="&#xc1;" horiz-adv-x="1339" 
d="M553 664h158l-86 540zM53 0v270q21 8 38.5 41t27.5 84l205 1127h671l232 -1127q12 -52 31 -84.5t42 -40.5v-270h-593v270q23 8 37 30t14 52q0 5 -3.5 19.5t-5.5 21.5h-231q-1 -7 -3.5 -23t-2.5 -24q0 -34 16.5 -52.5t50.5 -23.5l1 -270h-527zM688 2034h287l-325 -371
h-154z" />
    <glyph glyph-name="Edieresis" unicode="&#xcb;" horiz-adv-x="1313" 
d="M88 0v270q32 17 44.5 47t12.5 93v706q0 63 -12.5 93t-44.5 46v267h1139v-504h-436v43q0 82 -28 110.5t-106 28.5h-41v-270h302v-295h-302l1 -307q6 -1 15 -1.5t25 -0.5q75 0 105.5 38.5t30.5 135.5q0 21 -0.5 32.5t-1.5 22.5h436v-555h-1139zM686 1848q0 62 44.5 107.5
t106.5 45.5q64 0 108 -44.5t44 -108.5q0 -63 -45 -107.5t-107 -44.5q-61 0 -106 45t-45 107zM323 1848q0 62 45 107.5t107 45.5q64 0 108.5 -44.5t44.5 -108.5q0 -62 -45.5 -107t-107.5 -45t-107 45t-45 107z" />
    <glyph glyph-name="Egrave" unicode="&#xc8;" horiz-adv-x="1313" 
d="M88 0v270q32 17 44.5 47t12.5 93v706q0 63 -12.5 93t-44.5 46v267h1139v-504h-436v43q0 82 -28 110.5t-106 28.5h-41v-270h302v-295h-302l1 -307q6 -1 15 -1.5t25 -0.5q75 0 105.5 38.5t30.5 135.5q0 21 -0.5 32.5t-1.5 22.5h436v-555h-1139zM352 2034h287l192 -371h-154
z" />
    <glyph glyph-name="Iacute" unicode="&#xcd;" horiz-adv-x="778" 
d="M682 1522v-267q-31 -15 -43 -43.5t-12 -95.5v-706q0 -68 12 -96t43 -44v-270h-588v270q32 17 45 47t13 93v706q0 63 -13 93t-45 46v267h588zM407 2034h287l-325 -371h-154z" />
    <glyph glyph-name="Icircumflex" unicode="&#xce;" horiz-adv-x="778" 
d="M682 1522v-267q-31 -15 -43 -43.5t-12 -95.5v-706q0 -68 12 -96t43 -44v-270h-588v270q32 17 45 47t13 93v706q0 63 -13 93t-45 46v267h588zM260 2034h256l192 -371h-153l-166 199l-168 -199h-154z" />
    <glyph glyph-name="Idieresis" unicode="&#xcf;" horiz-adv-x="778" 
d="M682 1522v-267q-31 -15 -43 -43.5t-12 -95.5v-706q0 -68 12 -96t43 -44v-270h-588v270q32 17 45 47t13 93v706q0 63 -13 93t-45 46v267h588zM418 1848q0 62 44.5 107.5t106.5 45.5q64 0 108 -44.5t44 -108.5q0 -63 -45 -107.5t-107 -44.5q-61 0 -106 45t-45 107zM55 1848
q0 62 45 107.5t107 45.5q64 0 108.5 -44.5t44.5 -108.5q0 -62 -45.5 -107t-107.5 -45t-107 45t-45 107z" />
    <glyph glyph-name="Igrave" unicode="&#xcc;" horiz-adv-x="778" 
d="M682 1522v-267q-31 -15 -43 -43.5t-12 -95.5v-706q0 -68 12 -96t43 -44v-270h-588v270q32 17 45 47t13 93v706q0 63 -13 93t-45 46v267h588zM84 2034h287l192 -371h-154z" />
    <glyph glyph-name="Oacute" unicode="&#xd3;" horiz-adv-x="1335" 
d="M762 446v633q0 81 -22 115.5t-72 34.5q-51 0 -73 -33.5t-22 -116.5v-633q0 -82 22 -115.5t73 -33.5q50 0 72 34t22 115zM98 1008q0 306 126 425t444 119q317 0 442 -119t125 -425v-496q0 -305 -124.5 -424t-442.5 -119q-319 0 -444.5 118.5t-125.5 424.5v496zM686 2034
h287l-325 -371h-154z" />
    <glyph glyph-name="Ocircumflex" unicode="&#xd4;" horiz-adv-x="1335" 
d="M762 446v633q0 81 -22 115.5t-72 34.5q-51 0 -73 -33.5t-22 -116.5v-633q0 -82 22 -115.5t73 -33.5q50 0 72 34t22 115zM98 1008q0 306 126 425t444 119q317 0 442 -119t125 -425v-496q0 -305 -124.5 -424t-442.5 -119q-319 0 -444.5 118.5t-125.5 424.5v496zM539 2034
h256l192 -371h-153l-166 199l-168 -199h-154z" />
    <glyph glyph-name="apple" unicode="&#xf000;" horiz-adv-x="1618" 
d="M836 1216q-1 6 -1.5 14t-0.5 23q0 124 95 229.5t236 131.5q1 -10 1.5 -23t0.5 -39q0 -131 -103.5 -234.5t-203.5 -103.5h-8q-3 0 -7.5 1t-8.5 1zM1505 403q-114 -247 -205 -342.5t-204 -95.5q-50 0 -131.5 33t-122.5 33q-45 0 -131 -33t-127 -33q-64 0 -128.5 44
t-129.5 132q-102 140 -157.5 295.5t-55.5 300.5q0 219 125 356.5t323 137.5q68 0 155 -34t124 -34q34 0 121.5 34t152.5 34q111 0 199 -39.5t160 -122.5q-102 -65 -151.5 -145.5t-49.5 -182.5q0 -113 60 -200t173 -138z" />
    <glyph glyph-name="Ograve" unicode="&#xd2;" horiz-adv-x="1335" 
d="M762 446v633q0 81 -22 115.5t-72 34.5q-51 0 -73 -33.5t-22 -116.5v-633q0 -82 22 -115.5t73 -33.5q50 0 72 34t22 115zM98 1008q0 306 126 425t444 119q317 0 442 -119t125 -425v-496q0 -305 -124.5 -424t-442.5 -119q-319 0 -444.5 118.5t-125.5 424.5v496zM363 2034
h287l192 -371h-154z" />
    <glyph glyph-name="Uacute" unicode="&#xda;" horiz-adv-x="1346" 
d="M784 1116q0 69 -11.5 97.5t-41.5 41.5v267h543v-267q-32 -15 -44.5 -44.5t-12.5 -94.5v-536q0 -178 -12 -254.5t-40 -128.5q-62 -116 -185 -172t-314 -56q-164 0 -279 46.5t-182 140.5q-39 55 -55.5 124.5t-16.5 198.5v80v557q0 63 -15 93t-52 46v267h583v-266
q-30 -14 -41.5 -41.5t-11.5 -98.5v-670q0 -82 21.5 -115.5t72.5 -33.5t72.5 34t21.5 115v670zM692 2034h287l-325 -371h-154z" />
    <glyph glyph-name="Ucircumflex" unicode="&#xdb;" horiz-adv-x="1346" 
d="M784 1116q0 69 -11.5 97.5t-41.5 41.5v267h543v-267q-32 -15 -44.5 -44.5t-12.5 -94.5v-536q0 -178 -12 -254.5t-40 -128.5q-62 -116 -185 -172t-314 -56q-164 0 -279 46.5t-182 140.5q-39 55 -55.5 124.5t-16.5 198.5v80v557q0 63 -15 93t-52 46v267h583v-266
q-30 -14 -41.5 -41.5t-11.5 -98.5v-670q0 -82 21.5 -115.5t72.5 -33.5t72.5 34t21.5 115v670zM545 2034h256l192 -371h-153l-166 199l-168 -199h-154z" />
    <glyph glyph-name="Ugrave" unicode="&#xd9;" horiz-adv-x="1346" 
d="M784 1116q0 69 -11.5 97.5t-41.5 41.5v267h543v-267q-32 -15 -44.5 -44.5t-12.5 -94.5v-536q0 -178 -12 -254.5t-40 -128.5q-62 -116 -185 -172t-314 -56q-164 0 -279 46.5t-182 140.5q-39 55 -55.5 124.5t-16.5 198.5v80v557q0 63 -15 93t-52 46v267h583v-266
q-30 -14 -41.5 -41.5t-11.5 -98.5v-670q0 -82 21.5 -115.5t72.5 -33.5t72.5 34t21.5 115v670zM369 2034h287l192 -371h-154z" />
    <glyph glyph-name="dotlessi" unicode="&#x131;" horiz-adv-x="692" 
d="M561 399q0 -67 11.5 -100t37.5 -47v-252h-522v252q28 8 41.5 42.5t13.5 98.5v355q0 55 -12 80t-43 38v252h473v-719z" />
    <glyph glyph-name="circumflex" unicode="&#x2c6;" horiz-adv-x="1024" 
d="M383 1618h256l192 -371h-153l-166 199l-168 -199h-154z" />
    <glyph glyph-name="tilde" unicode="&#x2dc;" horiz-adv-x="1024" 
d="M725 1573h119q-32 -135 -83.5 -194.5t-135.5 -59.5q-18 0 -37 3t-39 9l-93 25l-3 1q-46 13 -64 13q-33 0 -54.5 -18.5t-35.5 -59.5h-119q28 126 80.5 186t134.5 60q19 0 42 -3.5t48 -10.5l95 -29q12 -4 26 -6t31 -2q33 0 55 21.5t33 64.5z" />
    <glyph glyph-name="macron" unicode="&#xaf;" horiz-adv-x="1024" 
d="M205 1518h614v-170h-614v170z" />
    <glyph glyph-name="breve" unicode="&#x2d8;" horiz-adv-x="1024" 
d="M197 1585h131q6 -71 50.5 -105t133.5 -34q88 0 132.5 34t50.5 105h130q-12 -159 -87.5 -233t-225.5 -74q-149 0 -226 75t-89 232z" />
    <glyph glyph-name="dotaccent" unicode="&#x2d9;" horiz-adv-x="1024" 
d="M360 1432q0 61 45.5 106t106.5 45q63 0 107.5 -44t44.5 -107t-45 -107.5t-107 -44.5q-60 0 -106 46t-46 106z" />
    <glyph glyph-name="ring" unicode="&#x2da;" horiz-adv-x="1024" 
d="M512 1614q-48 0 -81.5 -33.5t-33.5 -81.5q0 -47 33.5 -81t81.5 -34t81.5 34t33.5 81q0 48 -33.5 81.5t-81.5 33.5zM512 1772q113 0 192.5 -80t79.5 -193t-79 -191.5t-193 -78.5t-192 78t-78 192t79 193.5t191 79.5z" />
    <glyph glyph-name="cedilla" unicode="&#xb8;" horiz-adv-x="1024" 
d="M455 0h114v-84h19q111 0 170 -49.5t59 -142.5q0 -100 -66 -154.5t-188 -54.5q-60 0 -134 12t-157 35v137q79 -22 150.5 -33.5t120.5 -11.5q43 0 64.5 17.5t21.5 54.5q0 32 -28.5 47.5t-90.5 15.5q-21 0 -33 -0.5t-22 -1.5v213z" />
    <glyph glyph-name="hungarumlaut" unicode="&#x2dd;" horiz-adv-x="1024" 
d="M725 1618h254l-291 -371h-119zM397 1618h246l-252 -371h-110z" />
    <glyph glyph-name="ogonek" unicode="&#x2db;" horiz-adv-x="1024" 
d="M524 0h109q-65 -59 -92 -104.5t-27 -92.5q0 -41 18.5 -60t57.5 -19h102v-191h-153q-93 0 -150 54t-57 143q0 75 46 139.5t146 130.5z" />
    <glyph glyph-name="caron" unicode="&#x2c7;" horiz-adv-x="1024" 
d="M190 1618h154l168 -199l166 199h153l-192 -371h-256z" />
    <glyph glyph-name="Lslash" unicode="&#x141;" horiz-adv-x="1305" 
d="M135 0v270q32 17 45 47t13 93v186l-146 -59v262l146 61v256q0 63 -13 93t-45 46v267h606v-267q-42 -7 -58.5 -42t-16.5 -121v-95l266 113v-262l-266 -113v-405h28q74 0 100.5 31t26.5 149v145h414v-655h-1100z" />
    <glyph glyph-name="lslash" unicode="&#x142;" horiz-adv-x="786" 
d="M608 399q0 -67 11.5 -100t37.5 -47v-252h-522v252q28 8 41.5 42.5t13.5 98.5v164l-143 -72v238l143 72v356q0 56 -12 80.5t-43 38.5v252h473v-592l144 71v-235l-144 -72v-295z" />
    <glyph glyph-name="Scaron" unicode="&#x160;" horiz-adv-x="1307" 
d="M106 133v418h461v-84q0 -98 21.5 -133t75.5 -35q46 0 72 35t26 98q0 118 -224 185q-43 13 -65 20q-243 77 -316 167t-73 265q0 249 133 366t414 117q161 0 303 -41.5t268 -126.5v-378h-446v69q0 73 -25 111.5t-72 38.5q-48 0 -72 -27t-24 -80q0 -102 234 -169l30 -9
q261 -76 336.5 -176t75.5 -311q0 -246 -138.5 -365t-424.5 -119q-176 0 -322.5 42.5t-247.5 121.5zM331 2034h154l168 -199l166 199h153l-192 -371h-256z" />
    <glyph glyph-name="scaron" unicode="&#x161;" horiz-adv-x="1118" 
d="M86 127v293h395v-51q0 -70 19.5 -98.5t62.5 -28.5q38 0 61 23.5t23 62.5q0 86 -221 137v0q-215 49 -283.5 118t-68.5 208q0 173 112 259.5t338 86.5q149 0 277 -37t229 -109v-264h-389v55q0 51 -21.5 79t-60.5 28q-36 0 -61 -24.5t-25 -59.5q0 -74 191 -115h2
q233 -51 309 -123.5t76 -216.5q0 -189 -113 -278.5t-352 -89.5q-146 0 -271.5 36.5t-228.5 108.5zM237 1618h154l168 -199l166 199h153l-192 -371h-256z" />
    <glyph glyph-name="Zcaron" unicode="&#x17d;" horiz-adv-x="1294" 
d="M1241 0h-1169v274l596 924h-82q-99 0 -130.5 -32.5t-31.5 -139.5v-106h-338v602h1145v-269l-588 -925h82q95 0 130.5 41t35.5 161v105h350v-635zM325 2034h154l168 -199l166 199h153l-192 -371h-256z" />
    <glyph glyph-name="zcaron" unicode="&#x17e;" horiz-adv-x="1112" 
d="M70 0v266l489 598h-67q-78 0 -99.5 -21t-21.5 -91v-52h-289v418h973v-254l-492 -604h62q88 0 112.5 21.5t24.5 95.5v53h305v-430h-997zM235 1618h154l168 -199l166 199h153l-192 -371h-256z" />
    <glyph glyph-name="glyph232" unicode="&#xa6;" horiz-adv-x="1024" 
d="M653 408v-758h-280v758h280zM653 1432v-758h-280v758h280z" />
    <glyph glyph-name="Eth" unicode="&#xd0;" horiz-adv-x="1405" 
d="M633 332h88q73 0 100 32t27 125v558q0 87 -26.5 115t-100.5 28h-88v-275h106v-241h-106v-342zM121 0v270q31 17 44 47t13 93v264h-131v241h131v201q0 63 -13 93t-44 46v267h584q354 0 478 -111t124 -422v-457q0 -310 -124.5 -421t-477.5 -111h-584z" />
    <glyph glyph-name="eth" unicode="&#xf0;" horiz-adv-x="1174" 
d="M668 709q0 70 -19 97.5t-63 27.5t-63 -29t-19 -96v-359q0 -68 19 -96.5t63 -28.5t63 28t19 97v359zM1083 692v-323q0 -219 -107 -303t-390 -84q-282 0 -389 84t-107 303v323q0 213 104.5 300t356.5 87q18 0 36 -0.5t54 -3.5q-35 56 -65.5 97.5t-59.5 74.5l-309 -121
l-51 134l270 106l-1 1q-94 116 -157 185h297q25 -21 49.5 -44t49.5 -48l245 92l56 -129l-201 -80q167 -168 243 -324t76 -327z" />
    <glyph glyph-name="Yacute" unicode="&#xdd;" horiz-adv-x="1204" 
d="M838 410q0 -66 15 -94.5t54 -45.5v-270h-614v270q39 17 54 46.5t15 93.5v188l-296 586q-9 18 -23 35t-37 36v267h535v-176q0 -91 6.5 -132.5t21.5 -76.5l62 -138l61 142q17 39 25 86t8 104v191h473v-267q-18 -11 -32 -28t-27 -41l-301 -588v-188zM620 2034h287l-325 -371
h-154z" />
    <glyph glyph-name="yacute" unicode="&#xfd;" horiz-adv-x="1139" 
d="M383 -37l-285 811q-10 28 -26 53t-35 41v250h518v-250q-18 -7 -27.5 -21t-9.5 -34q0 -5 1.5 -14.5t4.5 -25.5l88 -392l76 381q2 10 3 21.5t1 27.5q0 22 -10 36t-30 21l-1 250h451v-250q-20 -12 -35 -38.5t-29 -71.5l-239 -819q-56 -192 -146 -274.5t-241 -82.5
q-47 0 -95.5 7.5t-97.5 21.5v241q65 2 105.5 29t58.5 82zM587 1618h287l-325 -371h-154z" />
    <glyph glyph-name="Thorn" unicode="&#xde;" horiz-adv-x="1280" 
d="M610 639h25q87 0 119 28.5t32 104.5v41q0 79 -28 110t-94 31h-54v-315zM143 1116q0 65 -12 94t-43 45v267h580v-199q-31 -11 -44.5 -31t-13.5 -55v-8h121q280 0 388 -98.5t108 -364.5q0 -214 -112 -307.5t-378 -93.5h-127v-27q0 -72 17.5 -99.5t62.5 -39.5v-199h-602v270
q31 16 43 45.5t12 94.5v706z" />
    <glyph glyph-name="thorn" unicode="&#xfe;" horiz-adv-x="1208" 
d="M541 0q0 -71 12.5 -104t42.5 -43v-250h-526v250q27 7 41 43t14 100v1155q0 56 -12.5 80.5t-42.5 38.5v252h471v-469q58 38 127.5 57.5t142.5 19.5q165 0 236 -84t71 -290v-348q0 -239 -70.5 -328.5t-240.5 -89.5q-64 0 -133 16.5t-133 46.5v-53zM541 817v-514
q18 -9 36 -13.5t35 -4.5q50 0 69 26.5t19 126.5v244q0 86 -21 116.5t-73 30.5q-15 0 -32 -3t-33 -9z" />
    <glyph glyph-name="glyph239" unicode="&#x2212;" horiz-adv-x="1706" 
d="M1452 750v-277h-1198v277h1198z" />
    <glyph glyph-name="multiply" unicode="&#xd7;" horiz-adv-x="1706" 
d="M874 805l426 426l195 -195l-426 -426l426 -426l-195 -194l-426 426l-425 -426l-195 194l426 426l-426 426l195 195z" />
    <glyph glyph-name="uni00B9" unicode="&#xb9;" horiz-adv-x="901" 
d="M293 1284q0 38 -9 56.5t-30 27.5v160h352v-672q0 -41 8 -57.5t29 -26.5v-162h-389v162q22 10 30.5 27.5t8.5 56.5v428z" />
    <glyph glyph-name="uni00B2" unicode="&#xb2;" horiz-adv-x="901" 
d="M74 610v205q0 118 44 178t185 123q25 11 68 29q147 61 147 127q0 34 -17 54t-46 20q-32 0 -49 -22.5t-17 -63.5v-62h-295v248q83 48 174.5 71t200.5 23q185 0 273.5 -70t88.5 -217q0 -68 -18.5 -114t-60.5 -84q-32 -29 -182 -97q-53 -25 -83 -38l-2 -1
q-108 -53 -108 -104v-10h51q51 0 68.5 17t20.5 73h294v-285h-737z" />
    <glyph glyph-name="uni00B3" unicode="&#xb3;" horiz-adv-x="901" 
d="M82 688v254h299v-57q0 -53 14 -73.5t47 -20.5t49.5 24t16.5 72q0 58 -25.5 81t-99.5 23h-92v178h92q73 0 97 21t24 76q0 39 -17.5 59.5t-50.5 20.5q-28 0 -41.5 -20.5t-13.5 -61.5v-45h-299v219q73 50 168.5 76t208.5 26q176 0 266 -65.5t90 -194.5q0 -76 -33 -122.5
t-102 -65.5q73 -22 109 -75t36 -138q0 -147 -89 -215t-281 -68q-118 0 -210 23t-163 69z" />
    <glyph glyph-name="onequarter" unicode="&#xbc;" horiz-adv-x="2193" 
d="M1788 383v217l-162 -217h162zM1733 0v152q25 4 37 17t12 36v4h-391v205l333 442h342v-473h66v-174h-65q1 -25 10 -38t28 -19v-152h-372zM508 0l878 1530h302l-877 -1530h-303zM281 1300q0 34 -8.5 52t-28.5 28v148h336v-627q0 -37 7.5 -53t26.5 -25v-151h-370v151
q20 10 28.5 27.5t8.5 50.5v399z" />
    <glyph glyph-name="glyph245" unicode="&#xbd;" horiz-adv-x="2193" 
d="M1405 0v193q0 110 42 165t175 113q25 11 67 28q138 57 138 117q0 33 -16 51.5t-44 18.5q-30 0 -46.5 -20.5t-16.5 -59.5v-57h-281v231q78 45 165.5 66.5t193.5 21.5q175 0 259.5 -65.5t84.5 -202.5q0 -64 -18 -107t-58 -77q-31 -28 -177 -93q-48 -22 -75 -34
q-68 -32 -86 -51.5t-18 -47.5v-8h49q48 0 65 17t19 67h280v-266h-702zM508 0l878 1530h302l-877 -1530h-303zM281 1300q0 34 -8.5 52t-28.5 28v148h336v-627q0 -37 7.5 -53t26.5 -25v-151h-370v151q20 10 28.5 27.5t8.5 50.5v399z" />
    <glyph glyph-name="threequarters" unicode="&#xbe;" horiz-adv-x="2193" 
d="M1788 383v217l-162 -217h162zM1733 0v152q25 4 37 17t12 36v4h-391v205l333 442h342v-473h66v-174h-65q1 -25 10 -38t28 -19v-152h-372zM508 0l878 1530h302l-877 -1530h-303zM78 745v236h287v-53q0 -51 13 -69.5t44 -18.5t47 23t16 67q0 54 -24.5 76t-95.5 22h-89v166
h89q70 0 92 19t22 71q0 36 -16 55t-47 19q-26 0 -38.5 -18.5t-12.5 -57.5v-43h-287v205q70 47 161.5 71.5t198.5 24.5q169 0 254.5 -61t85.5 -183q0 -71 -31.5 -114t-97.5 -60q69 -19 103 -69t34 -129q0 -139 -84.5 -203t-267.5 -64q-114 0 -201.5 22t-154.5 66z" />
    <glyph glyph-name="franc" unicode="&#x20a3;" horiz-adv-x="2040" 
d="M618 410q0 -71 16.5 -100t57.5 -40v-270h-604v270q31 16 43 45.5t12 94.5v706q0 65 -12 94t-43 45v267h1104v-531h-410v45q0 95 -27.5 126.5t-101.5 31.5h-35v-287h300v-299h-300v-198zM1780 399q0 -69 12.5 -102.5t42.5 -44.5v-252h-526v252q28 8 41.5 42.5t13.5 98.5
v355q0 55 -12 80t-43 38v252h446v-88q38 57 82.5 84t100.5 27q9 0 23 -2t28 -5v-378h-45q-83 0 -123.5 -52t-40.5 -159v-146z" />
    <glyph glyph-name="Gbreve" unicode="&#x11e;" horiz-adv-x="1313" 
d="M1210 1384v-391h-456v86q0 82 -21 116t-69 34q-49 0 -70 -33t-21 -117v-633q0 -83 21 -116t70 -33t69.5 33t20.5 116v113h-76v303h532v-733q-102 -81 -242 -120.5t-327 -39.5q-298 0 -420.5 121t-122.5 422v496q0 297 121.5 420.5t407.5 123.5q172 0 320 -42.5
t263 -125.5zM342 2001h131q6 -71 50.5 -105t133.5 -34q88 0 132.5 34t50.5 105h130q-12 -159 -87.5 -233t-225.5 -74q-149 0 -226 75t-89 232z" />
    <glyph glyph-name="gbreve" unicode="&#x11f;" horiz-adv-x="1219" 
d="M666 332v485q-18 6 -33.5 9t-30.5 3q-53 0 -74.5 -31t-21.5 -116v-215q0 -98 20 -126t70 -28q16 0 33 4.5t37 14.5zM115 -309v272h391v-8q0 -56 20 -85.5t58 -29.5q44 0 63 34.5t19 125.5v78q-63 -31 -133 -47.5t-138 -16.5q-165 0 -235 91t-70 327v324q0 206 71 290
t236 84q78 0 151 -22t136 -66v76h455v-252q-31 -13 -43.5 -38t-12.5 -80v-670q0 -134 -9 -193.5t-32 -101.5q-55 -106 -157.5 -157.5t-257.5 -51.5q-142 0 -270.5 29.5t-241.5 87.5zM295 1585h131q6 -71 50.5 -105t133.5 -34q88 0 132.5 34t50.5 105h130
q-12 -159 -87.5 -233t-225.5 -74q-149 0 -226 75t-89 232z" />
    <glyph glyph-name="Idotaccent" unicode="&#x130;" horiz-adv-x="778" 
d="M682 1522v-267q-31 -15 -43 -43.5t-12 -95.5v-706q0 -68 12 -96t43 -44v-270h-588v270q32 17 45 47t13 93v706q0 63 -13 93t-45 46v267h588zM237 1848q0 61 45.5 106t106.5 45q63 0 107.5 -44t44.5 -107t-45 -107.5t-107 -44.5q-60 0 -106 46t-46 106z" />
    <glyph glyph-name="Scedilla" unicode="&#x15e;" horiz-adv-x="1307" 
d="M106 133v418h461v-84q0 -98 21.5 -133t75.5 -35q46 0 72 35t26 98q0 118 -224 185q-43 13 -65 20q-243 77 -316 167t-73 265q0 249 133 366t414 117q161 0 303 -41.5t268 -126.5v-378h-446v69q0 73 -25 111.5t-72 38.5q-48 0 -72 -27t-24 -80q0 -102 234 -169l30 -9
q261 -76 336.5 -176t75.5 -311q0 -246 -138.5 -365t-424.5 -119q-176 0 -322.5 42.5t-247.5 121.5zM596 0h114v-84h19q111 0 170 -49.5t59 -142.5q0 -100 -66 -154.5t-188 -54.5q-60 0 -134 12t-157 35v137q79 -22 150.5 -33.5t120.5 -11.5q43 0 64.5 17.5t21.5 54.5
q0 32 -28.5 47.5t-90.5 15.5q-21 0 -33 -0.5t-22 -1.5v213z" />
    <glyph glyph-name="scedilla" unicode="&#x15f;" horiz-adv-x="1118" 
d="M86 127v293h395v-51q0 -70 19.5 -98.5t62.5 -28.5q38 0 61 23.5t23 62.5q0 86 -221 137v0q-215 49 -283.5 118t-68.5 208q0 173 112 259.5t338 86.5q149 0 277 -37t229 -109v-264h-389v55q0 51 -21.5 79t-60.5 28q-36 0 -61 -24.5t-25 -59.5q0 -74 191 -115h2
q233 -51 309 -123.5t76 -216.5q0 -189 -113 -278.5t-352 -89.5q-146 0 -271.5 36.5t-228.5 108.5zM502 0h114v-84h19q111 0 170 -49.5t59 -142.5q0 -100 -66 -154.5t-188 -54.5q-60 0 -134 12t-157 35v137q79 -22 150.5 -33.5t120.5 -11.5q43 0 64.5 17.5t21.5 54.5
q0 32 -28.5 47.5t-90.5 15.5q-21 0 -33 -0.5t-22 -1.5v213z" />
    <glyph glyph-name="Cacute" unicode="&#x106;" horiz-adv-x="1294" 
d="M1210 1384v-421h-456v116q0 82 -21 116t-69 34q-49 0 -70 -33t-21 -117v-633q0 -83 21 -116t70 -33t69.5 33t20.5 116v191h456v-508q-102 -81 -242 -120.5t-327 -39.5q-298 0 -420.5 121t-122.5 422v496q0 297 121.5 420.5t407.5 123.5q172 0 320 -42.5t263 -125.5z
M692 2034h287l-325 -371h-154z" />
    <glyph glyph-name="cacute" unicode="&#x107;" horiz-adv-x="1128" 
d="M668 748q0 73 -19 102t-63 29t-63 -30t-19 -101v-377q0 -74 18.5 -103.5t63.5 -29.5q43 0 62.5 30t19.5 103v100h385v-346q-88 -73 -210 -108t-284 -35q-259 0 -364 90.5t-105 316.5v340q0 223 104.5 315.5t352.5 92.5q150 0 277.5 -36.5t228.5 -107.5v-299h-385v54z
M600 1618h287l-325 -371h-154z" />
    <glyph glyph-name="Ccaron" unicode="&#x10c;" horiz-adv-x="1294" 
d="M1210 1384v-421h-456v116q0 82 -21 116t-69 34q-49 0 -70 -33t-21 -117v-633q0 -83 21 -116t70 -33t69.5 33t20.5 116v191h456v-508q-102 -81 -242 -120.5t-327 -39.5q-298 0 -420.5 121t-122.5 422v496q0 297 121.5 420.5t407.5 123.5q172 0 320 -42.5t263 -125.5z
M352 2034h154l168 -199l166 199h153l-192 -371h-256z" />
    <glyph glyph-name="ccaron" unicode="&#x10d;" horiz-adv-x="1128" 
d="M668 748q0 73 -19 102t-63 29t-63 -30t-19 -101v-377q0 -74 18.5 -103.5t63.5 -29.5q43 0 62.5 30t19.5 103v100h385v-346q-88 -73 -210 -108t-284 -35q-259 0 -364 90.5t-105 316.5v340q0 223 104.5 315.5t352.5 92.5q150 0 277.5 -36.5t228.5 -107.5v-299h-385v54z
M260 1618h154l168 -199l166 199h153l-192 -371h-256z" />
    <glyph glyph-name="dcroat" unicode="&#x111;" horiz-adv-x="1210" 
d="M506 598v-162q0 -85 21.5 -116t74.5 -31q15 0 30.5 3.5t32.5 10.5l1 430q-20 10 -37 14.5t-33 4.5q-50 0 -70 -28t-20 -126zM90 629q0 239 71 329.5t240 90.5q61 0 128.5 -17t136.5 -49v143h-287v170h287q0 31 -7.5 46t-27.5 28v152h452v-226h127v-170h-127v-755
q0 -57 12.5 -82t43.5 -37v-252h-455v76q-62 -43 -134.5 -64.5t-152.5 -21.5q-165 0 -236 83.5t-71 288.5v267z" />
    <glyph glyph-name="uni00AD" unicode="&#xad;" horiz-adv-x="782" 
d="M90 393v369h602v-369h-602z" />
    <glyph glyph-name="uni2219" unicode="&#x2219;" horiz-adv-x="682" 
d="M137 764q0 83 60 143t143 60q85 0 145 -59.5t60 -143.5t-61 -144.5t-144 -60.5q-82 0 -142.5 61t-60.5 144z" />
    <glyph glyph-name="Euro" horiz-adv-x="1366" 
d="M1257 1384v-288h-456v28q0 52 -22.5 78.5t-67.5 26.5q-49 0 -69.5 -33t-20.5 -117v-84h337l-69 -157h-268v-154h200l-69 -158h-131v-80q0 -83 20.5 -116t69.5 -33q48 0 69 32t21 107v39h456v-346q-102 -81 -242 -120.5t-327 -39.5q-297 0 -419 121t-122 422v14h-137
l70 158h67v154h-172l70 157h102v13q0 298 121 421t406 123q172 0 319.5 -42.5t263.5 -125.5z" />
    <glyph glyph-name="Euro" unicode="&#x20ac;" horiz-adv-x="1366" 
d="M1257 1384v-288h-456v28q0 52 -22.5 78.5t-67.5 26.5q-49 0 -69.5 -33t-20.5 -117v-84h337l-69 -157h-268v-154h200l-69 -158h-131v-80q0 -83 20.5 -116t69.5 -33q48 0 69 32t21 107v39h456v-346q-102 -81 -242 -120.5t-327 -39.5q-297 0 -419 121t-122 422v14h-137
l70 158h67v154h-172l70 157h102v13q0 298 121 421t406 123q172 0 319.5 -42.5t263.5 -125.5z" />
    <glyph glyph-name="brokenbar" horiz-adv-x="979" 
d="M625 645v723h-271v-723h271zM625 -332v721h-271v-721h271z" />
    <glyph glyph-name="minus" horiz-adv-x="745" 
d="M659 375v350h-573v-350h573z" />
    <glyph glyph-name="twosuperior" horiz-adv-x="690" 
d="M631 0v272q-21 11 -31 30.5t-15 41t-6 42t-1 30.5v655q0 10 1 29.5t6 41t15 42t31 30.5v273h-572v-273q21 -10 32 -30.5t16.5 -42t6.5 -41t1 -29.5v-655q0 -10 -1 -30.5t-6.5 -42t-16.5 -41t-32 -30.5v-272h572z" />
    <glyph glyph-name="onehalf" horiz-adv-x="1022" 
d="M926 475l-228 225l228 230l-187 186l-227 -227l-231 229l-187 -186l230 -232l-234 -233l186 -188l236 235l225 -227z" />
    <glyph glyph-name="uni0410" unicode="&#x410;" horiz-adv-x="1262" 
d="M1235 0v260q-31 21 -51.5 59.5t-30.5 90.5l-205 1077h-669l-189 -1063q-10 -62 -24.5 -91.5t-45.5 -60.5v-272h506v260q-41 29 -47 61.5t-6 73.5h229q0 -41 -7 -73.5t-48 -61.5v-260h588zM647 682h-135l70 436z" />
    <glyph glyph-name="uni0411" unicode="&#x411;" horiz-adv-x="1343" 
d="M1249 477q0 133 -40 220t-119.5 136.5t-201.5 69t-286 17.5v247q80 0 121 -21.5t41 -74.5v-53h412v469h-1092v-273q20 -10 31.5 -30.5t16.5 -42t6 -41t1 -29.5v-655q0 -10 -1 -30.5t-6 -42t-16.5 -41t-31.5 -30.5v-272h672q153 0 249.5 37t150.5 100.5t73.5 150.5
t19.5 189zM797 457q0 -97 -46 -129.5t-149 -32.5v321q105 0 150 -36.5t45 -122.5z" />
    <glyph glyph-name="uni0412" unicode="&#x412;" horiz-adv-x="1311" 
d="M1270 463q0 65 -12.5 123.5t-43 104.5t-83 77t-134.5 43q133 23 189.5 98.5t56.5 208.5t-50 207t-133 109.5t-191.5 44t-227.5 8.5h-571v-273q20 -10 31.5 -30.5t16.5 -42t6 -41t1 -29.5v-655q0 -10 -1 -30.5t-6 -42t-16.5 -41t-31.5 -30.5v-272h694q154 0 252 42
t154.5 107.5t78 148.5t21.5 165zM778 1036q0 -45 -11 -71.5t-33.5 -41t-58.5 -18.5t-87 -4v273q45 0 81 -4.5t60.5 -17.5t36.5 -41t12 -75zM780 461q0 -92 -44 -120t-148 -28v314q110 0 151 -40t41 -126z" />
    <glyph glyph-name="uni0413" unicode="&#x413;" horiz-adv-x="1208" 
d="M1161 971v516h-1108v-273q21 -10 32 -30.5t16 -42t6.5 -41t1.5 -29.5v-655q0 -10 -1.5 -30.5t-6.5 -42t-16 -41t-32 -30.5v-272h572v272q-21 11 -31 30.5t-15.5 41t-6.5 42t-1 30.5v758q72 0 112 -28t40 -83v-92h438z" />
    <glyph glyph-name="uni0414" unicode="&#x414;" horiz-adv-x="1294" 
d="M729 381q8 -47 -10.5 -72.5t-42.5 -25.5h-125q-27 0 -38 28.5t-7 75.5l106 731zM481 0h336q21 0 38 -16.5t30.5 -44t21.5 -62.5t8 -72h396v457q-54 23 -87.5 53.5t-43.5 90.5l-197 1081h-672l-192 -1081q-10 -60 -44 -90.5t-87 -53.5v-457h395q0 37 8 72t21.5 62.5t31 44
t37.5 16.5z" />
    <glyph glyph-name="uni0415" unicode="&#x415;" horiz-adv-x="1245" 
d="M1188 0v532h-438v-108q0 -72 -39 -91.5t-125 -19.5v287h303v289h-303v270q30 0 59 -1t52.5 -10t38 -28.5t14.5 -56.5v-92h438v516h-1120v-273q20 -10 31.5 -30.5t16.5 -42t6 -41t1 -29.5v-655q0 -10 -1 -30.5t-6 -42t-16.5 -41t-31.5 -30.5v-272h1120z" />
    <glyph glyph-name="uni0416" unicode="&#x416;" horiz-adv-x="1974" 
d="M1931 0v272q-41 11 -64.5 46.5t-43.5 76.5l-205 412l137 217q41 72 69.5 121t78.5 69v273h-502v-232q0 -51 -12.5 -89t-45.5 -89l-122 -188v182q0 10 1 29.5t6 41t16 42t32 30.5v273h-574v-273q21 -10 32 -30.5t16.5 -42t6.5 -41t1 -29.5v-182l-123 188q-31 51 -43 89
t-12 89v232h-504v-273q51 -20 79.5 -69t67.5 -121l137 -217l-202 -412q-23 -41 -46.5 -76.5t-64.5 -46.5v-272h533v193q0 40 8 83t33 93l137 256v-209q0 -10 -1 -30.5t-6.5 -42t-16.5 -41t-32 -30.5v-272h574v272q-21 11 -32 30.5t-16 41t-6 42t-1 30.5v209l137 -256
q26 -50 34.5 -93t8.5 -83v-193h530z" />
    <glyph glyph-name="uni0417" unicode="&#x417;" horiz-adv-x="1217" 
d="M1165 403q0 54 -5 107t-26.5 103.5t-62.5 94.5t-110 80q61 21 98 49.5t56.5 69.5t26.5 93.5t7 117.5q0 121 -53.5 199t-134 123t-179 62.5t-188.5 17.5q-74 0 -150.5 -13.5t-148.5 -37t-132.5 -54.5t-99.5 -65v-357h435v92q0 48 27.5 78.5t64.5 30.5q55 0 77.5 -43
t22.5 -90q0 -31 -7 -57.5t-27.5 -46t-58.5 -31t-99 -11.5h-115v-292h143q45 4 79 -8.5t56.5 -35t33 -53t10.5 -65.5q0 -74 -28 -121t-87 -47q-37 0 -73 30.5t-36 96.5v127h-434v-408q45 -37 110.5 -67.5t140.5 -54t152.5 -37t149.5 -13.5q184 0 296 43t172 108.5t78.5 141.5
t18.5 143z" />
    <glyph glyph-name="uni0418" unicode="&#x418;" horiz-adv-x="1350" 
d="M1282 0v272q-20 11 -31.5 30.5t-16.5 41t-6 42t-1 30.5v655q0 10 1 29.5t6 41t16.5 42t31.5 30.5v273h-573v-273q20 -10 31.5 -30.5t16.5 -42t6 -41t1 -29.5v-27l-176 -229v256q0 10 1 29.5t6 41t15.5 42t30.5 30.5v273h-571v-273q20 -10 31.5 -30.5t16.5 -42t6 -41
t1 -29.5v-655q0 -10 -1 -30.5t-6 -42t-16.5 -41t-31.5 -30.5v-272h571v272q-20 11 -30.5 30.5t-15.5 41t-6 42t-1 30.5v45l176 221v-266q0 -10 -1 -30.5t-6 -42t-16.5 -41t-31.5 -30.5v-272h573z" />
    <glyph glyph-name="uni0419" unicode="&#x419;" horiz-adv-x="1311" 
d="M1020 1782q0 6 -2 18t-4 25.5t-5 26t-5 16.5l-254 -4q-11 -41 -35.5 -57.5t-50.5 -16.5q-29 0 -50.5 20.5t-21.5 53.5l-242 4q-4 -10 -9 -40t-5 -42q0 -41 27.5 -70.5t73.5 -50t105.5 -31t121.5 -10.5q65 0 129.5 9t114.5 29.5t81 50.5t31 69zM1274 0v272
q-21 11 -32 30.5t-16 41t-6 42t-1 30.5v655q0 10 1 29.5t6 41t16 42t32 30.5v273h-574v-273q21 -10 32 -30.5t16.5 -42t6.5 -41t1 -29.5v-27l-176 -229v256q0 10 1 29.5t6 41t15 42t31 30.5v273h-572v-273q21 -10 32 -30.5t16.5 -42t6.5 -41t1 -29.5v-655q0 -10 -1 -30.5
t-6.5 -42t-16.5 -41t-32 -30.5v-272h572v272q-21 11 -31 30.5t-15 41t-6 42t-1 30.5v45l176 221v-266q0 -10 -1 -30.5t-6.5 -42t-16.5 -41t-32 -30.5v-272h574z" />
    <glyph glyph-name="uni041A" unicode="&#x41a;" horiz-adv-x="1321" 
d="M1296 0v260q-41 10 -64.5 52t-45.5 83l-203 412l135 217q41 72 70 121t80 69v273h-504v-232q0 -51 -12.5 -89t-42.5 -89l-123 -192v186q0 10 1 29.5t6 41t15 42t31 30.5v273h-571v-273q20 -10 31.5 -30.5t16.5 -42t6 -41t1 -29.5v-655q0 -10 -1 -30.5t-6 -42t-16.5 -41
t-31.5 -30.5v-272h571v272q-21 11 -31 30.5t-15 41t-6 42t-1 30.5l2 211l133 -258q22 -54 32.5 -95t10.5 -81v-193h532z" />
    <glyph glyph-name="uni041B" unicode="&#x41b;" horiz-adv-x="1268" 
d="M1233 0v272q-31 31 -51.5 83.5t-30.5 136.5l-203 995h-643l-203 -1049q-10 -53 -24.5 -94t-44.5 -72v-272h518v272q-31 11 -41 34.5t-9 50t6 52t5 42.5l80 573l94 -573q0 -17 5 -42.5t6 -52t-9 -50t-41 -34.5v-272h586z" />
    <glyph glyph-name="uni041C" unicode="&#x41c;" horiz-adv-x="1614" 
d="M1548 0v272q-20 11 -31.5 30.5t-16.5 41t-6 42t-1 30.5v655q0 10 1 29.5t6 41t16.5 42t31.5 30.5v273h-583l-152 -572l-149 572h-601v-258q27 -10 38.5 -25.5t15.5 -35t3 -43t-1 -48.5v-667q0 -25 1 -47.5t-3 -41t-15.5 -30.5t-38.5 -19v-272h478v272q-41 21 -48.5 63
t-7.5 103v340l203 -778h139l203 793v-328q0 -47 1 -79t-2 -53.5t-14 -35.5t-36 -25v-272h569z" />
    <glyph glyph-name="uni041D" unicode="&#x41d;" horiz-adv-x="1352" 
d="M1282 0v272q-20 11 -31.5 30.5t-16.5 41t-6 42t-1 30.5v655q0 10 1 29.5t6 41t16.5 42t31.5 30.5v273h-573v-273q20 -10 31.5 -30.5t16.5 -42t6 -41t1 -29.5v-156h-176v162q0 41 5 81t34 71v258h-557v-273q20 -10 31.5 -30.5t16.5 -42t6 -41t1 -29.5v-655q0 -10 -1 -30.5
t-6 -42t-16.5 -41t-31.5 -30.5v-272h571v272q-20 11 -30.5 30.5t-15.5 41t-6 42t-1 30.5v211h176v-211q0 -10 -1 -30.5t-6 -42t-16.5 -41t-31.5 -30.5v-272h573z" />
    <glyph glyph-name="uni041E" unicode="&#x41e;" horiz-adv-x="1208" 
d="M1153 410v667q0 113 -29.5 196t-94 138t-169 82t-252.5 27q-149 0 -252.5 -27t-169 -82t-95.5 -138t-30 -196v-667q0 -107 30 -190t95.5 -139t169 -85t252.5 -29q148 0 252.5 29t169 85t94 139t29.5 190zM690 438q0 -61 -11 -103t-71 -42q-61 0 -72.5 42t-11.5 103v625
q0 31 1 55.5t9.5 41t26 25.5t47.5 9q62 0 72 -35t10 -96v-625z" />
    <glyph glyph-name="uni041F" unicode="&#x41f;" horiz-adv-x="1364" 
d="M1307 0v272q-21 11 -32 30.5t-16.5 41t-6.5 42t-1 30.5v655q0 10 1 29.5t6.5 41t16.5 42t32 30.5v273h-1244v-273q21 -10 32 -30.5t16.5 -42t6.5 -41t1 -29.5v-655q0 -10 -1 -30.5t-6.5 -42t-16.5 -41t-32 -30.5v-272h572v272q-21 11 -31 30.5t-15 41t-6 42t-1 30.5v747
h206v-747q0 -10 -1 -30.5t-6 -42t-16 -41t-32 -30.5v-272h574z" />
    <glyph glyph-name="uni0420" unicode="&#x420;" horiz-adv-x="1270" 
d="M1241 829v246q0 135 -44 216t-112.5 124t-153.5 56.5t-167 13.5h-696v-273q20 -10 31.5 -30.5t16.5 -42t6 -41t1 -29.5v-653q0 -10 -1 -30.5t-6 -42t-16.5 -41t-31.5 -30.5v-272h571v272q-21 11 -31 30.5t-15 41t-6 42t-1 30.5v14h205q98 0 181 24.5t142.5 74t93 124
t33.5 176.5zM764 858q0 -72 -49 -97.5t-129 -25.5v422q82 0 130 -26.5t48 -106.5v-166z" />
    <glyph glyph-name="uni0421" unicode="&#x421;" horiz-adv-x="1202" 
d="M1147 154v475h-463v-189q0 -65 -10 -106t-72 -41q-61 0 -72.5 42t-11.5 103v625q0 31 1 55.5t9.5 41t25.5 25.5t48 9q57 0 69.5 -35t12.5 -98v-123h463v424q-66 39 -124 68.5t-119.5 50t-134.5 30t-167 9.5q-149 0 -252.5 -27t-169 -82t-95.5 -138t-30 -196v-667
q0 -107 30 -190t95.5 -139t169 -85t252.5 -29q86 0 173 13.5t161 38t130 59.5t81 76z" />
    <glyph glyph-name="uni0422" unicode="&#x422;" horiz-adv-x="1358" 
d="M1319 819v668h-1282v-668h340v258q0 21 9 46.5t60 35.5v-743q0 -10 -1 -30.5t-6 -42t-16 -41t-32 -30.5v-272h574v272q-21 11 -32 30.5t-16.5 41t-6.5 42t-1 30.5v743q52 -10 61 -35.5t9 -46.5v-258h340z" />
    <glyph glyph-name="uni0423" unicode="&#x423;" horiz-adv-x="1225" 
d="M553 1110q-6 18 -8 41t0 43t9 34.5t24 16.5v240h-558v-240q17 -10 31.5 -20.5t28.5 -20.5q22 -18 35 -51l301 -754l5 -9t3 -17q-6 -39 -46 -54.5t-142 -15.5v-274l22.5 -6.5t53 -12.5l61 -12t47.5 -6q88 0 166 22q69 21 118.5 73t82 107.5t49 103.5t20.5 64l240 756
q32 105 102 123v244h-545v-238q33 -4 49.5 -38.5t2.5 -98.5l-64 -276z" />
    <glyph glyph-name="uni0424" unicode="&#x424;" horiz-adv-x="1815" 
d="M672 614v279q-82 0 -130 -26.5t-48 -108.5v-23q0 -71 49 -96t129 -25zM1315 735v23q0 82 -48 108.5t-132 26.5v-279q82 0 131 25t49 96zM1190 1212q-41 -22 -48 -52t-7 -70l19 19t65.5 43t121.5 40q84 16 160 -6.5t134.5 -75.5t95 -135t41.5 -182v-107q0 -102 -35 -181
t-94.5 -131t-137.5 -75t-164 -12q-61 8 -110 33.5t-71.5 45t-24.5 23.5q0 -35 7 -64.5t48 -52.5v-272h-574v272q41 23 48.5 52.5t7.5 64.5q-2 -4 -24.5 -23.5t-71 -45t-109.5 -33.5q-86 -11 -164 12t-137.5 75t-94 131t-34.5 181v107q4 100 40 182t94 135t134 75.5t162 6.5
q72 -14 120 -40t65.5 -43t19.5 -19q0 40 -7.5 70t-48.5 52v273h574v-273z" />
    <glyph glyph-name="uni0425" unicode="&#x425;" horiz-adv-x="1243" 
d="M1212 0v272q-22 21 -41.5 50.5t-40.5 58.5l-219 412l219 340q11 24 34.5 46.5t47.5 34.5v273h-479v-162q0 -53 -18.5 -97t-48.5 -95q-33 51 -49.5 101t-16.5 91v162h-547v-273q15 -2 29 -16t27.5 -33.5t25.5 -40t23 -37.5l194 -294l-221 -394q-14 -32 -39.5 -66
t-66.5 -63v-270h464v178q0 62 20.5 118t61.5 128q80 -127 80 -246v-178h561z" />
    <glyph glyph-name="uni0426" unicode="&#x426;" horiz-adv-x="1364" 
d="M1307 1214v273h-574v-273q21 -10 32 -30.5t16 -42t6 -41t1 -29.5v-743h-206v743q0 10 1 29.5t6 41t15 42t31 30.5v273h-572v-273q21 -10 32 -30.5t16.5 -42t6.5 -41t1 -29.5v-655q0 -10 -1 -30.5t-6.5 -42t-16.5 -41t-32 -30.5v-272h807q37 0 56.5 -16.5t29 -44
t11.5 -62.5t2 -72h395v457q-53 23 -83 51.5t-30 92.5v665q0 10 1 29.5t6.5 41t16.5 42t32 30.5z" />
    <glyph glyph-name="uni0427" unicode="&#x427;" horiz-adv-x="1337" 
d="M1264 0v272q-21 11 -32 30.5t-16.5 41t-6.5 42t-1 30.5v655q0 10 1 29.5t6.5 41t16.5 42t32 30.5v273h-574v-273q21 -10 32 -30.5t16 -42t6 -41t1 -29.5v-156q0 -53 -14 -81.5t-65 -28.5q-43 0 -61.5 31.5t-24 75.5t-2 90.5t3.5 72.5q0 41 5 74t36 65v273h-555v-273
q41 -32 47 -71t6 -82v-184q4 -86 38 -156t87 -119t122.5 -75.5t145.5 -26.5q59 0 117.5 16t113.5 51v-151q0 -10 -1 -30.5t-6 -42t-16 -41t-32 -30.5v-272h574z" />
    <glyph glyph-name="uni0428" unicode="&#x428;" horiz-adv-x="2054" 
d="M1997 0v272q-21 11 -32 30.5t-16 41t-6 42t-1 30.5v655q0 10 1 29.5t6 41t16 42t32 30.5v273h-572v-273q21 -10 31 -30.5t15.5 -42t6.5 -41t1 -29.5v-743h-207v743q0 10 1 29.5t6 41t16.5 42t31.5 30.5v273h-573v-273q20 -10 31.5 -30.5t16.5 -42t6 -41t1 -29.5v-743
h-207v743q0 10 1 29.5t6 41t15.5 42t30.5 30.5v273h-571v-273q20 -10 31.5 -30.5t16.5 -42t6 -41t1 -29.5v-655q0 -10 -1 -30.5t-6 -42t-16.5 -41t-31.5 -30.5v-272h1913z" />
    <glyph glyph-name="uni0429" unicode="&#x429;" horiz-adv-x="2054" 
d="M1942 401v670q0 10 1 29.5t6 41t16 42t32 30.5v273h-572v-273q21 -10 31 -30.5t15.5 -42t6.5 -41t1 -29.5v-743h-207v743q0 10 1 29.5t6 41t16.5 42t31.5 30.5v273h-573v-273q20 -10 31.5 -30.5t16.5 -42t6 -41t1 -29.5v-743h-207v743q0 10 1 29.5t6 41t15.5 42
t30.5 30.5v273h-571v-273q20 -10 31.5 -30.5t16.5 -42t6 -41t1 -29.5v-655q0 -10 -1 -30.5t-6 -42t-16.5 -41t-31.5 -30.5v-272h1475q28 0 47.5 -16.5t31 -44t16.5 -62.5t5 -72h395v453q-53 23 -82.5 51.5t-29.5 91.5z" />
    <glyph glyph-name="uni042A" unicode="&#x42a;" horiz-adv-x="1438" 
d="M1366 410v245q0 205 -120 302.5t-316 97.5h-207v14q0 10 1 29.5t6 41t16.5 42t31.5 30.5v273h-749v-273q104 0 167.5 -42t63.5 -101v-653q0 -10 -1 -30.5t-6 -42t-16.5 -41t-31.5 -30.5v-272h698q82 0 164 13.5t148.5 56.5t108.5 123.5t42 216.5zM903 463
q0 -82 -48 -108.5t-132 -26.5v422q82 0 131 -26t49 -97v-164z" />
    <glyph glyph-name="uni042B" unicode="&#x42b;" horiz-adv-x="2017" 
d="M1929 0v272q-20 11 -31.5 30.5t-16.5 41t-6 42t-1 30.5v655q0 10 1 29.5t6 41t16.5 42t31.5 30.5v273h-571v-273q20 -10 31.5 -30.5t16.5 -42t6 -41t1 -29.5v-655q0 -10 -1 -30.5t-6 -42t-16.5 -41t-31.5 -30.5v-272h571zM1251 410v245q0 205 -119.5 302.5t-316.5 97.5
h-205v14q0 10 1 29.5t6.5 41t15.5 42t31 30.5v273h-572v-273q21 -10 32 -30.5t16 -42t6 -41t1 -29.5v-653q0 -10 -1 -30.5t-6 -42t-16 -41t-32 -30.5v-272h696q82 0 165 13.5t148.5 56.5t107.5 123.5t42 216.5zM788 463q0 -82 -48 -108.5t-130 -26.5v422q80 0 129 -26
t49 -97v-164z" />
    <glyph glyph-name="uni042C" unicode="&#x42c;" horiz-adv-x="1284" 
d="M1210 410v245q0 205 -119.5 302.5t-316.5 97.5h-205v14q0 10 1 29.5t6.5 41t15.5 42t31 30.5v273h-572v-273q21 -10 32 -30.5t16 -42t6 -41t1 -29.5v-653q0 -10 -1 -30.5t-6 -42t-16 -41t-32 -30.5v-272h697q81 0 164 13.5t148.5 56.5t107.5 123.5t42 216.5zM748 463
q0 -82 -48.5 -108.5t-130.5 -26.5v422q80 0 129.5 -26t49.5 -97v-164z" />
    <glyph glyph-name="uni042D" unicode="&#x42d;" horiz-adv-x="1241" 
d="M1176 410v667q0 113 -30 196t-95.5 138t-170 82t-251.5 27q-92 0 -161 -8.5t-129 -28t-120.5 -49t-134.5 -72.5v-361h463v91q0 49 17.5 75.5t64.5 26.5q49 0 66.5 -23.5t17.5 -87.5v-204h-289v-250h289v-215q0 -56 -15.5 -88.5t-68.5 -32.5q-47 0 -64.5 26.5t-17.5 86.5
v112h-463v-364q25 -39 81 -73t130 -59.5t160 -40t174 -14.5q147 0 251.5 29t170 85t95.5 139t30 190z" />
    <glyph glyph-name="uni042E" unicode="&#x42e;" horiz-adv-x="1901" 
d="M1833 410v667q0 113 -29.5 196t-95.5 138t-170 82t-252 27q-147 0 -251.5 -27t-170 -82t-95.5 -138t-30 -196v-162h-164v156q0 10 1.5 29.5t6.5 41t15 42t31 30.5v273h-572v-273q21 -10 32 -30.5t16.5 -42t6.5 -41t1 -29.5v-655q0 -10 -1 -30.5t-6.5 -42t-16.5 -41
t-32 -30.5v-272h572v272q-21 11 -31 30.5t-15 41t-6.5 42t-1.5 30.5v215h164v-221q0 -107 30 -190t95.5 -139t169 -85t252.5 -29q148 0 252 29t170 85t95.5 139t29.5 190zM1370 438q0 -61 -11 -103t-73 -42q-61 0 -72.5 42t-11.5 103v625q0 31 1 55.5t9.5 41t25.5 25.5t48 9
t48.5 -9t25.5 -25.5t9 -41t1 -55.5v-625z" />
    <glyph glyph-name="uni042F" unicode="&#x42f;" horiz-adv-x="1309" 
d="M1235 0v272q-21 11 -32 30.5t-16 41t-6 42t-1 30.5v655q0 10 1 29.5t6 41t16 42t32 30.5v273h-682q-102 0 -187 -17.5t-147.5 -61.5t-97.5 -120t-35 -192q0 -92 15.5 -153.5t43 -102.5t66.5 -64.5t84 -38.5q-62 -10 -98.5 -32.5t-57 -53t-28 -67.5t-7.5 -78v-111
q0 -41 -6 -77.5t-47 -57.5v-260h488q10 31 16 74t9 88t3 86v65v138q0 41 14.5 66.5t36 38.5t48 20.5t51.5 11.5v-172q0 -10 -1 -30.5t-6 -42t-16.5 -41t-31.5 -30.5v-272h573zM717 874q-37 0 -69 4.5t-53.5 19.5t-33.5 45t-12 81t10 81t30.5 45t52.5 19.5t75 4.5v-300z" />
    <glyph glyph-name="uni0430" unicode="&#x430;" horiz-adv-x="1112" 
d="M1087 0v260q-32 21 -41.5 51.5t-9.5 71.5v410q0 92 -41 154.5t-105.5 100t-144 55t-155.5 17.5q-125 0 -260 -27.5t-248 -109.5v-274h383q0 65 16.5 110t59.5 45q26 0 41.5 -15t22.5 -39t8 -51.5t1 -49.5l-301 -95q-45 -10 -95 -33.5t-92 -61.5t-69.5 -93t-27.5 -127
q0 -92 27.5 -153.5t73.5 -100.5t105.5 -55.5t120.5 -16.5q62 0 105 11.5t74.5 29t56 36t49.5 32.5v-82h446zM614 328q-8 -17 -34.5 -33t-55 -21.5t-51 8t-22.5 60.5q0 31 25.5 51.5t56 33.5t56 18.5l25.5 5.5v-123z" />
    <glyph glyph-name="uni0431" unicode="&#x431;" horiz-adv-x="1096" 
d="M1042 340v389q0 203 -115.5 285t-353.5 82q-79 0 -132.5 -15.5t-88.5 -58.5q0 33 4 65.5t27 57t69 40t130 15.5q106 0 185 11.5t130 43t77.5 88t31.5 144.5h-353q-10 -29 -41.5 -36t-115.5 -7q-136 0 -225 -48t-141 -137.5t-72.5 -214t-20.5 -280.5v-424
q0 -102 28.5 -173t90 -114t157 -62.5t228.5 -19.5t228 19.5t155.5 63.5t89 114t28.5 172zM621 340q0 -59 -25 -84t-55 -25q-31 0 -56.5 25t-25.5 82v391q0 57 25.5 82t56.5 25q30 0 55 -26t25 -85v-385z" />
    <glyph glyph-name="uni0432" unicode="&#x432;" horiz-adv-x="1221" 
d="M1159 299q0 53 -11 99t-40 82t-77 59.5t-122 31.5q117 13 170.5 81.5t53.5 172.5q0 93 -45.5 146t-121 79.5t-173 34t-203.5 7.5h-520v-261q32 -20 41.5 -50.5t9.5 -71.5v-326q0 -41 -9.5 -71.5t-41.5 -51.5v-260h620q139 0 229.5 21.5t143.5 61.5t74.5 95t21.5 121z
M715 764q0 -45 -23.5 -71.5t-75.5 -26.5h-75v198h75q52 0 75.5 -26.5t23.5 -73.5zM719 346q0 -119 -105 -119h-73v232h73q45 0 75 -28t30 -85z" />
    <glyph glyph-name="uni0433" unicode="&#x433;" horiz-adv-x="1081" 
d="M1036 674v418h-977v-261q33 -20 42.5 -50.5t9.5 -71.5v-326q0 -41 -9.5 -71.5t-42.5 -51.5v-260h525v260q-33 21 -42.5 51.5t-9.5 71.5v448q60 0 87.5 -22.5t27.5 -81.5v-53h389z" />
    <glyph glyph-name="uni0434" unicode="&#x434;" horiz-adv-x="1147" 
d="M461 317q2 7 9 44.5t17.5 91t21.5 114t21.5 111.5t18.5 87t10 40q16 24 30.5 25t26.5 1v-520q0 -30 -16 -41q-10 -10 -41 -10h-53q-25 0 -37 16q-14 21 -8 41zM1145 256q-35 2 -56.5 11t-33 22.5t-14.5 29t-3 29.5v397q0 23 7.5 38.5t17.5 24.5t20.5 14t16.5 7v261h-953
v-261q3 -2 14 -8t22.5 -18t18.5 -31.5t3 -50.5q-6 -37 -15.5 -87t-18.5 -95t-15 -77l-6 -32q-13 -65 -33.5 -100t-42 -51.5t-40 -19.5t-26.5 -3h-16v-475h334v119q0 39 21.5 71.5t60.5 32.5h301q41 0 61.5 -37t20.5 -78v-108h354v475z" />
    <glyph glyph-name="uni0435" unicode="&#x435;" horiz-adv-x="1067" 
d="M1022 141v267h-389v-68q0 -59 -19.5 -84t-60.5 -25q-35 0 -58.5 25t-23.5 84v125h551v377q0 76 -39 129t-104.5 87t-150.5 48t-177 14q-113 0 -205 -13t-158.5 -53t-102.5 -113t-36 -191v-408q0 -98 23.5 -168t82 -115t156 -66.5t242.5 -21.5q123 0 204 18.5t133 45
t83 56.5t49 50zM633 682h-162v27q0 79 15.5 115t66.5 36t65.5 -42t14.5 -136z" />
    <glyph glyph-name="uni0436" unicode="&#x436;" horiz-adv-x="1698" 
d="M1661 0v260q-23 10 -45.5 30.5t-36.5 51.5l-137 285l108 151q17 23 40.5 47.5t56.5 34.5v232h-422v-68q0 -51 -38 -100.5t-130 -130.5v299h-422v-299q-90 81 -128 130.5t-38 100.5v68h-422v-232q33 -10 56.5 -34.5t39.5 -47.5l107 -151l-135 -285q-15 -31 -37.5 -51.5
t-44.5 -30.5v-260h383l219 479v-96q0 -41 -9.5 -71.5t-39.5 -51.5v-260h522v260q-33 21 -42 51.5t-9 71.5v96l221 -479h383z" />
    <glyph glyph-name="uni0437" unicode="&#x437;" horiz-adv-x="1075" 
d="M1036 297q0 39 -4 78t-22.5 75.5t-54 69.5t-99.5 60q53 14 87 34.5t52.5 50t24.5 67.5t6 87q0 94 -48 152.5t-122 91.5t-163 45t-173 12q-65 0 -134 -10t-133.5 -27.5t-119.5 -41t-92 -50.5v-264h399v78q0 33 22.5 52.5t57.5 19.5q41 0 64.5 -21.5t23.5 -62.5
q0 -29 -6 -51.5t-24.5 -38t-51 -23.5t-86.5 -8h-110v-203h131q90 0 131 -30.5t41 -104.5q0 -55 -26.5 -82t-71.5 -29q-48 0 -71.5 18.5t-23.5 67.5v90h-399v-297q43 -28 101.5 -51.5t124 -41t134 -28t134.5 -10.5q165 0 264.5 34t152 83t68.5 105.5t16 103.5z" />
    <glyph glyph-name="uni0438" unicode="&#x438;" horiz-adv-x="1212" 
d="M1161 0v260q-33 21 -42 51.5t-9 71.5v342q0 76 51 106v261h-524v-261q31 -20 41 -37.5t10 -33.5l-164 -164v113q0 41 9.5 71.5t41.5 50.5v261h-524v-261q33 -20 42 -50.5t9 -71.5v-314q0 -41 -5 -77.5t-40 -57.5v-260h525v260q-31 21 -44.5 34t-13.5 46l164 168v-125
q0 -41 -9 -71.5t-42 -51.5v-260h524z" />
    <glyph glyph-name="uni0439" unicode="&#x439;" horiz-adv-x="1212" 
d="M954 1358q0 4 -2 15t-4 24.5t-5 25t-5 15.5l-252 -4q-10 -37 -34.5 -55.5t-47.5 -18.5q-29 0 -55.5 19.5t-26.5 54.5l-237 4q-6 -11 -12.5 -38.5t-6.5 -43.5q0 -41 30 -72t77 -50.5t108.5 -29.5t124.5 -10q64 0 126.5 10t111.5 31.5t79.5 51.5t30.5 71zM1161 0v260
q-33 21 -42 51.5t-9 71.5v342q0 76 51 106v261h-524v-261q31 -20 41 -37.5t10 -33.5l-164 -164v113q0 41 9.5 71.5t41.5 50.5v261h-524v-261q33 -20 42 -50.5t9 -71.5v-314q0 -41 -5 -77.5t-40 -57.5v-260h525v260q-31 21 -44.5 34t-13.5 46l164 168v-125q0 -41 -9 -71.5
t-42 -51.5v-260h524z" />
    <glyph glyph-name="uni043A" unicode="&#x43a;" horiz-adv-x="1133" 
d="M1104 0v260q-21 10 -46.5 29.5t-33.5 52.5l-137 285l110 151q21 23 41.5 47.5t53.5 34.5v232h-465v-68q0 -25 -2 -49.5t-13.5 -51t-37 -58t-70.5 -72.5v299h-473v-261q32 -20 41.5 -50.5t9.5 -71.5v-326q0 -41 -9.5 -71.5t-41.5 -51.5v-260h524v260q-33 21 -42 51.5
t-9 71.5v96l219 -479h381z" />
    <glyph glyph-name="uni043B" unicode="&#x43b;" horiz-adv-x="1128" 
d="M137 430q-12 -65 -26.5 -98t-27.5 -48.5t-25.5 -17.5t-20.5 -4v-262q121 0 194.5 9t118.5 46t69.5 112t49.5 206q0 4 7 44t17.5 103.5t21.5 125t20.5 108.5t11.5 51q16 24 30.5 25t28.5 1v-450q0 -41 -9 -71.5t-42 -51.5v-260h522v260q-33 21 -42 51.5t-9 71.5v364
q0 23 7 38.5t17.5 24.5t20.5 14t16 7v261h-952v-261q2 -2 13.5 -8t22.5 -18t19.5 -31.5t4.5 -50.5q-7 -37 -17 -87l-19 -95t-15.5 -77z" />
    <glyph glyph-name="uni043C" unicode="&#x43c;" horiz-adv-x="1425" 
d="M1358 0v262q-35 17 -41 42.5t-6 78.5v301q0 41 1 67.5t5 43t13 26.5t28 21v250h-496l-149 -428l-135 428h-521v-250q41 -17 42 -44.5t1 -66.5v-371q0 -34 -1 -62t-44 -36v-262h418v262q-35 17 -40 46.5t-5 74.5v182l182 -565h113l184 575v-204q0 -39 -2 -65.5t-43 -43.5
v-262h496z" />
    <glyph glyph-name="uni043D" unicode="&#x43d;" horiz-adv-x="1214" 
d="M1161 0v260q-33 21 -42 51.5t-9 71.5v326q0 41 9 71.5t42 50.5v261h-524v-261q33 -20 42 -50.5t9 -71.5v-31h-164v31q0 41 9.5 71.5t41.5 50.5v261h-524v-261q33 -20 42 -50.5t9 -71.5v-326q0 -41 -9 -71.5t-42 -51.5v-260h524v260q-32 21 -41.5 51.5t-9.5 71.5v53h164
v-53q0 -41 -9 -71.5t-42 -51.5v-260h524z" />
    <glyph glyph-name="uni043E" unicode="&#x43e;" horiz-adv-x="1094" 
d="M1047 340v414q0 100 -29 170.5t-89.5 113.5t-155.5 62.5t-228 19.5q-139 0 -234.5 -19.5t-156 -62.5t-87 -113.5t-26.5 -170.5v-414q0 -102 26.5 -172t87 -114t156 -63.5t234.5 -19.5q133 0 228 19.5t155.5 63.5t89.5 114t29 172zM625 340q0 -59 -25 -84t-55 -25
q-31 0 -56.5 25t-25.5 82v416q0 57 25.5 81.5t56.5 24.5q30 0 55 -25.5t25 -84.5v-410z" />
    <glyph glyph-name="uni043F" unicode="&#x43f;" horiz-adv-x="1214" 
d="M1161 0v260q-33 21 -42 51.5t-9 71.5v326q0 41 9 71.5t42 50.5v261h-1110v-261q33 -20 42 -50.5t9 -71.5v-326q0 -41 -9 -71.5t-42 -51.5v-260h524v260q-32 21 -41.5 51.5t-9.5 71.5v448h164v-448q0 -41 -9 -71.5t-42 -51.5v-260h524z" />
    <glyph glyph-name="uni0440" unicode="&#x440;" horiz-adv-x="1133" 
d="M1092 319v490q0 147 -84 229t-230 82q-92 0 -156.5 -27.5t-117.5 -58.5v58h-473v-261q32 -20 41.5 -50.5t9.5 -71.5v-709q0 -41 -9.5 -71.5t-41.5 -51.5v-260h524v260q-33 21 -42 51.5t-9 71.5v55q49 -39 114.5 -61.5t129.5 -22.5q178 0 261 91.5t83 256.5zM670 410
q0 -68 -22.5 -97.5t-63.5 -29.5q-31 0 -80 16v494q45 22 86 22q35 0 57.5 -26.5t22.5 -92.5v-286z" />
    <glyph glyph-name="uni0441" unicode="&#x441;" horiz-adv-x="1094" 
d="M1038 141v324h-387v-105q0 -63 -16.5 -96t-63.5 -33t-64.5 33t-17.5 96v373q0 58 17.5 92.5t64.5 34.5q43 0 61.5 -34.5t18.5 -75.5v-68h387v272q-34 41 -77 72t-98.5 52.5t-127 31.5t-164.5 10q-141 0 -237 -19.5t-155.5 -64.5t-85 -115.5t-25.5 -170.5v-408
q0 -117 34.5 -189.5t99 -112.5t158 -54.5t211.5 -14.5q99 0 166.5 9.5t119.5 30t94 52t87 78.5z" />
    <glyph glyph-name="uni0442" unicode="&#x442;" horiz-adv-x="1161" 
d="M1180 678v414h-1196v-414h268v53q0 29 12 48.5t30.5 30.5t39 16t37.5 5v-448q0 -41 -9.5 -71.5t-42.5 -51.5v-260h525v260q-33 21 -42 51.5t-9 71.5v448q16 0 36.5 -5t39 -16t30.5 -30.5t12 -48.5v-53h269z" />
    <glyph glyph-name="uni0443" unicode="&#x443;" horiz-adv-x="1133" 
d="M1104 831v261h-463v-261q31 -6 39 -22t4 -40t-14.5 -53.5t-16.5 -60.5l-39 -174l-53 174q-6 31 -16 60.5t-14.5 53.5t4 40t38.5 22v261h-544v-261q24 -16 41.5 -36.5t32 -52t28.5 -75.5t35 -104l203 -575q-11 -41 -46.5 -75t-117.5 -34v-246q35 -18 88 -27t113 -9
q88 0 149 25.5t106.5 71.5t76 111.5t55.5 143.5l219 680q18 61 34.5 116.5t57.5 85.5z" />
    <glyph glyph-name="uni0444" unicode="&#x444;" horiz-adv-x="1663" 
d="M1612 358v459q0 76 -23.5 132.5t-63.5 94t-93.5 57t-110.5 19.5q-74 0 -149.5 -23.5t-135.5 -56.5v445h-471v-260q33 -21 41 -51.5t8 -71.5v-62q-59 33 -133.5 56.5t-148.5 23.5q-58 0 -111 -19.5t-93 -57t-63.5 -94t-23.5 -132.5v-459q0 -79 18.5 -150t58.5 -123
t102.5 -83t148.5 -31q65 0 131.5 22.5t113.5 63.5v-77q0 -35 -10 -64t-39 -47v-260h522v260q-30 18 -40.5 47t-10.5 68v73q49 -41 116 -63.5t132 -22.5q86 0 147.5 31t101.5 83t59.5 123t19.5 150zM1202 412q0 -68 -21.5 -96.5t-68.5 -28.5q-16 0 -34.5 4t-41.5 10v496
q47 20 84 20q35 0 58.5 -24.5t23.5 -90.5v-290zM614 299q-20 -6 -38.5 -10t-34.5 -4q-47 0 -68.5 28.5t-21.5 96.5v290q0 66 23.5 90.5t57.5 24.5q37 0 82 -20v-496z" />
    <glyph glyph-name="uni0445" unicode="&#x445;" horiz-adv-x="1073" 
d="M1049 0v260q-31 10 -53.5 31.5t-55.5 64.5l-149 205l137 162q24 29 58 58.5t63 49.5v261h-424v-80q0 -41 -8.5 -91.5t-57.5 -103.5q-41 53 -48 103.5t-7 91.5v80h-477v-261q41 -10 84 -43.5t94 -105.5l94 -121l-123 -166q-51 -61 -85 -93t-64 -42v-260h395v68
q0 41 3 70.5t11 54t21.5 46t34.5 48.5q51 -54 66 -99t15 -106v-82h476z" />
    <glyph glyph-name="uni0446" unicode="&#x446;" horiz-adv-x="1214" 
d="M1217 256q-35 2 -56.5 15.5t-33 33t-14.5 44t-3 46.5v314q0 41 9 71.5t42 50.5v261h-524v-261q33 -20 42 -50.5t9 -71.5v-449h-164v449q0 41 9.5 71.5t41.5 50.5v261h-524v-261q33 -20 42 -50.5t9 -71.5v-326q0 -41 -9 -71.5t-42 -51.5v-260h729q41 0 61.5 -35t20.5 -76
v-108h355v475z" />
    <glyph glyph-name="uni0447" unicode="&#x447;" horiz-adv-x="1214" 
d="M1159 0v260q-33 21 -42 51.5t-9 71.5v326q0 41 9 71.5t42 50.5v261h-524v-261q33 -20 42 -50.5t9 -71.5v-76q-33 -29 -96 -29q-35 0 -52.5 23.5t-17.5 81.5q0 41 9.5 71.5t41.5 50.5v261h-524v-261q33 -20 42 -50.5t9 -71.5v-43q0 -174 79 -254t233 -80q55 0 101 12
t81 29.5t59.5 35t34.5 27.5v-53q0 -41 -9 -71.5t-42 -51.5v-260h524z" />
    <glyph glyph-name="uni0448" unicode="&#x448;" horiz-adv-x="1831" 
d="M1767 0v260q-32 21 -41.5 51.5t-9.5 71.5v326q0 41 9.5 71.5t41.5 50.5v261h-524v-261q33 -20 42 -50.5t9 -71.5v-449h-170v449q0 41 9.5 71.5t42.5 50.5v261h-525v-261q33 -20 42 -50.5t9 -71.5v-451l-167 2v449q0 41 9 71.5t42 50.5v261h-525v-261q33 -20 42.5 -50.5
t9.5 -71.5v-326q0 -41 -9.5 -71.5t-42.5 -51.5v-260h1706z" />
    <glyph glyph-name="uni0449" unicode="&#x449;" horiz-adv-x="1831" 
d="M61 0h1325q41 0 60.5 -35t19.5 -76v-108h357v475q-35 2 -56.5 15.5t-33 33t-14.5 44t-3 46.5v314q0 41 9.5 71.5t41.5 50.5v261h-524v-261q33 -20 42 -50.5t9 -71.5v-449h-170v449q0 41 9.5 71.5t42.5 50.5v261h-525v-261q33 -20 42 -50.5t9 -71.5v-451l-167 2v449
q0 41 9 71.5t42 50.5v261h-525v-261q33 -20 42.5 -50.5t9.5 -71.5v-326q0 -41 -9.5 -71.5t-42.5 -51.5v-260z" />
    <glyph glyph-name="uni044A" unicode="&#x44a;" horiz-adv-x="1202" 
d="M1149 303v96q0 152 -108.5 231t-311.5 79h-133v383h-610v-261q61 0 98 -7t57.5 -22.5t26.5 -38t6 -54.5v-326q0 -41 -9 -71.5t-42 -51.5v-260h608q74 0 147.5 16.5t134 53t98.5 94t38 139.5zM745 356q0 -49 -28.5 -80.5t-79.5 -31.5h-41v221h41q51 0 79.5 -34t28.5 -75z
" />
    <glyph glyph-name="uni044B" unicode="&#x44b;" horiz-adv-x="1796" 
d="M1731 0v260q-33 21 -42.5 51.5t-9.5 71.5v326q0 41 9.5 71.5t42.5 50.5v261h-525v-261q33 -20 42 -50.5t9 -71.5v-326q0 -41 -9 -71.5t-42 -51.5v-260h525zM1085 303v96q0 152 -108.5 231t-310.5 79h-134q0 41 9.5 71.5t42.5 50.5v261h-525v-261q33 -20 42.5 -50.5
t9.5 -71.5v-326q0 -41 -9.5 -71.5t-42.5 -51.5v-260h609q73 0 147 16.5t134.5 53t98 94t37.5 139.5zM682 356q0 -49 -28.5 -80.5t-78.5 -31.5h-43v221h43q50 0 78.5 -34t28.5 -75z" />
    <glyph glyph-name="uni044C" unicode="&#x44c;" horiz-adv-x="1149" 
d="M1098 303v96q0 152 -108.5 231t-311.5 79h-133q0 41 9 71.5t42 50.5v261h-524v-261q32 -20 41.5 -50.5t9.5 -71.5v-326q0 -41 -9.5 -71.5t-41.5 -51.5v-260h608q74 0 147.5 16.5t134 53t98.5 94t38 139.5zM694 356q0 -49 -28.5 -80.5t-77.5 -31.5h-43v221h43
q49 0 77.5 -34t28.5 -75z" />
    <glyph glyph-name="uni044D" unicode="&#x44d;" horiz-adv-x="1044" 
d="M1008 342v422q0 98 -28 165.5t-89.5 109.5t-156.5 61.5t-230 19.5q-86 0 -154.5 -9t-124 -28.5t-101.5 -51.5t-89 -77v-213h387v21q0 33 19.5 65.5t62.5 32.5q47 0 64.5 -34.5t17.5 -75.5v-99h-258v-184h258v-125q0 -49 -20.5 -80t-61.5 -31q-47 0 -64.5 32t-17.5 81v41
h-387v-244q39 -37 75.5 -68.5t88 -54t123 -35t182.5 -12.5q117 0 211 14.5t158.5 54.5t99.5 112.5t35 189.5z" />
    <glyph glyph-name="uni044E" unicode="&#x44e;" horiz-adv-x="1708" 
d="M1667 340v414q0 100 -28.5 170.5t-90 113.5t-157 62.5t-228.5 19.5q-143 0 -239.5 -20.5t-154.5 -65.5t-84 -114.5t-26 -169.5v-74h-141v33q0 41 9.5 71.5t41.5 50.5v261h-524v-261q33 -20 42 -50.5t9 -71.5v-326q0 -41 -9 -71.5t-42 -51.5v-260h524v260
q-32 21 -41.5 51.5t-9.5 71.5v51h141v-94q0 -102 28 -172t87.5 -114t155.5 -63.5t233 -19.5q133 0 228.5 19.5t157 63.5t90 114t28.5 172zM1245 340q0 -59 -25.5 -84t-56.5 -25q-30 0 -56 25t-26 82v416q0 57 26 81.5t56 24.5q31 0 56.5 -25.5t25.5 -84.5v-410z" />
    <glyph glyph-name="uni044F" unicode="&#x44f;" horiz-adv-x="1159" 
d="M1104 0v260q-33 21 -42 51.5t-9 71.5v326q0 41 9 71.5t42 50.5v261h-598q-43 0 -113.5 -6.5t-138.5 -34t-118 -85t-50 -161.5q0 -94 17.5 -150.5t48 -88t70.5 -45t85 -21.5q-37 -4 -60.5 -15.5t-40 -30t-29.5 -43t-32 -51.5q-22 -34 -37.5 -57.5t-50.5 -40.5v-262h189
q30 0 67 6t74 29q27 14 46.5 41.5t37.5 67.5t41 93.5t55 122.5q8 19 27.5 39.5t36.5 20.5v-37q0 -41 -9.5 -71.5t-39.5 -51.5v-260h522zM631 649q-25 0 -51.5 3t-48 13.5t-36 28t-14.5 47.5q0 54 40 72t110 18v-182z" />
    <glyph glyph-name="uni0490" unicode="&#x490;" horiz-adv-x="1262" 
d="M1229 479v162h-328l27 55h301v164h-219l108 203q23 41 43.5 81t52.5 70v273h-464v-205q0 -82 -20.5 -139.5t-61.5 -118.5q-31 61 -55.5 129t-24.5 129v205h-533v-273q31 -20 54.5 -63t56.5 -115l82 -176h-207v-164h270l31 -55h-301v-162h356v-63q0 -10 -1 -30.5t-6 -42
t-16.5 -41t-31.5 -30.5v-272h573v272q-20 11 -31.5 30.5t-16.5 41t-6 42t-1 30.5v63h369z" />
    <glyph glyph-name="uni0408" unicode="&#x408;" horiz-adv-x="1305" 
d="M1204 0v489h-413v-20q0 -88 -30 -123t-116 -35h-31v256h287v283h-287v170q0 78 18.5 117t72.5 39q53 0 69.5 -42t16.5 -114v-90h413v393q-131 80 -271 120t-286 40q-153 0 -259.5 -51.5t-164.5 -143.5q-37 -71 -44 -143t-7 -152v-143h-63v-283h63v-157q0 -64 -13.5 -99
t-49.5 -53v-258h1095z" />
    <glyph glyph-name="uni0083" horiz-adv-x="1307" 
d="M1028 1225v229q-92 29 -207 29q-90 0 -151.5 -19.5t-100.5 -63.5t-60.5 -112.5t-31.5 -167.5l-20 -190h-138v-248h113l-53 -528q-4 -86 -26.5 -127t-90.5 -41h-39v-230q96 -28 209 -28q94 0 156.5 21.5t101.5 66.5t58.5 113.5t25.5 162.5l53 590h164v248h-135l16 129
q11 92 34.5 130t84.5 38q8 0 17.5 -1t19.5 -1z" />
    <glyph glyph-name="uni0083" unicode="&#x453;" horiz-adv-x="1307" 
d="M1028 1225v229q-92 29 -207 29q-90 0 -151.5 -19.5t-100.5 -63.5t-60.5 -112.5t-31.5 -167.5l-20 -190h-138v-248h113l-53 -528q-4 -86 -26.5 -127t-90.5 -41h-39v-230q96 -28 209 -28q94 0 156.5 21.5t101.5 66.5t58.5 113.5t25.5 162.5l53 590h164v248h-135l16 129
q11 92 34.5 130t84.5 38q8 0 17.5 -1t19.5 -1z" />
    <glyph glyph-name="uni0401" unicode="&#x401;" horiz-adv-x="1245" 
d="M1118 1757q0 103 -59.5 152t-140.5 49q-41 0 -78 -14.5t-66 -42t-46 -65.5t-17 -83q0 -51 18.5 -89t48 -63.5t66.5 -39t74 -13.5q36 0 72 13.5t64.5 40t46 65.5t17.5 90zM532 1753q0 102 -60 153.5t-144 51.5t-143.5 -56.5t-59.5 -148.5q0 -51 18.5 -89t47 -63.5
t64.5 -39t73 -13.5t72.5 13.5t65.5 39t48 63.5t18 89zM1188 0v532h-438v-108q0 -72 -39 -91.5t-125 -19.5v287h303v289h-303v270q30 0 59 -1t52.5 -10t38 -28.5t14.5 -56.5v-92h438v516h-1120v-273q20 -10 31.5 -30.5t16.5 -42t6 -41t1 -29.5v-655q0 -10 -1 -30.5t-6 -42
t-16.5 -41t-31.5 -30.5v-272h1120z" />
    <glyph glyph-name="uni0451" unicode="&#x451;" horiz-adv-x="1067" 
d="M870 1501q-26 27 -60 42.5t-68.5 16.5t-68.5 -12.5t-61 -40.5q-28 -26 -42.5 -60t-15.5 -69t12.5 -68.5t39.5 -60.5q27 -28 59.5 -42.5t68.5 -15.5t70 12.5t62 39.5q27 27 41.5 60.5t15.5 68.5t-12.5 69t-40.5 60zM442 1501q-26 27 -60 42.5t-68.5 16.5t-68.5 -12.5
t-61 -40.5q-28 -26 -42.5 -60t-15.5 -69t12.5 -68.5t39.5 -60.5q27 -28 59.5 -42.5t68.5 -15.5t70 12.5t62 39.5q27 27 41.5 60.5t15.5 68.5t-12.5 69t-40.5 60zM1022 141v267h-389v-68q0 -59 -19.5 -84t-60.5 -25q-35 0 -58.5 25t-23.5 84v125h551v377q0 76 -39 129
t-104.5 87t-150.5 48t-177 14q-113 0 -205 -13t-158.5 -53t-102.5 -113t-36 -191v-408q0 -98 23.5 -168t82 -115t156 -66.5t242.5 -21.5q123 0 204 18.5t133 45t83 56.5t49 50zM633 682h-162v27q0 79 15.5 115t66.5 36t65.5 -42t14.5 -136z" />
    <glyph glyph-name="uni2116" unicode="&#x2116;" horiz-adv-x="2177" 
d="M2150 600v371q0 65 -23.5 107t-64.5 66.5t-96 34t-117 9.5q-55 0 -107 -12.5t-91 -38t-62.5 -64.5t-23.5 -90v-395q0 -62 35.5 -99.5t84 -58t98.5 -28t81 -7.5q41 0 91 7.5t93 29t72.5 62.5t29.5 106zM2150 0v217h-585v-217h585zM1552 1229v258h-659v-258q41 -31 41 -72
v-80v-258l-260 668h-504v-273q20 -10 30.5 -30.5t15.5 -42t6 -41t1 -29.5v-655q0 -10 -2 -34t-12 -48.5t-33.5 -43t-66.5 -18.5v-272h524v272q-41 21 -47 60t-6 92v244l286 -668h451v1077q0 25 -1 52.5t17.5 49t67.5 36t151 14.5zM1890 627q0 -21 -3 -30t-23 -9
q-21 0 -24 14t-3 25v301q0 22 3 38.5t24 16.5q20 0 23 -16.5t3 -38.5v-301z" />
    <glyph glyph-name="FL0152" unicode="&#xe000;" horiz-adv-x="979" 
d="M807 1503h-115q-20 -84 -82 -84q-32 0 -57 8l-90 27q-25 8 -47.5 11t-38.5 3q-80 0 -129 -56t-76 -179h113q26 78 86 78q14 0 29.5 -4t37.5 -11l88 -24q33 -12 72 -12q84 0 131 59t78 184z" />
    <glyph glyph-name="FL0010" unicode="&#xe001;" horiz-adv-x="999" 
d="M823 1397q0 61 -43 105t-106 44q-31 0 -56.5 -12t-46 -32.5t-32 -48.5t-11.5 -56q0 -31 11.5 -57.5t32 -47t47 -33t55.5 -12.5q59 0 104 44t45 106zM471 1397q0 61 -43 105t-106 44q-62 0 -105 -45t-43 -104q0 -60 44 -105t104 -45q59 0 104 44t45 106z" />
    <glyph glyph-name="uni0491" unicode="&#x491;" horiz-adv-x="625" 
d="M530 1473h-286l-92 -259h202z" />
    <glyph glyph-name="FL00D0h" horiz-adv-x="1270" 
d="M1241 829v246q0 135 -44 216t-112.5 124t-153.5 56.5t-167 13.5h-696v-273q20 -10 31.5 -30.5t16.5 -42t6 -41t1 -29.5v-653q0 -10 -1 -30.5t-6 -42t-16.5 -41t-31.5 -30.5v-272h571v272q-21 11 -31 30.5t-15 41t-6 42t-1 30.5v14h205q98 0 181 24.5t142.5 74t93 124
t33.5 176.5zM764 858q0 -72 -49 -97.5t-129 -25.5v422q82 0 130 -26.5t48 -106.5v-166z" />
    <glyph glyph-name="FL00D7h" horiz-adv-x="1337" 
d="M1264 0v272q-21 11 -32 30.5t-16.5 41t-6.5 42t-1 30.5v655q0 10 1 29.5t6.5 41t16.5 42t32 30.5v273h-574v-273q21 -10 32 -30.5t16 -42t6 -41t1 -29.5v-156q0 -53 -14 -81.5t-65 -28.5q-43 0 -61.5 31.5t-24 75.5t-2 90.5t3.5 72.5q0 41 5 74t36 65v273h-555v-273
q41 -32 47 -71t6 -82v-184q4 -86 38 -156t87 -119t122.5 -75.5t145.5 -26.5q59 0 117.5 16t113.5 51v-151q0 -10 -1 -30.5t-6 -42t-16 -41t-32 -30.5v-272h574z" />
    <glyph glyph-name="FL00DDh" horiz-adv-x="1241" 
d="M1176 410v667q0 113 -30 196t-95.5 138t-170 82t-251.5 27q-92 0 -161 -8.5t-129 -28t-120.5 -49t-134.5 -72.5v-361h463v91q0 49 17.5 75.5t64.5 26.5q49 0 66.5 -23.5t17.5 -87.5v-204h-289v-250h289v-215q0 -56 -15.5 -88.5t-68.5 -32.5q-47 0 -64.5 26.5t-17.5 86.5
v112h-463v-364q25 -39 81 -73t130 -59.5t160 -40t174 -14.5q147 0 251.5 29t170 85t95.5 139t30 190z" />
    <glyph glyph-name="FL00DEh" horiz-adv-x="1901" 
d="M1833 410v667q0 113 -29.5 196t-95.5 138t-170 82t-252 27q-147 0 -251.5 -27t-170 -82t-95.5 -138t-30 -196v-162h-164v156q0 10 1.5 29.5t6.5 41t15 42t31 30.5v273h-572v-273q21 -10 32 -30.5t16.5 -42t6.5 -41t1 -29.5v-655q0 -10 -1 -30.5t-6.5 -42t-16.5 -41
t-32 -30.5v-272h572v272q-21 11 -31 30.5t-15 41t-6.5 42t-1.5 30.5v215h164v-221q0 -107 30 -190t95.5 -139t169 -85t252.5 -29q148 0 252 29t170 85t95.5 139t29.5 190zM1370 438q0 -61 -11 -103t-73 -42q-61 0 -72.5 42t-11.5 103v625q0 31 1 55.5t9.5 41t25.5 25.5t48 9
t48.5 -9t25.5 -25.5t9 -41t1 -55.5v-625z" />
    <glyph glyph-name="FL00F0h" horiz-adv-x="1133" 
d="M1092 319v490q0 147 -84 229t-230 82q-92 0 -156.5 -27.5t-117.5 -58.5v58h-473v-261q32 -20 41.5 -50.5t9.5 -71.5v-709q0 -41 -9.5 -71.5t-41.5 -51.5v-260h524v260q-33 21 -42 51.5t-9 71.5v55q49 -39 114.5 -61.5t129.5 -22.5q178 0 261 91.5t83 256.5zM670 410
q0 -68 -22.5 -97.5t-63.5 -29.5q-31 0 -80 16v494q45 22 86 22q35 0 57.5 -26.5t22.5 -92.5v-286z" />
    <glyph glyph-name="FL00FDh" horiz-adv-x="1044" 
d="M1008 342v422q0 98 -28 165.5t-89.5 109.5t-156.5 61.5t-230 19.5q-86 0 -154.5 -9t-124 -28.5t-101.5 -51.5t-89 -77v-213h387v21q0 33 19.5 65.5t62.5 32.5q47 0 64.5 -34.5t17.5 -75.5v-99h-258v-184h258v-125q0 -49 -20.5 -80t-61.5 -31q-47 0 -64.5 32t-17.5 81v41
h-387v-244q39 -37 75.5 -68.5t88 -54t123 -35t182.5 -12.5q117 0 211 14.5t158.5 54.5t99.5 112.5t35 189.5z" />
    <glyph glyph-name="FL00FEh" horiz-adv-x="1708" 
d="M1667 340v414q0 100 -28.5 170.5t-90 113.5t-157 62.5t-228.5 19.5q-143 0 -239.5 -20.5t-154.5 -65.5t-84 -114.5t-26 -169.5v-74h-141v33q0 41 9.5 71.5t41.5 50.5v261h-524v-261q33 -20 42 -50.5t9 -71.5v-326q0 -41 -9 -71.5t-42 -51.5v-260h524v260
q-32 21 -41.5 51.5t-9.5 71.5v51h141v-94q0 -102 28 -172t87.5 -114t155.5 -63.5t233 -19.5q133 0 228.5 19.5t157 63.5t90 114t28.5 172zM1245 340q0 -59 -25.5 -84t-56.5 -25q-30 0 -56 25t-26 82v416q0 57 26 81.5t56 24.5q31 0 56.5 -25.5t25.5 -84.5v-410z" />
    <glyph glyph-name="FL00B9h" horiz-adv-x="2177" 
d="M2150 600v371q0 65 -23.5 107t-64.5 66.5t-96 34t-117 9.5q-55 0 -107 -12.5t-91 -38t-62.5 -64.5t-23.5 -90v-395q0 -62 35.5 -99.5t84 -58t98.5 -28t81 -7.5q41 0 91 7.5t93 29t72.5 62.5t29.5 106zM2150 0v217h-585v-217h585zM1552 1229v258h-659v-258q41 -31 41 -72
v-80v-258l-260 668h-504v-273q20 -10 30.5 -30.5t15.5 -42t6 -41t1 -29.5v-655q0 -10 -2 -34t-12 -48.5t-33.5 -43t-66.5 -18.5v-272h524v272q-41 21 -47 60t-6 92v244l286 -668h451v1077q0 25 -1 52.5t17.5 49t67.5 36t151 14.5zM1890 627q0 -21 -3 -30t-23 -9
q-21 0 -24 14t-3 25v301q0 22 3 38.5t24 16.5q20 0 23 -16.5t3 -38.5v-301z" />
    <glyph glyph-name="_346" 
 />
    <glyph glyph-name="_347" 
 />
    <glyph glyph-name="_348" 
 />
    <glyph glyph-name="_349" 
 />
    <glyph glyph-name="_350" 
 />
    <glyph glyph-name="_351" 
 />
    <glyph glyph-name="_352" 
 />
    <glyph glyph-name="_353" 
 />
    <glyph glyph-name="_354" 
 />
    <glyph glyph-name="_355" 
 />
    <glyph glyph-name="_356" 
 />
    <glyph glyph-name="_357" 
 />
    <glyph glyph-name="_358" 
 />
    <glyph glyph-name="_359" 
 />
    <glyph glyph-name="_360" 
 />
    <glyph glyph-name="_361" 
 />
    <glyph glyph-name="_362" 
 />
    <glyph glyph-name="_363" 
 />
    <glyph glyph-name="_364" 
 />
    <glyph glyph-name="_365" 
 />
    <glyph glyph-name="_366" 
 />
    <glyph glyph-name="_367" 
 />
    <glyph glyph-name="_368" 
 />
    <glyph glyph-name="_369" 
 />
    <glyph glyph-name="_370" 
 />
    <glyph glyph-name="_371" 
 />
    <glyph glyph-name="_372" 
 />
    <glyph glyph-name="_373" 
 />
    <glyph glyph-name="_374" 
 />
    <glyph glyph-name="_375" 
 />
    <glyph glyph-name="_376" 
 />
    <glyph glyph-name="_377" 
 />
    <glyph glyph-name="_378" 
 />
    <glyph glyph-name="_379" 
 />
    <glyph glyph-name="_380" 
 />
    <glyph glyph-name="_381" 
 />
    <glyph glyph-name="_382" 
 />
    <glyph glyph-name="_383" 
 />
    <glyph glyph-name="_384" 
 />
    <glyph glyph-name="_385" 
 />
    <glyph glyph-name="_386" 
 />
    <glyph glyph-name="_387" 
 />
    <glyph glyph-name="_388" 
 />
    <glyph glyph-name="_389" 
 />
    <glyph glyph-name="_390" 
 />
    <glyph glyph-name="_391" 
 />
    <glyph glyph-name="_392" 
 />
    <glyph glyph-name="_393" 
 />
    <glyph glyph-name="_394" 
 />
    <glyph glyph-name="_395" 
 />
    <glyph glyph-name="_396" 
 />
    <glyph glyph-name="_397" 
 />
    <glyph glyph-name="_398" 
 />
    <glyph glyph-name="_399" 
 />
    <glyph glyph-name="_400" 
 />
    <glyph glyph-name="_401" 
 />
    <glyph glyph-name="_402" 
 />
    <glyph glyph-name="_403" 
 />
    <glyph glyph-name="_404" 
 />
    <glyph glyph-name="_405" 
 />
    <glyph glyph-name="_406" 
 />
    <glyph glyph-name="_407" 
 />
    <glyph glyph-name="_408" 
 />
    <glyph glyph-name="_409" 
 />
    <glyph glyph-name="_410" 
 />
    <glyph glyph-name="_411" 
 />
    <glyph glyph-name="_412" 
 />
    <glyph glyph-name="_413" 
 />
    <glyph glyph-name="_414" 
 />
    <glyph glyph-name="_415" 
 />
    <glyph glyph-name="_416" 
 />
    <glyph glyph-name="_417" 
 />
    <glyph glyph-name="_418" 
 />
    <glyph glyph-name="_419" 
 />
    <glyph glyph-name="_420" 
 />
    <glyph glyph-name="_421" 
 />
    <glyph glyph-name="_422" 
 />
    <glyph glyph-name="_423" 
 />
    <glyph glyph-name="_424" 
 />
    <glyph glyph-name="_425" 
 />
    <glyph glyph-name="_426" 
 />
    <glyph glyph-name="_427" 
 />
    <glyph glyph-name="_428" 
 />
    <glyph glyph-name="_429" 
 />
    <glyph glyph-name="_430" 
 />
    <glyph glyph-name="_431" 
 />
    <glyph glyph-name="_432" 
 />
    <glyph glyph-name="_433" 
 />
    <glyph glyph-name="_434" 
 />
    <glyph glyph-name="_435" 
 />
    <glyph glyph-name="_436" 
 />
    <glyph glyph-name="_437" 
 />
    <glyph glyph-name="_438" 
 />
    <glyph glyph-name="_439" 
 />
    <glyph glyph-name="_440" 
 />
    <glyph glyph-name="_441" 
 />
    <glyph glyph-name="_442" 
 />
    <glyph glyph-name="_443" 
 />
    <glyph glyph-name="_444" 
 />
    <glyph glyph-name="_445" 
 />
    <glyph glyph-name="_446" 
 />
    <glyph glyph-name="_447" 
 />
    <glyph glyph-name="_448" 
 />
    <glyph glyph-name="_449" 
 />
    <glyph glyph-name="_450" 
 />
    <glyph glyph-name="_451" 
 />
    <glyph glyph-name="_452" 
 />
    <glyph glyph-name="_453" 
 />
    <glyph glyph-name="_454" 
 />
    <glyph glyph-name="_455" 
 />
    <glyph glyph-name="_456" 
 />
    <glyph glyph-name="_457" 
 />
    <glyph glyph-name="_458" 
 />
    <glyph glyph-name="_459" 
 />
    <glyph glyph-name="_460" 
 />
    <glyph glyph-name="_461" 
 />
    <glyph glyph-name="_462" 
 />
    <glyph glyph-name="_463" 
 />
    <glyph glyph-name="_464" 
 />
    <glyph glyph-name="_465" 
 />
    <glyph glyph-name="_466" 
 />
    <glyph glyph-name="_467" 
 />
    <glyph glyph-name="_468" 
 />
    <glyph glyph-name="_469" 
 />
    <glyph glyph-name="_470" 
 />
    <glyph glyph-name="_471" 
 />
    <glyph glyph-name="_472" 
 />
    <glyph glyph-name="_473" 
 />
    <glyph glyph-name="_474" 
 />
    <glyph glyph-name="_475" 
 />
    <glyph glyph-name="_476" 
 />
    <glyph glyph-name="_477" 
 />
    <glyph glyph-name="_478" 
 />
    <glyph glyph-name="_479" 
 />
    <glyph glyph-name="_480" 
 />
    <glyph glyph-name="_481" 
 />
    <glyph glyph-name="_482" 
 />
    <glyph glyph-name="_483" 
 />
    <glyph glyph-name="_484" 
 />
    <glyph glyph-name="_485" 
 />
    <glyph glyph-name="_486" 
 />
    <glyph glyph-name="_487" 
 />
    <glyph glyph-name="_488" 
 />
    <glyph glyph-name="_489" 
 />
    <glyph glyph-name="_490" 
 />
    <glyph glyph-name="_491" 
 />
    </font>
</defs>
</svg>
